<svg width="753" height="260" viewBox="0 0 753 260" fill="none" xmlns="http://www.w3.org/2000/svg">
<path d="M753 0H0V259.949C6.88394 260.646 13.3548 253.98 23.6119 253.98C37.9305 253.98 37.9305 254.764 52.2147 254.764C66.4989 254.764 66.4989 253.849 80.7831 253.849C95.0672 253.849 95.1017 241.518 109.386 241.518C123.67 241.518 123.67 259.949 137.954 259.949C152.238 259.949 152.238 250.015 166.523 250.015C180.807 250.015 180.807 258.032 195.091 258.032C209.375 258.032 209.375 257.814 223.659 257.814C237.943 257.814 237.943 241.518 252.228 241.518C266.512 241.518 266.512 259.252 280.796 259.252C295.08 259.252 295.08 242.259 309.364 242.259C323.649 242.259 323.649 249.361 337.933 249.361C352.217 249.361 352.217 259.121 366.501 259.121C380.785 259.121 380.785 244.612 395.069 244.612C409.354 244.612 409.354 245.962 423.638 245.962C437.922 245.962 437.922 251.322 452.206 251.322C466.49 251.322 466.456 247.705 480.74 247.705C495.024 247.705 495.024 256.42 509.308 256.42C523.593 256.42 523.593 246.965 537.877 246.965C552.161 246.965 552.161 257.857 566.411 257.857C580.661 257.857 580.695 252.324 594.979 252.324C609.263 252.324 609.263 245.004 623.513 245.004C637.763 245.004 637.797 259.339 652.081 259.339C666.366 259.339 666.366 242.607 680.65 242.607C694.934 242.607 694.9 257.335 709.184 257.335C723.468 257.335 723.468 256.637 737.752 256.637C742.9 256.883 748.013 257.833 753 259.47V0Z" fill="#FFEAD1"/>
</svg>
