<svg width="39" height="95" viewBox="0 0 39 95" fill="none" xmlns="http://www.w3.org/2000/svg">
<path d="M19.5115 0C14.3386 0.00617726 9.37938 2.07142 5.72159 5.74271C2.0638 9.414 0.00615455 14.3916 0 19.5835V22.1044H4.39533V19.5835C4.28126 17.5203 4.58764 15.4555 5.29577 13.5151C6.00389 11.5748 7.09885 9.79989 8.51372 8.2988C9.9286 6.79772 11.6336 5.60205 13.5246 4.7849C15.4156 3.96775 17.4527 3.54629 19.5115 3.54629C21.5703 3.54629 23.6074 3.96775 25.4984 4.7849C27.3894 5.60205 29.0944 6.79772 30.5093 8.2988C31.9242 9.79989 33.0192 11.5748 33.7273 13.5151C34.4354 15.4555 34.7418 17.5203 34.6277 19.5835V82.6056C34.6216 84.7064 33.7858 86.719 32.3036 88.2022C30.8214 89.6855 28.8138 90.5184 26.7208 90.5184H24.7906C22.6976 90.5184 20.6899 89.6855 19.2077 88.2022C17.7256 86.719 16.8898 84.7064 16.8836 82.6056V28.4066C16.8836 27.8247 16.6533 27.2666 16.2434 26.8552C15.8334 26.4437 15.2774 26.2125 14.6976 26.2125C14.1178 26.2125 13.5618 26.4437 13.1518 26.8552C12.7419 27.2666 12.5115 27.8247 12.5115 28.4066V82.699C12.5177 85.9636 13.8141 89.0923 16.1162 91.3985C18.4183 93.7048 21.538 95 24.7906 95H26.7208C29.9733 95 33.093 93.7048 35.3951 91.3985C37.6972 89.0923 38.9936 85.9636 38.9998 82.699V19.6769C39.012 17.0993 38.5172 14.5446 37.5436 12.1593C36.57 9.77408 35.1368 7.60521 33.3262 5.77712C31.5156 3.94903 29.3633 2.49768 26.9927 1.5063C24.622 0.51493 22.0797 0.003043 19.5115 0V0Z" fill="#0B3053"/>
</svg>
