<svg width="124" height="29" viewBox="0 0 124 29" fill="none" xmlns="http://www.w3.org/2000/svg">
<path d="M27.0288 15.6751H17.1862C17.6182 13.6707 19.4555 12.3363 22.0364 12.3363C24.5025 12.3363 26.2633 13.517 27.0069 15.6751H27.0288ZM33.2241 20.0683V19.4093C33.2241 11.551 28.6474 6.71851 21.9599 6.71851C19.0443 6.74175 16.2573 7.92691 14.2116 10.0134C13.1913 11.0249 12.3823 12.2308 11.8321 13.5604C11.2818 14.89 11.0014 16.3165 11.0073 17.7564C10.9779 20.6671 12.0873 23.473 14.0968 25.5708C15.1023 26.6717 16.3315 27.543 17.7013 28.1256C19.071 28.7083 20.5494 28.9887 22.0364 28.948C26.7335 28.948 30.2112 26.713 32.2454 22.3088H25.4649C24.587 23.1039 23.4368 23.527 22.2552 23.4895C19.5539 23.4895 17.9518 22.3088 17.405 20.0738L33.2241 20.0683Z" fill="#120136"/>
<path d="M50.4158 15.6751H40.5732C41.0052 13.6707 42.8425 12.3363 45.4289 12.3363C47.8896 12.3363 49.6503 13.517 50.3939 15.6751H50.4158ZM56.6166 20.0683V19.4093C56.6385 11.5345 52.0617 6.71851 45.3852 6.71851C43.9422 6.72954 42.5157 7.02624 41.187 7.59161C39.8584 8.15699 38.6539 8.97995 37.6423 10.0134C36.6203 11.0239 35.8098 12.2295 35.2586 13.5593C34.7074 14.889 34.4265 16.316 34.4326 17.7564C34.4032 20.6671 35.5126 23.473 37.522 25.5708C38.5282 26.6724 39.7583 27.5441 41.129 28.1268C42.4998 28.7095 43.9793 28.9895 45.4672 28.948C50.1588 28.948 53.642 26.713 55.6761 22.3088H48.8519C47.974 23.1039 46.8238 23.527 45.6422 23.4895C42.9464 23.4895 41.3388 22.3088 40.792 20.0738L56.6166 20.0683Z" fill="#120136"/>
<path d="M2.26926 12.086V28.4451H8.33338V12.086H10.7995V7.35236H8.33338V6.84165C8.33338 4.91414 8.76536 4.28812 10.6409 4.28812H10.7995V0.0432011C10.4441 0.0432011 10.1324 0.00476074 9.84257 0.00476074C4.65335 0.00476074 2.23098 2.04759 2.23098 6.59454C2.23098 6.83067 2.26926 7.10525 2.26926 7.37982H0V12.086H2.26926Z" fill="#120136"/>
<path d="M58.9844 12.0837V28.4428H65.0704V12.0837H67.531V7.35004H65.0704V6.83934C65.0704 4.91183 65.4969 4.2858 67.3779 4.2858H67.531V0.0408818C67.1811 0.0408818 66.8694 0.00244141 66.5522 0.00244141C61.3903 0.00244141 58.968 2.04527 58.968 6.59222C58.968 6.82835 59.0063 7.10293 59.0063 7.3775H56.737V12.0837H58.9844Z" fill="#120136"/>
<path d="M83.5416 17.9156C83.5637 18.5847 83.4515 19.2514 83.2118 19.8761C82.9721 20.5008 82.6098 21.0707 82.1463 21.5519C81.6828 22.033 81.1277 22.4156 80.5139 22.677C79.9002 22.9383 79.2404 23.0729 78.5738 23.0729C77.9072 23.0729 77.2474 22.9383 76.6336 22.677C76.0199 22.4156 75.4648 22.033 75.0013 21.5519C74.5378 21.0707 74.1755 20.5008 73.9358 19.8761C73.6961 19.2514 73.5839 18.5847 73.606 17.9156C73.5839 17.2465 73.6961 16.5798 73.9358 15.9551C74.1755 15.3304 74.5378 14.7606 75.0013 14.2794C75.4648 13.7982 76.0199 13.4156 76.6336 13.1543C77.2474 12.893 77.9072 12.7583 78.5738 12.7583C79.2404 12.7583 79.9002 12.893 80.5139 13.1543C81.1277 13.4156 81.6828 13.7982 82.1463 14.2794C82.6098 14.7606 82.9721 15.3304 83.2118 15.9551C83.4515 16.5798 83.5637 17.2465 83.5416 17.9156ZM89.6768 17.7619C89.6438 15.5684 88.9672 13.4335 87.7317 11.6245C86.4962 9.81544 84.7567 8.4127 82.731 7.59193C80.7053 6.77115 78.4835 6.56884 76.3439 7.01031C74.2042 7.45179 72.2418 8.51743 70.7025 10.0738C69.6824 11.0855 68.8736 12.2915 68.3234 13.621C67.7732 14.9506 67.4926 16.377 67.4982 17.8168C67.4695 20.716 68.5795 23.5097 70.5876 25.5927C71.5927 26.6947 72.8216 27.567 74.1914 28.1506C75.5612 28.7342 77.0399 29.0155 78.5273 28.9755C80.011 28.9989 81.4839 28.7189 82.8564 28.1525C84.2289 27.586 85.4722 26.745 86.5107 25.6806C87.5481 24.6471 88.3641 23.4115 88.9085 22.0498C89.453 20.688 89.7144 19.2288 89.6768 17.7619Z" fill="#120136"/>
<path d="M99.1693 14.3351C97.7278 14.2438 96.3693 13.626 95.35 12.5983C94.3306 11.5705 93.7209 10.2038 93.6356 8.75576H106.628V8.61298C106.628 3.48394 103.347 0.0627441 98.8467 0.0627441C94.0785 0.0627441 90.8414 3.56631 90.8414 8.12973C90.8292 9.18485 91.0247 10.232 91.4168 11.211C91.8088 12.19 92.3897 13.0814 93.1261 13.8342C93.8624 14.5869 94.7396 15.1861 95.7073 15.5972C96.675 16.0083 97.714 16.2232 98.7647 16.2297C102.084 16.2297 104.725 14.3735 106.147 10.9524H104.829C104.354 11.9645 103.603 12.8206 102.663 13.4213C101.724 14.022 100.633 14.3427 99.5193 14.3461H99.1693" fill="#FFDC00"/>
<path d="M115.48 14.2724C116.922 14.181 118.28 13.5633 119.3 12.5355C120.319 11.5078 120.929 10.1411 121.014 8.69302H108V8.55024C108 3.42119 111.281 0 115.781 0C120.549 0 123.786 3.50357 123.786 8.06699C123.799 9.12211 123.603 10.1693 123.211 11.1482C122.819 12.1272 122.238 13.0187 121.502 13.7714C120.765 14.5242 119.888 15.1233 118.921 15.5344C117.953 15.9455 116.914 16.1605 115.863 16.1669C112.544 16.1669 109.903 14.3108 108.481 10.8896H109.799C110.276 11.9043 111.031 12.7619 111.975 13.3627C112.919 13.9635 114.013 14.2828 115.13 14.2833H115.48" fill="#FFDC00"/>
</svg>
