<svg width="230" height="51" viewBox="0 0 230 51" fill="none" xmlns="http://www.w3.org/2000/svg">
<path d="M12.554 18.9324C12.554 19.5374 12.8921 20.7812 13.0612 21.3275L14.2025 19.1845L13.822 17.7979C13.6107 17.9659 13.0612 18.4281 12.554 18.9324Z" fill="#F09020"/>
<path d="M15.0901 15.277C15.0901 17.5048 13.2734 19.3109 11.0323 19.3109C8.79119 19.3109 6.97443 17.5048 6.97443 15.277C6.97443 13.0492 8.79119 11.2432 11.0323 11.2432C13.2734 11.2432 15.0901 13.0492 15.0901 15.277Z" fill="#FCBF1E"/>
<path d="M14.0757 15.2768C14.0757 16.9477 12.7131 18.3022 11.0323 18.3022C9.35147 18.3022 7.98889 16.9477 7.98889 15.2768C7.98889 13.606 9.35147 12.2515 11.0323 12.2515C12.7131 12.2515 14.0757 13.606 14.0757 15.2768Z" fill="#E3AC1B"/>
<path d="M17.119 21.8321H22.3181C22.6225 22.9414 20.6696 23.6389 19.6552 23.849H17.119C14.3799 23.9499 13.2725 22.2103 13.0612 21.3279L13.3782 20.3194L13.6952 19.3109L13.6952 18.3025C13.9488 17.168 12.4271 16.4116 13.6952 16.4116C14.9633 16.4116 14.7096 18.5546 14.2024 19.1849C14.2024 21.4035 16.1468 21.8741 17.119 21.8321Z" fill="#F09020"/>
<path fill-rule="evenodd" clip-rule="evenodd" d="M19.6552 23.8489H17.119C14.38 23.9498 13.2725 22.2102 13.0612 21.3278C12.9538 20.9808 12.7782 20.3526 12.6644 19.7852C12.6069 19.4989 12.5652 19.2281 12.5559 19.0169C12.3175 19.1129 12.0678 19.1872 11.8093 19.237C11.5578 19.2855 11.298 19.3109 11.0323 19.3109C8.79118 19.3109 6.97441 17.5048 6.97441 15.277C6.97441 13.0492 8.79118 11.2432 11.0323 11.2432C13.2734 11.2432 15.0901 13.0492 15.0901 15.277C15.0901 15.9913 14.9034 16.6622 14.5758 17.2441C14.7119 17.9179 14.5011 18.8136 14.2025 19.1848C14.2025 21.4034 16.1468 21.874 17.119 21.832H22.3182C22.3622 21.9925 22.359 22.1444 22.3182 22.2875C22.2882 22.3926 22.2379 22.4929 22.1712 22.5884C21.7012 23.2608 20.415 23.6916 19.6552 23.8489ZM14.9711 19.3966C15.0245 20.1052 15.3472 20.4887 15.7087 20.7206C16.1512 21.0045 16.7135 21.0925 17.086 21.0764C17.097 21.0759 17.108 21.0757 17.119 21.0757H22.3182C22.6613 21.0757 22.9619 21.3039 23.0522 21.633C23.1974 22.1623 23.0593 22.6412 22.7991 23.0155C22.5552 23.3665 22.2041 23.6313 21.8686 23.8286C21.1945 24.2251 20.3648 24.4746 19.8104 24.5894C19.7594 24.6 19.7074 24.6053 19.6552 24.6053H17.1327C14.0095 24.7139 12.6227 22.7082 12.3273 21.5285C12.2424 21.2523 12.122 20.8265 12.0177 20.386C11.9871 20.2565 11.9567 20.121 11.9286 19.9843C11.6379 20.0388 11.3382 20.0672 11.0323 20.0672C8.37097 20.0672 6.21356 17.9226 6.21356 15.277C6.21356 12.6315 8.37097 10.4868 11.0323 10.4868C13.6936 10.4868 15.851 12.6315 15.851 15.277C15.851 16.0295 15.6759 16.7432 15.3637 17.3782C15.4005 17.7546 15.3674 18.1403 15.2976 18.4796C15.2342 18.7875 15.1281 19.117 14.9711 19.3966Z" fill="#501D00"/>
<path d="M17.8029 4.05774C20.3679 4.05774 22.5042 3.95117 22.8317 5.69768C22.883 5.97144 23.1023 6.20072 23.3824 6.20072H24.2701C24.5502 6.20072 24.7685 5.97039 24.8325 5.69927C25.2965 3.73214 28.5645 4.05774 29.9764 4.05774C29.9764 5.69649 27.9475 6.95706 26.5526 6.95706C27.5671 6.95706 28.2011 8.97397 28.2011 11.9994V34.0595C28.1589 37.0428 28.9873 43.0096 32.6394 43.0096C37.2045 43.0096 41.2624 38.0933 44.3057 35.32C42.0232 41.3708 37.2045 47.4216 32.1322 47.4216C28.0743 47.4216 24.6928 45.4887 23.5092 44.5223V46.161C23.5092 46.8572 22.9436 47.4216 22.2433 47.4216H10.5748C8.64734 47.4216 9.7717 46.245 10.5748 45.6568C12.3501 41.749 16.3582 45.6568 19.4016 45.6568V44.5222C17.2458 44.2701 12.9842 41.8246 12.9842 34.0595C12.9842 26.2501 18.3196 22.1127 21.9242 20.7937C23.1072 20.3608 24.1433 19.3033 24.1433 18.0501C24.1433 16.797 23.1214 15.7811 21.8607 15.7811H21.0999C19.6992 15.7811 18.5637 14.6523 18.5637 13.2599V13.0078H18.3101C18.03 13.0078 17.8029 12.7821 17.8029 12.5036C17.8029 12.2251 18.03 11.9994 18.3101 11.9994H19.3246C19.8848 11.9994 20.3348 11.5479 20.3121 10.9914C20.2504 9.47724 20.1694 7.882 21.0999 6.95706C19.8318 6.95706 17.8029 5.82254 17.8029 4.05774Z" fill="#F09020"/>
<path fill-rule="evenodd" clip-rule="evenodd" d="M17.0421 4.05777C17.0421 3.64005 17.3827 3.30142 17.8029 3.30142C17.9427 3.30142 18.0831 3.30102 18.2237 3.30061C19.323 3.29746 20.4328 3.29427 21.3165 3.48339C21.8297 3.59321 22.3381 3.78019 22.7536 4.12196C23.1583 4.45491 23.4304 4.89844 23.5558 5.4444H24.1125C24.4914 4.03599 25.85 3.56277 26.9307 3.39371C27.8216 3.25434 28.8111 3.27738 29.4974 3.29336C29.6815 3.29764 29.8438 3.30142 29.9765 3.30142C30.3967 3.30142 30.7373 3.64005 30.7373 4.05777C30.7373 5.20007 30.0367 6.12247 29.2509 6.72198C28.9212 6.97344 28.5517 7.18818 28.1676 7.35285C28.2913 7.58633 28.3947 7.84323 28.4817 8.11227C28.8008 9.09916 28.962 10.447 28.962 11.9994V34.0595L28.9619 34.0702C28.9415 35.5083 29.1339 37.65 29.7528 39.4028C30.3896 41.2065 31.3349 42.2533 32.6394 42.2533C34.6535 42.2533 36.6363 41.1628 38.5656 39.6161C39.8179 38.6121 40.956 37.4985 42.0336 36.4441C42.6354 35.8554 43.2182 35.285 43.7916 34.7625C44.0511 34.5261 44.4398 34.4974 44.7315 34.6932C45.0232 34.889 45.1418 35.2581 45.0182 35.5856C43.8479 38.6878 42.0245 41.8024 39.8221 44.1551C37.634 46.4926 34.9736 48.178 32.1322 48.178C28.8512 48.178 25.9994 46.9866 24.2701 45.9587V46.161C24.2701 47.2733 23.3655 48.178 22.2433 48.178H10.5748C10.0677 48.178 9.54729 48.111 9.17889 47.8235C8.96612 47.6574 8.81597 47.426 8.76685 47.1502C8.72123 46.894 8.77386 46.6632 8.83965 46.4911C8.96573 46.1613 9.20861 45.8697 9.41868 45.6543C9.59189 45.4767 9.78344 45.3102 9.9662 45.1671C10.475 44.1429 11.1835 43.5211 12.0741 43.2787C12.9613 43.0372 13.8965 43.2127 14.7355 43.4682C15.2575 43.6271 15.8195 43.8445 16.3563 44.054C14.2439 42.5383 12.2234 39.4844 12.2234 34.0595C12.2234 25.846 17.8493 21.4788 21.6614 20.0839C22.6644 19.7169 23.3825 18.8764 23.3825 18.0502C23.3825 17.2147 22.7012 16.5375 21.8608 16.5375H21.0999C19.4187 16.5375 18.0315 15.2866 17.8285 13.6701C17.367 13.4816 17.0421 13.0303 17.0421 12.5036C17.0421 11.8074 17.6098 11.2431 18.3101 11.2431H19.3246C19.4668 11.2431 19.5565 11.1352 19.5519 11.022C19.5506 10.9903 19.5493 10.9583 19.548 10.9262C19.5186 10.211 19.4855 9.40455 19.579 8.65962C19.6279 8.26971 19.7143 7.87057 19.8666 7.49023C19.394 7.32774 18.9255 7.08195 18.5148 6.77086C17.73 6.17647 17.0421 5.25163 17.0421 4.05777ZM20.2315 6.81331C20.5372 6.90763 20.8351 6.95709 21.0999 6.95709C20.8903 7.16547 20.732 7.40786 20.6133 7.67569C20.2134 8.57767 20.2621 9.76807 20.3091 10.9187C20.3101 10.943 20.3111 10.9672 20.3121 10.9914C20.3348 11.5479 19.8849 11.9994 19.3246 11.9994H18.3101C18.03 11.9994 17.8029 12.2252 17.8029 12.5036C17.8029 12.7821 18.03 13.0079 18.3101 13.0079H18.5638V13.26C18.5638 14.6524 19.6992 15.7811 21.0999 15.7811H21.8608C23.1214 15.7811 24.1433 16.797 24.1433 18.0502C24.1433 19.3033 23.1072 20.3608 21.9242 20.7937C18.3197 22.1127 12.9842 26.2501 12.9842 34.0595C12.9842 41.8247 17.2459 44.2702 19.4016 44.5223V45.6568C19.1538 45.6568 18.8996 45.6309 18.6408 45.5854C17.8279 45.4426 16.9689 45.1067 16.1174 44.7736C13.9096 43.9103 11.7517 43.0664 10.5748 45.6568C9.77173 46.2451 8.64737 47.4216 10.5748 47.4216H22.2433C22.9437 47.4216 23.5093 46.8572 23.5093 46.161V44.5223C23.705 44.6821 23.9609 44.8685 24.2701 45.0681C25.83 46.0753 28.7456 47.4216 32.1322 47.4216C36.7181 47.4216 41.0967 42.4757 43.5811 37.0556C43.8446 36.4806 44.0869 35.9004 44.3058 35.3201C43.8731 35.7144 43.4199 36.152 42.9476 36.6126C42.8373 36.7203 42.7258 36.8292 42.6134 36.9391C39.8232 39.6668 36.4038 43.0096 32.6394 43.0096C28.9874 43.0096 28.1589 37.0429 28.2012 34.0595V11.9994C28.2012 9.9889 27.9212 8.42377 27.4356 7.59993C27.1905 7.18406 26.893 6.95709 26.5526 6.95709C26.9136 6.95709 27.317 6.87269 27.7167 6.71916C28.614 6.37453 29.4927 5.6816 29.8309 4.81332C29.9243 4.57362 29.9765 4.32055 29.9765 4.05777C29.8171 4.05777 29.6342 4.05362 29.4343 4.04909C27.8627 4.01348 25.2442 3.95414 24.8325 5.6993C24.7686 5.97042 24.5502 6.20075 24.2701 6.20075H23.3824C23.1023 6.20075 22.8831 5.97147 22.8317 5.69771C22.5222 4.04721 20.5974 4.05165 18.2218 4.05713C18.0836 4.05744 17.9439 4.05777 17.8029 4.05777C17.8029 4.32488 17.8494 4.57756 17.9327 4.81405C18.2848 5.81379 19.2946 6.52424 20.2315 6.81331Z" fill="#501D00"/>
<path d="M23.4595 10.7188C23.4595 11.2062 23.062 11.6012 22.5718 11.6012C22.0816 11.6012 21.6841 11.2062 21.6841 10.7188C21.6841 10.2315 22.0816 9.83643 22.5718 9.83643C23.062 9.83643 23.4595 10.2315 23.4595 10.7188Z" fill="white"/>
<path fill-rule="evenodd" clip-rule="evenodd" d="M17.3961 35.271C20.1113 33.2197 23.2141 34.2432 24.423 34.9999C24.6008 35.1112 24.6542 35.3447 24.5423 35.5214C24.4303 35.6982 24.1955 35.7513 24.0177 35.64C22.9441 34.968 20.2137 34.0923 17.8565 35.8732C17.3037 36.2908 17.0478 36.7883 16.9794 37.326C16.9092 37.8776 17.0339 38.498 17.2972 39.1421C17.825 40.4334 18.8639 41.7085 19.6671 42.4865C19.7406 42.5577 19.7821 42.6553 19.7821 42.7573V45.2785C19.7821 45.4874 19.6117 45.6567 19.4016 45.6567C19.1915 45.6567 19.0212 45.4874 19.0212 45.2785V42.9152C18.1921 42.0878 17.148 40.7863 16.5923 39.4268C16.3008 38.7137 16.1322 37.9569 16.2245 37.2311C16.3186 36.4915 16.6809 35.8113 17.3961 35.271Z" fill="#501D00"/>
<path d="M18.8944 29.3955C16.9133 29.3955 15.2638 30.8067 14.9077 32.673H22.881C22.5249 30.8067 20.8754 29.3955 18.8944 29.3955Z" fill="#FCBF1E"/>
<path d="M21.8419 32.6728C21.504 31.368 20.3125 30.4038 18.8944 30.4038C17.4763 30.4038 16.2847 31.368 15.9468 32.6728H21.8419Z" fill="#E3AC1B"/>
<path fill-rule="evenodd" clip-rule="evenodd" d="M13.9489 32.6731C13.9489 32.4642 14.1192 32.2949 14.3293 32.2949H23.4595C23.6696 32.2949 23.8399 32.4642 23.8399 32.6731C23.8399 32.882 23.6696 33.0513 23.4595 33.0513H14.3293C14.1192 33.0513 13.9489 32.882 13.9489 32.6731Z" fill="#501D00"/>
<path fill-rule="evenodd" clip-rule="evenodd" d="M24.7275 21.4536C24.9376 21.4536 25.1079 21.6229 25.1079 21.8318V23.9748C25.1079 24.8798 24.3699 25.6135 23.4594 25.6135H19.6552C19.3387 25.6135 18.9721 25.8633 18.7591 26.2869C18.5564 26.6898 18.5457 27.15 18.803 27.5088C18.9826 27.6836 19.0785 27.7246 19.1092 27.7341C19.1209 27.7244 19.1417 27.7034 19.1724 27.6611C19.2296 27.5824 19.2775 27.4939 19.3392 27.3797C19.3709 27.3209 19.4064 27.2553 19.4487 27.1808C19.5574 26.9891 19.7057 26.753 19.9248 26.5788C20.3347 26.2528 20.8466 26.1474 21.349 26.1653C21.8516 26.1831 22.374 26.3243 22.8485 26.5265C22.9449 26.5676 23.0403 26.6101 23.1351 26.6524C23.5195 26.8238 23.8925 26.9902 24.2794 27.0341C24.5053 27.0598 24.7174 27.0391 24.9196 26.9523C25.1217 26.8656 25.3402 26.7016 25.5611 26.3995C25.6847 26.2306 25.9226 26.1933 26.0926 26.3161C26.2625 26.439 26.3 26.6755 26.1765 26.8444C25.8902 27.2357 25.5698 27.4971 25.2211 27.6467C24.8724 27.7963 24.5218 27.8229 24.193 27.7856C23.6754 27.7268 23.1646 27.497 22.7774 27.3229C22.6953 27.2859 22.6187 27.2515 22.5488 27.2217C22.1356 27.0457 21.7069 26.9348 21.3218 26.9211C20.9366 26.9074 20.6242 26.9912 20.4001 27.1694C20.3021 27.2473 20.2127 27.3736 20.1114 27.5522C20.0889 27.592 20.0641 27.6377 20.0378 27.6864C19.9639 27.8227 19.8772 27.9829 19.7892 28.104C19.664 28.2764 19.4462 28.5019 19.1004 28.493C18.7923 28.4851 18.5108 28.2882 18.2449 28.0239C18.2322 28.0113 18.2204 27.9977 18.2096 27.9834C17.7216 27.3366 17.7779 26.5464 18.0786 25.9486C18.3727 25.3638 18.9573 24.8572 19.6552 24.8572H23.4594C23.9497 24.8572 24.3471 24.4621 24.3471 23.9748V21.8318C24.3471 21.6229 24.5174 21.4536 24.7275 21.4536ZM19.0975 27.7418C19.0976 27.7415 19.0992 27.7403 19.1025 27.7392C19.0991 27.7415 19.0975 27.7421 19.0975 27.7418Z" fill="#501D00"/>
<path d="M39.243 33.147C37.7875 33.147 36.6149 32.7209 35.7254 31.8689C34.8521 31.0007 34.4155 29.8432 34.4155 28.3963V20.5829C34.4155 19.152 34.8521 18.0106 35.7254 17.1585C36.6149 16.3064 37.7875 15.8804 39.243 15.8804C40.7147 15.8804 41.8872 16.3064 42.7605 17.1585C43.65 18.0106 44.0948 19.152 44.0948 20.5829V20.8481C44.0948 20.9285 44.0624 21.0009 43.9977 21.0652C43.9492 21.1134 43.8845 21.1375 43.8037 21.1375L40.9654 21.2581C40.7713 21.2581 40.6743 21.1697 40.6743 20.9928V20.3658C40.6743 19.8996 40.5449 19.5218 40.2861 19.2324C40.0274 18.943 39.6797 18.7983 39.243 18.7983C38.8225 18.7983 38.4829 18.943 38.2241 19.2324C37.9654 19.5218 37.836 19.8996 37.836 20.3658V28.6856C37.836 29.1519 37.9654 29.5297 38.2241 29.8191C38.4829 30.0924 38.8225 30.229 39.243 30.229C39.6797 30.229 40.0274 30.0924 40.2861 29.8191C40.5449 29.5297 40.6743 29.1519 40.6743 28.6856V28.0345C40.6743 27.9541 40.6985 27.8898 40.747 27.8416C40.8117 27.7773 40.8845 27.7451 40.9654 27.7451L43.8037 27.8657C43.8845 27.8657 43.9492 27.8979 43.9977 27.9622C44.0624 28.0104 44.0948 28.0747 44.0948 28.1551V28.3963C44.0948 29.8432 43.65 31.0007 42.7605 31.8689C41.871 32.7209 40.6985 33.147 39.243 33.147Z" fill="#120136"/>
<path d="M51.539 33.147C50.0512 33.147 48.8625 32.7129 47.973 31.8448C47.0835 30.9766 46.6387 29.8191 46.6387 28.3721V20.6552C46.6387 19.2083 47.0835 18.0508 47.973 17.1826C48.8625 16.3144 50.0512 15.8804 51.539 15.8804C53.0269 15.8804 54.2156 16.3144 55.1051 17.1826C56.0108 18.0508 56.4636 19.2083 56.4636 20.6552V28.3721C56.4636 29.8191 56.0108 30.9766 55.1051 31.8448C54.2156 32.7129 53.0269 33.147 51.539 33.147ZM51.539 30.229C51.9919 30.229 52.3558 30.0763 52.6307 29.7708C52.9056 29.4493 53.0431 29.0313 53.0431 28.5168V20.5105C53.0431 19.9961 52.9056 19.5861 52.6307 19.2806C52.3558 18.9591 51.9919 18.7983 51.539 18.7983C51.0862 18.7983 50.7223 18.9591 50.4474 19.2806C50.1886 19.5861 50.0593 19.9961 50.0593 20.5105V28.5168C50.0593 29.0313 50.1886 29.4493 50.4474 29.7708C50.7223 30.0763 51.0862 30.229 51.539 30.229Z" fill="#120136"/>
<path d="M64.0726 33.147C62.617 33.147 61.4445 32.6968 60.555 31.7965C59.6817 30.8801 59.245 29.6663 59.245 28.1551V16.3627C59.245 16.2823 59.2693 16.218 59.3178 16.1698C59.3825 16.1054 59.4553 16.0733 59.5362 16.0733H62.3745C62.4553 16.0733 62.52 16.1054 62.5685 16.1698C62.6332 16.218 62.6656 16.2823 62.6656 16.3627V28.4927C62.6656 29.0072 62.7949 29.4252 63.0537 29.7467C63.3125 30.0683 63.6521 30.229 64.0726 30.229C64.4931 30.229 64.8246 30.0683 65.0672 29.7467C65.326 29.4252 65.4553 29.0072 65.4553 28.4927V16.3627C65.4553 16.2823 65.4796 16.218 65.5281 16.1698C65.5928 16.1054 65.6656 16.0733 65.7464 16.0733H68.5847C68.6656 16.0733 68.7303 16.1054 68.7788 16.1698C68.8435 16.218 68.8758 16.2823 68.8758 16.3627V28.1551C68.8758 29.6663 68.4311 30.8801 67.5416 31.7965C66.6683 32.6968 65.5119 33.147 64.0726 33.147Z" fill="#120136"/>
<path d="M78.6924 16.3627C78.6924 16.2823 78.7166 16.218 78.7651 16.1698C78.8298 16.1054 78.9026 16.0733 78.9835 16.0733H81.7975C81.8784 16.0733 81.9431 16.1054 81.9916 16.1698C82.0563 16.218 82.0886 16.2823 82.0886 16.3627V32.6647C82.0886 32.7451 82.0563 32.8174 81.9916 32.8817C81.9431 32.9299 81.8784 32.9541 81.7975 32.9541H78.5953C78.4336 32.9541 78.3285 32.8737 78.28 32.7129L75.2719 23.3803C75.2557 23.332 75.2233 23.3159 75.1748 23.332C75.1425 23.332 75.1263 23.3561 75.1263 23.4044L75.1506 32.6647C75.1506 32.7451 75.1182 32.8174 75.0535 32.8817C75.005 32.9299 74.9403 32.9541 74.8595 32.9541H72.0454C71.9646 32.9541 71.8918 32.9299 71.8271 32.8817C71.7786 32.8174 71.7543 32.7451 71.7543 32.6647V16.3627C71.7543 16.2823 71.7786 16.218 71.8271 16.1698C71.8918 16.1054 71.9646 16.0733 72.0454 16.0733H75.2233C75.3851 16.0733 75.4902 16.1537 75.5387 16.3144L78.5711 25.6471C78.5872 25.6953 78.6115 25.7194 78.6439 25.7194C78.6924 25.7034 78.7166 25.6712 78.7166 25.623L78.6924 16.3627Z" fill="#120136"/>
<path d="M94.5983 16.0733C94.6791 16.0733 94.7438 16.1054 94.7923 16.1698C94.857 16.218 94.8894 16.2823 94.8894 16.3627V18.7019C94.8894 18.7823 94.857 18.8546 94.7923 18.9189C94.7438 18.9671 94.6791 18.9913 94.5983 18.9913H91.5659C91.485 18.9913 91.4446 19.0314 91.4446 19.1118V32.6647C91.4446 32.7451 91.4123 32.8174 91.3476 32.8817C91.2991 32.9299 91.2344 32.9541 91.1535 32.9541H88.3152C88.2343 32.9541 88.1616 32.9299 88.0969 32.8817C88.0484 32.8174 88.0241 32.7451 88.0241 32.6647V19.1118C88.0241 19.0314 87.9837 18.9913 87.9028 18.9913H84.9917C84.9109 18.9913 84.8381 18.9671 84.7734 18.9189C84.7249 18.8546 84.7006 18.7823 84.7006 18.7019V16.3627C84.7006 16.2823 84.7249 16.218 84.7734 16.1698C84.8381 16.1054 84.9109 16.0733 84.9917 16.0733H94.5983Z" fill="#120136"/>
<path d="M112.234 18.7019C112.234 18.7823 112.201 18.8546 112.137 18.9189C112.088 18.9671 112.024 18.9913 111.943 18.9913H106.873C106.792 18.9913 106.751 19.0314 106.751 19.1118V22.9221C106.751 23.0024 106.792 23.0426 106.873 23.0426H109.784C109.864 23.0426 109.929 23.0748 109.978 23.1391C110.042 23.1873 110.075 23.2516 110.075 23.332V25.6712C110.075 25.7516 110.042 25.8239 109.978 25.8883C109.929 25.9365 109.864 25.9606 109.784 25.9606H106.873C106.792 25.9606 106.751 26.0008 106.751 26.0812V29.9155C106.751 29.9959 106.792 30.0361 106.873 30.0361H111.943C112.024 30.0361 112.088 30.0683 112.137 30.1326C112.201 30.1808 112.234 30.2451 112.234 30.3255V32.6647C112.234 32.7451 112.201 32.8174 112.137 32.8817C112.088 32.9299 112.024 32.9541 111.943 32.9541H103.622C103.541 32.9541 103.468 32.9299 103.404 32.8817C103.355 32.8174 103.331 32.7451 103.331 32.6647V16.3627C103.331 16.2823 103.355 16.218 103.404 16.1698C103.468 16.1054 103.541 16.0733 103.622 16.0733H111.943C112.024 16.0733 112.088 16.1054 112.137 16.1698C112.201 16.218 112.234 16.2823 112.234 16.3627V18.7019Z" fill="#120136"/>
<path d="M118.213 32.9541C118.035 32.9541 117.93 32.8656 117.898 32.6888L114.429 16.3868L114.404 16.2903C114.404 16.1456 114.493 16.0733 114.671 16.0733H117.801C117.995 16.0733 118.1 16.1617 118.116 16.3386L119.79 26.9493C119.806 27.0136 119.83 27.0458 119.863 27.0458C119.895 27.0458 119.919 27.0136 119.935 26.9493L121.561 16.3386C121.577 16.1617 121.682 16.0733 121.876 16.0733H124.908C125.119 16.0733 125.2 16.1778 125.151 16.3868L121.658 32.6888C121.625 32.8656 121.52 32.9541 121.342 32.9541H118.213Z" fill="#120136"/>
<path d="M136.657 18.7019C136.657 18.7823 136.624 18.8546 136.56 18.9189C136.511 18.9671 136.446 18.9913 136.366 18.9913H131.295C131.215 18.9913 131.174 19.0314 131.174 19.1118V22.9221C131.174 23.0024 131.215 23.0426 131.295 23.0426H134.206C134.287 23.0426 134.352 23.0748 134.401 23.1391C134.465 23.1873 134.498 23.2516 134.498 23.332V25.6712C134.498 25.7516 134.465 25.8239 134.401 25.8883C134.352 25.9365 134.287 25.9606 134.206 25.9606H131.295C131.215 25.9606 131.174 26.0008 131.174 26.0812V29.9155C131.174 29.9959 131.215 30.0361 131.295 30.0361H136.366C136.446 30.0361 136.511 30.0683 136.56 30.1326C136.624 30.1808 136.657 30.2451 136.657 30.3255V32.6647C136.657 32.7451 136.624 32.8174 136.56 32.8817C136.511 32.9299 136.446 32.9541 136.366 32.9541H128.045C127.964 32.9541 127.891 32.9299 127.826 32.8817C127.778 32.8174 127.754 32.7451 127.754 32.6647V16.3627C127.754 16.2823 127.778 16.218 127.826 16.1698C127.891 16.1054 127.964 16.0733 128.045 16.0733H136.366C136.446 16.0733 136.511 16.1054 136.56 16.1698C136.624 16.218 136.657 16.2823 136.657 16.3627V18.7019Z" fill="#120136"/>
<path d="M146.056 32.9541C145.878 32.9541 145.765 32.8737 145.717 32.7129L143.849 26.0571C143.816 25.9928 143.776 25.9606 143.728 25.9606H142.903C142.822 25.9606 142.781 26.0008 142.781 26.0812V32.6647C142.781 32.7451 142.749 32.8174 142.684 32.8817C142.636 32.9299 142.571 32.9541 142.49 32.9541H139.652C139.571 32.9541 139.498 32.9299 139.434 32.8817C139.385 32.8174 139.361 32.7451 139.361 32.6647V16.3627C139.361 16.2823 139.385 16.218 139.434 16.1698C139.498 16.1054 139.571 16.0733 139.652 16.0733H144.552C145.442 16.0733 146.234 16.2903 146.93 16.7244C147.625 17.1424 148.159 17.7373 148.531 18.5089C148.919 19.2806 149.113 20.1649 149.113 21.1616C149.113 22.1102 148.927 22.9462 148.555 23.6696C148.199 24.3931 147.698 24.9558 147.051 25.3577C147.019 25.3738 146.994 25.3979 146.978 25.4301C146.962 25.4461 146.962 25.4703 146.978 25.5024L149.21 32.6164L149.234 32.7129C149.234 32.8737 149.145 32.9541 148.967 32.9541H146.056ZM142.903 18.9913C142.822 18.9913 142.781 19.0314 142.781 19.1118V23.2356C142.781 23.3159 142.822 23.3561 142.903 23.3561H143.994C144.496 23.3561 144.9 23.1632 145.207 22.7774C145.531 22.3754 145.693 21.8449 145.693 21.1858C145.693 20.5105 145.531 19.98 145.207 19.5941C144.9 19.1922 144.496 18.9913 143.994 18.9913H142.903Z" fill="#120136"/>
<path d="M154.314 32.9299C154.233 32.9299 154.16 32.9058 154.095 32.8576C154.047 32.7933 154.023 32.7209 154.023 32.6406V26.3706L153.998 26.2259L150.602 16.4109C150.586 16.3788 150.578 16.3386 150.578 16.2903C150.578 16.1456 150.667 16.0733 150.845 16.0733H153.829C154.006 16.0733 154.12 16.1537 154.168 16.3144L155.672 22.078C155.688 22.1263 155.713 22.1504 155.745 22.1504C155.777 22.1504 155.802 22.1263 155.818 22.078L157.322 16.3144C157.37 16.1537 157.484 16.0733 157.661 16.0733H160.645C160.742 16.0733 160.815 16.1054 160.864 16.1698C160.912 16.218 160.92 16.2984 160.888 16.4109L157.467 26.2259L157.443 26.3706V32.6406C157.443 32.7209 157.411 32.7933 157.346 32.8576C157.298 32.9058 157.233 32.9299 157.152 32.9299H154.314Z" fill="#120136"/>
<path d="M174.517 16.0492C175.407 16.0492 176.199 16.2662 176.895 16.7003C177.59 17.1344 178.124 17.7453 178.496 18.5331C178.884 19.3048 179.078 20.189 179.078 21.1858C179.078 22.6809 178.674 23.8786 177.865 24.7789C177.056 25.6793 175.997 26.1294 174.687 26.1294H172.868C172.787 26.1294 172.746 26.1696 172.746 26.25V32.6647C172.746 32.7451 172.714 32.8174 172.649 32.8817C172.601 32.9299 172.536 32.9541 172.455 32.9541H169.617C169.536 32.9541 169.463 32.9299 169.399 32.8817C169.35 32.8174 169.326 32.7451 169.326 32.6647V16.3386C169.326 16.2582 169.35 16.1939 169.399 16.1456C169.463 16.0813 169.536 16.0492 169.617 16.0492H174.517ZM173.935 23.4767C174.453 23.4767 174.865 23.2838 175.172 22.8979C175.496 22.496 175.657 21.9494 175.657 21.2581C175.657 20.5507 175.496 19.9961 175.172 19.5941C174.865 19.1922 174.453 18.9913 173.935 18.9913H172.868C172.787 18.9913 172.746 19.0314 172.746 19.1118V23.3561C172.746 23.4365 172.787 23.4767 172.868 23.4767H173.935Z" fill="#120136"/>
<path d="M190.5 18.7019C190.5 18.7823 190.468 18.8546 190.403 18.9189C190.355 18.9671 190.29 18.9913 190.209 18.9913H185.139C185.058 18.9913 185.018 19.0314 185.018 19.1118V22.9221C185.018 23.0024 185.058 23.0426 185.139 23.0426H188.05C188.131 23.0426 188.195 23.0748 188.244 23.1391C188.309 23.1873 188.341 23.2516 188.341 23.332V25.6712C188.341 25.7516 188.309 25.8239 188.244 25.8883C188.195 25.9365 188.131 25.9606 188.05 25.9606H185.139C185.058 25.9606 185.018 26.0008 185.018 26.0812V29.9155C185.018 29.9959 185.058 30.0361 185.139 30.0361H190.209C190.29 30.0361 190.355 30.0683 190.403 30.1326C190.468 30.1808 190.5 30.2451 190.5 30.3255V32.6647C190.5 32.7451 190.468 32.8174 190.403 32.8817C190.355 32.9299 190.29 32.9541 190.209 32.9541H181.888C181.807 32.9541 181.735 32.9299 181.67 32.8817C181.621 32.8174 181.597 32.7451 181.597 32.6647V16.3627C181.597 16.2823 181.621 16.218 181.67 16.1698C181.735 16.1054 181.807 16.0733 181.888 16.0733H190.209C190.29 16.0733 190.355 16.1054 190.403 16.1698C190.468 16.218 190.5 16.2823 190.5 16.3627V18.7019Z" fill="#120136"/>
<path d="M200.142 16.3627C200.142 16.2823 200.167 16.218 200.215 16.1698C200.28 16.1054 200.353 16.0733 200.434 16.0733H203.248C203.328 16.0733 203.393 16.1054 203.442 16.1698C203.506 16.218 203.539 16.2823 203.539 16.3627V32.6647C203.539 32.7451 203.506 32.8174 203.442 32.8817C203.393 32.9299 203.328 32.9541 203.248 32.9541H200.045C199.884 32.9541 199.779 32.8737 199.73 32.7129L196.722 23.3803C196.706 23.332 196.673 23.3159 196.625 23.332C196.593 23.332 196.576 23.3561 196.576 23.4044L196.601 32.6647C196.601 32.7451 196.568 32.8174 196.504 32.8817C196.455 32.9299 196.39 32.9541 196.31 32.9541H193.495C193.415 32.9541 193.342 32.9299 193.277 32.8817C193.229 32.8174 193.204 32.7451 193.204 32.6647V16.3627C193.204 16.2823 193.229 16.218 193.277 16.1698C193.342 16.1054 193.415 16.0733 193.495 16.0733H196.673C196.835 16.0733 196.94 16.1537 196.989 16.3144L200.021 25.6471C200.037 25.6953 200.062 25.7194 200.094 25.7194C200.142 25.7034 200.167 25.6712 200.167 25.623L200.142 16.3627Z" fill="#120136"/>
<path d="M213.574 16.3627C213.574 16.2823 213.598 16.218 213.647 16.1698C213.711 16.1054 213.784 16.0733 213.865 16.0733H216.679C216.76 16.0733 216.825 16.1054 216.873 16.1698C216.938 16.218 216.97 16.2823 216.97 16.3627V32.6647C216.97 32.7451 216.938 32.8174 216.873 32.8817C216.825 32.9299 216.76 32.9541 216.679 32.9541H213.477C213.315 32.9541 213.21 32.8737 213.162 32.7129L210.153 23.3803C210.137 23.332 210.105 23.3159 210.056 23.332C210.024 23.332 210.008 23.3561 210.008 23.4044L210.032 32.6647C210.032 32.7451 210 32.8174 209.935 32.8817C209.887 32.9299 209.822 32.9541 209.741 32.9541H206.927C206.846 32.9541 206.773 32.9299 206.709 32.8817C206.66 32.8174 206.636 32.7451 206.636 32.6647V16.3627C206.636 16.2823 206.66 16.218 206.709 16.1698C206.773 16.1054 206.846 16.0733 206.927 16.0733H210.105C210.267 16.0733 210.372 16.1537 210.42 16.3144L213.453 25.6471C213.469 25.6953 213.493 25.7194 213.525 25.7194C213.574 25.7034 213.598 25.6712 213.598 25.623L213.574 16.3627Z" fill="#120136"/>
<path d="M223.318 32.9299C223.237 32.9299 223.164 32.9058 223.1 32.8576C223.051 32.7933 223.027 32.7209 223.027 32.6406V26.3706L223.003 26.2259L219.606 16.4109C219.59 16.3788 219.582 16.3386 219.582 16.2903C219.582 16.1456 219.671 16.0733 219.849 16.0733H222.833C223.011 16.0733 223.124 16.1537 223.173 16.3144L224.677 22.078C224.693 22.1263 224.717 22.1504 224.749 22.1504C224.782 22.1504 224.806 22.1263 224.822 22.078L226.326 16.3144C226.375 16.1537 226.488 16.0733 226.666 16.0733H229.65C229.747 16.0733 229.819 16.1054 229.868 16.1698C229.916 16.218 229.925 16.2984 229.892 16.4109L226.472 26.2259L226.447 26.3706V32.6406C226.447 32.7209 226.415 32.7933 226.35 32.8576C226.302 32.9058 226.237 32.9299 226.156 32.9299H223.318Z" fill="#120136"/>
</svg>
