<svg width="80" height="116" viewBox="0 0 80 116" fill="none" xmlns="http://www.w3.org/2000/svg">
<g clip-path="url(#clip0)">
<path d="M67.2922 114.832C73.7386 114.832 78.9892 113.931 78.9892 112.827C78.9892 111.723 73.735 110.822 67.2922 110.822C60.8495 110.822 55.5961 111.722 55.5961 112.827C55.5961 113.932 60.8504 114.832 67.2922 114.832Z" fill="#A8ACA9"/>
<path d="M79.6046 20.2188V32.2664C79.5991 33.9346 78.9547 35.5328 77.812 36.7118C76.6693 37.8909 75.1213 38.5551 73.506 38.5593H61.2788C56.5121 38.5593 55.181 34.6585 55.181 30.5729V24.1028C55.181 16.107 55.2918 8.27629 65.1012 6.57718C71.8663 5.40411 79.6046 9.47467 79.6046 18.801V20.2188Z" fill="#562B20"/>
<path d="M70.1348 108.845L69.373 107.075C69.373 107.075 69.4993 103.831 69.3449 101.73C69.1906 99.6297 68.6267 76.4282 68.6576 75.0517C68.6885 73.6751 73.9436 73.2476 73.9436 73.2476L73.3135 74.4197C73.3135 74.4197 71.1272 105.05 71.2652 107.128C71.4032 109.206 70.1348 108.845 70.1348 108.845" fill="#FFDDB8"/>
<path d="M71.2679 107.128C71.3702 107.576 71.6288 107.97 71.9943 108.234C73.2018 108.885 74.4447 109.464 75.7168 109.967C76.6248 110.436 77.4374 111.721 76.5068 112.357C75.5761 112.993 71.4504 112.872 69.7689 111.689C68.0874 110.507 69.0889 108.464 69.3086 107.293C69.5283 106.121 71.2461 106.433 71.2679 107.128Z" fill="#FFDDB8"/>
<path d="M75.1476 109.699C75.3682 109.793 75.5643 109.886 75.7241 109.967C76.6321 110.436 77.4447 111.721 76.514 112.357C75.5834 112.993 71.4577 112.872 69.7762 111.69C68.6349 110.891 68.7257 109.692 68.9709 108.64C69.0544 109.695 71.9326 111.03 73.9754 110.85C76.0183 110.67 75.1503 109.703 75.1476 109.699Z" fill="#BF3733"/>
<path d="M64.5174 108.845L65.2792 107.076C65.2792 107.076 65.1539 103.832 65.3073 101.731C65.4608 99.6307 66.0264 76.4282 65.9937 75.0517C65.961 73.6751 60.7086 73.2476 60.7086 73.2476L61.3387 74.4197C61.3387 74.4197 63.5232 105.05 63.3879 107.128C63.2526 109.206 64.5174 108.845 64.5174 108.845" fill="#FFDDB8"/>
<path d="M63.387 107.128C63.2824 107.577 63.0209 107.971 62.6525 108.233C61.445 108.884 60.202 109.463 58.9299 109.966C58.022 110.435 57.2094 111.72 58.14 112.356C59.0707 112.992 63.1954 112.871 64.8779 111.689C66.5603 110.506 65.5624 108.463 65.3445 107.292C65.1266 106.121 63.4043 106.433 63.387 107.128Z" fill="#FFDDB8"/>
<path d="M59.5038 109.699C59.2831 109.793 59.0861 109.886 58.9272 109.967C58.0193 110.436 57.2067 111.721 58.1373 112.357C59.0679 112.993 63.1927 112.872 64.8751 111.69C66.0155 110.891 65.9247 109.692 65.6805 108.64C65.5969 109.695 62.7206 111.03 60.6759 110.85C58.6312 110.67 59.501 109.703 59.5038 109.699Z" fill="#BF3733"/>
<path d="M64.4865 35.2935C64.4865 35.2935 60.2773 35.2841 59.639 36.3906C59.1384 37.4447 58.9992 38.6432 59.2441 39.7897C59.2441 39.7897 61.365 40.0551 61.9289 40.8212C61.8453 41.4289 61.9369 42.0486 62.1922 42.6028C62.1922 42.6028 60.7839 52.7769 60.0331 54.2116C58.1595 58.2361 57.3012 62.6845 57.5381 67.1434C58.012 72.9984 58.3434 80.0292 58.643 81.027C58.9426 82.0247 66.9797 81.9 67.3938 81.9C67.8078 81.9 75.8431 82.0256 76.1436 81.027C76.4441 80.0283 76.1999 75.1616 76.9607 68.2742C77.4809 63.466 76.7189 58.6023 74.7572 54.2087C74.0054 52.7741 72.5981 42.5935 72.5981 42.5935C72.8527 42.039 72.944 41.4194 72.8605 40.8118C73.4243 40.0476 75.5453 39.7804 75.5453 39.7804C75.7898 38.6339 75.6509 37.4356 75.1512 36.3812C74.5093 35.2841 70.7168 35.4088 70.7168 35.4088L67.3938 37.2842L64.4865 35.2935Z" fill="#FFFFFE"/>
<path d="M60.0331 54.2114C58.1595 58.236 57.3012 62.6844 57.5381 67.1432C58.012 72.9982 58.3434 80.0291 58.643 81.0296C58.9426 82.0302 66.9797 81.9026 67.3938 81.9026C67.8078 81.9026 75.8431 82.0283 76.1436 81.0296C76.4441 80.031 76.1999 75.1643 76.9607 68.2769C77.48 63.4684 76.7171 58.6047 74.7544 54.2114H60.0331Z" fill="#562B20"/>
<path d="M61.9288 40.8184C61.8453 41.4261 61.9368 42.0457 62.1921 42.6H72.5953C72.85 42.0455 72.9412 41.426 72.8577 40.8184H61.9288Z" fill="#EFE7E0"/>
<path d="M65.0213 32.8638L65.0395 33.5014C65.0495 34.4981 64.9521 35.4929 64.7489 36.4673C64.4375 37.6985 66.0672 38.1946 67.3011 38.1946C68.535 38.1946 69.9995 37.6976 70.0831 37.4172C70.1666 37.1369 70.439 35.9488 70.439 35.9488C70.1263 34.8013 69.9366 33.6218 69.8733 32.4315C69.936 31.3091 65.0213 32.8638 65.0213 32.8638Z" fill="#FFDDB8"/>
<path d="M67.3938 9.40527C69.733 9.41121 71.9749 10.373 73.6297 12.0807C75.2845 13.7883 76.2176 16.1029 76.2253 18.5188V24.6963C76.2253 27.1155 75.2948 29.4356 73.6385 31.1462C71.9822 32.8568 69.7357 33.8178 67.3933 33.8178C65.0509 33.8178 62.8045 32.8568 61.1481 31.1462C59.4918 29.4356 58.5613 27.1155 58.5613 24.6963V18.5188C58.5692 16.1028 59.5026 13.7882 61.1575 12.0806C62.8124 10.373 65.0544 9.41121 67.3938 9.40527" fill="#FFDDB8"/>
<path d="M61.8362 20.4609C61.9026 20.497 61.9753 20.5188 62.0501 20.5251C62.1248 20.5314 62.2 20.522 62.2711 20.4975C62.5628 20.3937 62.8709 20.3482 63.1791 20.3634C63.322 20.3772 63.4629 20.4087 63.5985 20.4572C63.741 20.4887 63.8767 20.5468 63.999 20.6288C64.1106 20.746 64.413 20.6625 64.3757 20.504C64.371 20.4251 64.3597 20.3467 64.3422 20.2696C64.3014 20.1751 64.2391 20.0921 64.1606 20.0277C63.95 19.8579 63.6991 19.7498 63.4342 19.7145C62.9024 19.6018 62.3494 19.6774 61.8644 19.9292C61.71 20.0361 61.6419 20.1796 61.7073 20.324C61.7376 20.3808 61.7821 20.4281 61.8362 20.4609Z" fill="#41231B"/>
<path d="M70.2529 20.5965C70.4593 20.4733 70.6763 20.37 70.9011 20.288C71.1083 20.2193 71.321 20.1701 71.5367 20.1408C71.734 20.1155 71.9334 20.112 72.1314 20.1305C72.2155 20.1404 72.2985 20.1586 72.3793 20.1849C72.51 20.2299 72.47 20.2421 72.609 20.3227C72.9476 20.5159 73.4878 20.3021 73.2699 19.9599C72.9431 19.4451 72.0442 19.3972 71.4541 19.4826C71.1537 19.5208 70.8633 19.6185 70.5988 19.7704C70.3155 19.9411 70.0104 20.1511 69.9523 20.4456C69.9278 20.5722 70.1267 20.6622 70.251 20.5965" fill="#41231B"/>
<path d="M66.7527 25.9256C66.7602 25.9383 66.7714 25.9483 66.7847 25.9541C66.798 25.9599 66.8127 25.9611 66.8268 25.9577C66.8408 25.9542 66.8534 25.9463 66.8628 25.9349C66.8722 25.9236 66.8778 25.9095 66.8789 25.8946C66.8789 25.8243 66.9044 25.7446 66.9098 25.6715C66.9171 25.5777 66.9207 25.4914 67.0015 25.4352C67.1885 25.2954 67.4391 25.2804 67.6153 25.1323C67.7914 24.9841 67.6071 24.7535 67.4282 24.7788C67.2905 24.8151 67.1593 24.874 67.0396 24.9532C66.9139 25.0236 66.8067 25.1247 66.7273 25.2476C66.6629 25.3514 66.6288 25.4722 66.6293 25.5955C66.6288 25.6643 66.6415 25.7325 66.6665 25.7962C66.6908 25.8434 66.7214 25.887 66.7573 25.9256" fill="#41231B"/>
<path d="M61.5012 22.6585C61.5511 22.6379 61.562 22.6501 61.6111 22.6492C61.6692 22.6509 61.7272 22.6568 61.7845 22.667C61.8687 22.6839 61.954 22.6952 62.0396 22.7007C62.0654 22.5924 62.1035 22.4876 62.1531 22.3885C62.1304 22.381 62.1086 22.3725 62.0859 22.3632C61.9817 22.3192 61.8862 22.2556 61.8045 22.1756C61.7418 22.11 61.6374 21.9787 61.6692 21.8802C61.7454 21.643 61.9561 21.8868 62.0505 21.974C62.1391 22.0537 62.2489 22.104 62.3656 22.1184H62.371C62.5095 21.9985 62.6723 21.9124 62.8474 21.8663C63.0225 21.8202 63.2053 21.8153 63.3825 21.8521C63.4043 21.8568 63.427 21.8643 63.4488 21.8709C64.1097 21.7265 64.4057 22.7148 64.4175 23.2287C64.4748 23.5569 64.4258 23.8955 64.2781 24.1921C64.1304 24.4887 63.8922 24.7268 63.6004 24.8696C63.2664 24.939 62.9195 24.8748 62.6297 24.6899C62.3399 24.505 62.129 24.2133 62.0396 23.8738C61.9645 23.6144 61.9431 23.3415 61.977 23.073C61.886 23.0809 61.7944 23.0765 61.7046 23.0599C61.6409 23.0542 61.5805 23.0287 61.5312 22.9867L61.4476 22.9042C61.4302 22.8865 61.4175 22.8646 61.4106 22.8404C61.4037 22.8162 61.4029 22.7906 61.4082 22.766C61.4136 22.7414 61.4249 22.7186 61.4412 22.6998C61.4575 22.681 61.4781 22.6668 61.5012 22.6585Z" fill="#41231B"/>
<path d="M63.2735 23.0697C63.3384 23.1367 63.4238 23.1784 63.5152 23.1877C63.6065 23.197 63.6982 23.1733 63.7745 23.1206C63.8508 23.0679 63.9071 22.9896 63.9337 22.8988C63.9604 22.8081 63.9557 22.7107 63.9206 22.6231C63.8855 22.5355 63.822 22.4632 63.7411 22.4185C63.6601 22.3738 63.5667 22.3595 63.4766 22.378C63.3866 22.3965 63.3056 22.4467 63.2473 22.5199C63.1891 22.5932 63.1573 22.6851 63.1573 22.7799C63.1576 22.8885 63.1993 22.9926 63.2735 23.0697Z" fill="#FFFFFE"/>
<path d="M73.2854 22.6586C73.2345 22.638 73.2246 22.6502 73.1755 22.6493C73.1168 22.6509 73.0582 22.6568 73.0003 22.6671C72.916 22.684 72.8308 22.6952 72.7452 22.7008C72.7213 22.5927 72.685 22.4879 72.6371 22.3886C72.6598 22.3811 72.6816 22.3726 72.7034 22.3633C72.8078 22.3195 72.9033 22.2559 72.9849 22.1757C73.0484 22.1129 73.1519 21.9826 73.1201 21.8832C73.0439 21.6459 72.8341 21.8897 72.7388 21.9769C72.65 22.0568 72.5398 22.1072 72.4228 22.1213H72.4183C72.2797 22.0004 72.1164 21.9133 71.9406 21.8667C71.7648 21.8201 71.5811 21.8152 71.4032 21.8522C71.3814 21.8569 71.3596 21.8644 71.3379 21.871C70.676 21.7266 70.3809 22.7112 70.3673 23.2288C70.3095 23.5576 70.3582 23.8969 70.5059 24.1942C70.6536 24.4915 70.8921 24.7302 71.1844 24.8735C71.5184 24.9422 71.8653 24.8771 72.1546 24.6915C72.4439 24.5059 72.6541 24.2136 72.7424 23.8739C72.8193 23.6145 72.8419 23.3412 72.8087 23.0722C72.8997 23.0804 72.9913 23.076 73.0811 23.059C73.144 23.0534 73.2039 23.0282 73.2527 22.9868L73.339 22.9043C73.3566 22.8868 73.3696 22.8648 73.3766 22.8406C73.3837 22.8163 73.3846 22.7906 73.3792 22.7659C73.3738 22.7412 73.3623 22.7184 73.3459 22.6996C73.3295 22.6808 73.3086 22.6667 73.2854 22.6586Z" fill="#41231B"/>
<path d="M72.1913 23.1463C72.1159 23.2186 72.0163 23.2579 71.9133 23.256C71.8104 23.254 71.7123 23.2109 71.6395 23.1357C71.5667 23.0606 71.525 22.9592 71.5231 22.8529C71.5212 22.7466 71.5593 22.6438 71.6293 22.5659C71.7038 22.4888 71.8049 22.4454 71.9104 22.4453C72.0159 22.4452 72.1171 22.4884 72.1918 22.5654C72.2664 22.6424 72.3084 22.7468 72.3085 22.8557C72.3086 22.9647 72.2667 23.0692 72.1922 23.1463" fill="#FFFFFE"/>
<path d="M62.3746 27.159C63.3561 27.159 64.156 26.8645 64.156 26.5026C64.156 26.1406 63.3561 25.8462 62.3746 25.8462C61.3932 25.8462 60.5933 26.1406 60.5933 26.5026C60.5933 26.8645 61.3932 27.159 62.3746 27.159Z" fill="#D76051"/>
<path d="M72.411 27.159C73.3925 27.159 74.1933 26.8645 74.1933 26.5026C74.1933 26.1406 73.3934 25.8462 72.411 25.8462C71.4287 25.8462 70.6297 26.1406 70.6297 26.5026C70.6297 26.8645 71.4305 27.159 72.411 27.159Z" fill="#D76051"/>
<path d="M61.9843 19.2465L58.0392 17.2539L57.4291 22.7779H58.5613C58.5644 21.8417 58.9262 20.9447 59.5675 20.2831C60.2089 19.6214 61.0777 19.2487 61.9843 19.2465Z" fill="#562B20"/>
<path d="M64.9332 28.2603C64.9332 28.2603 69.5755 28.0353 70.4172 28.3738C71.2589 28.7123 69.9678 31.4869 67.1359 31.2807C64.304 31.0744 63.4124 28.3372 64.9332 28.2603Z" fill="#FFFFFE"/>
<path d="M65.4798 34.9818C65.4798 34.9818 65.8584 36.9322 67.4019 36.8094C67.9061 36.7276 68.3811 36.5117 68.78 36.1829C69.1789 35.854 69.4882 35.4236 69.6772 34.934C69.9042 34.6049 71.031 35.37 71.0682 35.822C71.1054 36.274 69.965 39.2324 69.1334 39.2118C68.3017 39.1912 67.9231 38.4522 67.5445 38.3078C67.1658 38.1634 66.7146 38.9248 66.0509 39.2549C65.3872 39.585 64.0325 36.1755 64.1842 35.8061C64.3358 35.4366 65.1575 34.2645 65.4798 34.9818Z" fill="#DBD2C9"/>
<path d="M57.9947 18.6978L61.3596 19.2501H67.648C68.88 19.2501 73.5496 19.2098 73.5496 13.968V10.3485L65.7885 7.34131C64.4419 8.23345 63.1407 9.19649 61.8898 10.2266C61.7318 10.552 57.7941 13.6398 57.6361 14.4116C57.4781 15.1833 56.9098 16.528 57.164 16.8908C57.4754 17.4754 57.7526 18.0788 57.9938 18.6978" fill="#562B20"/>
<path d="M79.0608 19.5351C76.9843 19.3879 73.1928 18.5243 73.1928 13.4326V9.2345L74.0762 9.08447C74.9605 9.96497 76.6666 11.7025 76.6666 12.0176C76.6666 12.4424 78.8683 17.5547 78.7694 18.5271C78.7774 18.8836 78.8777 19.2313 79.0599 19.5342" fill="#562B20"/>
<path d="M62.9902 61.2377C63.611 59.9865 64.5661 58.9451 65.7422 58.2371C67.066 57.6745 68.7911 57.38 69.6282 58.0102C70.5134 58.836 71.0559 59.9827 71.1426 61.2115C71.0909 62.0423 70.4163 61.6128 70.2855 61.1318C70.1548 60.6507 69.6009 58.8485 68.8537 58.57C68.1065 58.2915 65.7104 58.5559 65.2755 59.2892C64.9255 59.9971 64.5056 60.6658 64.0226 61.2846C63.7366 61.4853 62.8795 61.7263 62.9902 61.2377Z" fill="#8F2429"/>
<path d="M75.5425 39.7896C75.5589 39.8017 76.4623 42.7546 77.1768 45.8161C77.7851 48.4126 78.1964 48.2823 77.2031 50.1136C75.5607 53.1443 72.5454 57.2748 71.9425 57.5215C71.3397 57.7681 70.7359 57.6368 71.0146 56.9738C71.2933 56.3109 74.3104 52.0293 75.5253 48.8046C75.4708 48.5933 75.4103 48.3933 75.3437 48.2045C74.689 46.3497 73.6186 43.8911 72.8014 42.0747C72.8859 41.6627 72.9034 41.239 72.8532 40.821C73.4207 40.0549 75.5425 39.7896 75.5425 39.7896Z" fill="#FFDDB8"/>
<path d="M64.758 58.0737L64.7525 58.0653L64.7444 58.0569L64.7317 58.0428C64.8087 58.2878 64.8473 58.5439 64.8461 58.8014C65.372 58.9718 65.8799 59.1965 66.3623 59.4719C66.4849 59.65 66.3741 59.7982 66.1135 59.8047C65.853 59.8113 65.6441 59.8047 65.6441 59.8047C65.5778 59.8931 65.4906 59.9625 65.391 60.0063C65.2914 60.0501 65.1825 60.0669 65.0749 60.0551C64.1669 60.0288 64.1115 60.4668 63.3316 59.8863H63.348C63.1762 59.7657 63.0471 59.5906 62.9802 59.3875C62.7244 58.4853 62.4117 57.6013 62.0442 56.7413L63.4678 56.3774L63.8156 56.9466C64.2414 57.0112 64.6445 57.1857 64.9877 57.4539C65.1674 57.6981 65.3634 57.929 65.5742 58.145C65.7558 58.3166 65.9501 58.6748 65.5061 58.6035C65.2105 58.5095 64.9495 58.3247 64.758 58.0737Z" fill="#FFDDB8"/>
<path d="M59.245 39.7896C59.2286 39.8017 58.3252 42.7546 57.6079 45.8161C57.0005 48.4164 56.5892 48.2823 57.5825 50.1136C59.225 53.1443 62.2394 57.2748 62.8431 57.5215C63.4469 57.7681 64.0489 57.6368 63.7711 56.9738C63.4932 56.3109 60.4752 52.0293 59.2604 48.8046C59.3155 48.5933 59.376 48.3933 59.442 48.2045C60.0975 46.3497 61.1671 43.8911 61.9842 42.0747C61.8987 41.6629 61.8803 41.2391 61.9298 40.821C61.3659 40.0549 59.245 39.7896 59.245 39.7896Z" fill="#FFDDB8"/>
<path d="M70.0295 58.0737L70.035 58.0653L70.0431 58.0569L70.0567 58.0419C69.9797 58.2868 69.9411 58.5429 69.9423 58.8005C69.4161 58.9711 68.9078 59.196 68.4252 59.4719C68.3026 59.65 68.4125 59.7982 68.673 59.8047C68.9336 59.8113 69.1425 59.8047 69.1425 59.8047C69.2088 59.8931 69.296 59.9625 69.3956 60.0063C69.4952 60.0501 69.604 60.0669 69.7117 60.0551C70.6197 60.0288 70.676 60.4668 71.4568 59.8863H71.4404C71.6102 59.7646 71.7375 59.5897 71.8036 59.3875C72.0609 58.4852 72.3748 57.6013 72.7433 56.7413L71.3206 56.3774L70.9719 56.9466C70.5458 57.0111 70.1423 57.1856 69.7989 57.4539C69.6197 57.6983 69.424 57.9292 69.2133 58.145C69.0317 58.3166 68.8365 58.6748 69.2814 58.6035C69.5768 58.5095 69.8375 58.3247 70.0286 58.0737" fill="#FFDDB8"/>
<path d="M65.0731 58.6441V58.7603H65.9883V58.1377C65.9056 58.1705 65.8221 58.2033 65.7422 58.238C65.5037 58.3441 65.2789 58.4805 65.0731 58.6441" fill="#8F2429"/>
<path d="M69.9351 58.2924V58.6806H69.0526C68.9916 58.6344 68.9246 58.5971 68.8537 58.5699C68.8 58.5501 68.7451 58.5338 68.6894 58.5212V57.6772C69.0249 57.7029 69.3482 57.8176 69.6282 58.0101C69.7387 58.0939 69.8415 58.188 69.9351 58.2914" fill="#8F2429"/>
<path d="M60.6223 69.9317C59.8833 69.5416 60.1547 68.1557 60.1593 67.3408C60.0942 65.3712 60.1284 63.3993 60.2619 61.4333C60.8874 60.6007 62.5789 60.9242 63.6685 60.9035C65.0304 60.8782 73.9282 60.6475 74.4566 60.9514C75.2029 61.379 74.8906 63.3547 74.9106 64.2389C74.9306 65.1232 75.2692 69.3288 74.6155 69.7779C74.0181 70.184 68.5405 70.0499 67.5971 70.0592C65.2718 70.1619 62.9426 70.1194 60.6223 69.9317Z" fill="#BF3733"/>
<path d="M17.5441 115.03C25.6303 115.03 32.2256 114.312 32.2256 113.431C32.2256 112.549 25.6303 111.83 17.5441 111.83C9.45802 111.83 2.86273 112.549 2.86273 113.431C2.86273 114.312 9.45802 115.03 17.5441 115.03Z" fill="#848988"/>
<path d="M13.6291 31.7854C9.11573 32.3602 3.39207 43.6463 1.5317 46.9105C-0.0444891 49.6785 -0.118032 49.7892 0.0771749 52.321C0.400402 56.5153 1.07591 63.3521 1.53896 63.8866C2.00201 64.4211 3.58001 64.0432 3.16145 62.8288C2.74289 61.6145 2.47323 55.5242 2.61669 51.2773C2.74925 51.0541 1.7605 52.4401 3.01981 50.6547C4.27913 48.8693 9.29096 42.3842 9.29096 42.3842C8.68264 40.566 15.188 31.5903 13.6291 31.7854Z" fill="#16334A"/>
<path d="M21.8451 31.9512C25.9362 32.9554 28.5457 42.1571 31.1369 49.6849C32.1765 52.7043 32.5579 52.453 31.8978 54.907C30.8083 58.9654 29.0042 65.1954 28.4558 65.6315C28.3015 65.7279 28.124 65.7772 27.9437 65.7738C27.7634 65.7704 27.5878 65.7143 27.4371 65.6121C27.2863 65.5099 27.1667 65.3657 27.092 65.1962C27.0173 65.0267 26.9906 64.8389 27.0149 64.6544C27.1738 63.7842 29.3955 57.8926 30.0329 53.6936C29.9421 53.4489 29.8513 53.2182 29.7505 53.0044C28.0318 49.2273 24.6742 43.3836 24.6742 43.3836C24.6742 43.3836 19.9384 31.9962 21.8451 31.9512Z" fill="#16334A"/>
<path d="M22.5841 108.178C22.7533 108.497 22.9909 108.771 23.2787 108.981C24.6105 109.649 25.9783 110.238 27.3753 110.745C28.3741 111.224 29.292 112.585 28.2969 113.294C27.3018 114.003 22.8093 113.985 20.9453 112.759C19.0813 111.532 20.1218 109.308 20.3279 108.043C20.6322 108.329 21.0222 108.498 21.4329 108.523C21.8435 108.547 22.2499 108.426 22.5841 108.178Z" fill="#562A1F"/>
<path d="M28.6519 112.101C28.742 112.31 28.756 112.546 28.6913 112.765C28.6266 112.984 28.4875 113.172 28.2996 113.294C27.3009 114.002 22.8093 113.985 20.9453 112.757C20.5555 112.51 20.2453 112.148 20.0536 111.719C19.8619 111.29 19.7971 110.812 19.8676 110.345C19.8676 110.345 22.1683 114.604 28.6519 112.101Z" fill="#FFFFFE"/>
<path d="M12.7566 108.276C12.5882 108.595 12.3512 108.87 12.0638 109.079C10.7317 109.747 9.36362 110.335 7.96626 110.842C6.96935 111.323 6.04869 112.684 7.0447 113.392C8.04072 114.1 12.5323 114.082 14.3927 112.856C16.253 111.629 15.2207 109.406 15.0137 108.141C14.7093 108.427 14.3191 108.597 13.9083 108.621C13.4974 108.646 13.0909 108.524 12.7566 108.276Z" fill="#562A1F"/>
<path d="M6.68972 112.2C6.59988 112.409 6.58633 112.645 6.65155 112.865C6.71677 113.084 6.85638 113.271 7.04472 113.392C8.04346 114.102 12.5323 114.084 14.3927 112.856C14.783 112.609 15.0938 112.248 15.2862 111.818C15.4785 111.389 15.5439 110.911 15.474 110.443C15.474 110.443 13.1733 114.702 6.68972 112.2Z" fill="#FFFFFE"/>
<path d="M17.8111 62.6973L8.99589 63.4718C7.38157 63.6134 10.4985 82.5587 10.8181 84.4406C10.9616 85.2902 12.18 107.932 12.7312 108.446C13.2823 108.96 14.2747 109.488 14.9556 108.66C15.6366 107.831 15.2225 78.7938 15.7564 76.5405C16.5881 73.0298 18.729 73.0298 19.5607 76.5405C20.0937 78.791 19.6769 107.829 20.3624 108.66C21.0479 109.49 22.0339 108.957 22.5869 108.446C23.1398 107.935 24.3555 85.293 24.4999 84.4406C24.8186 82.5596 27.0485 63.936 25.4396 63.7175L17.8111 62.6973Z" fill="#16334A"/>
<path d="M14.5162 29.1267L14.5352 29.9491C14.546 31.2284 14.4445 32.5061 14.232 33.7665C13.9033 35.3512 15.6121 35.9907 16.9041 35.9907C18.1961 35.9907 19.7296 35.3512 19.8204 34.9855C19.9112 34.6198 20.1917 33.0951 20.1917 33.0951C19.8627 31.6085 19.6642 30.0942 19.5988 28.5707C19.6642 27.1257 14.5144 29.1258 14.5144 29.1258" fill="#FFDDB8"/>
<path d="M19.9384 31.4976C18.917 34.7101 15.968 34.4232 14.6115 31.671C8.55644 31.7357 8.8606 42.81 8.8606 42.81C8.8606 42.81 8.50287 59.14 8.11154 61.879C7.72022 64.6181 8.54554 64.9734 9.28279 65.4001C12.4815 66.5994 23.0118 68.5461 25.6257 65.6814C26.133 65.1556 26.5055 64.5077 26.7098 63.7961C26.9141 63.0845 26.9438 62.3316 26.7961 61.6052C26.4057 58.8643 25.6866 42.6318 25.6866 42.6318C25.6866 42.6318 25.9953 31.5613 19.9384 31.4976Z" fill="#1A4A6F"/>
<path d="M19.9384 31.4976C18.916 34.7101 15.967 34.4232 14.6106 31.671C13.9475 31.6708 13.2933 31.828 12.6985 32.1305H12.6985C12.6985 32.1305 16.8841 49.958 17.0166 50.0828C17.1492 50.2075 17.2064 50.0921 17.2064 50.0921C18.2423 47.9364 21.826 32.0245 21.8414 31.9533C21.2492 31.6531 20.5981 31.4972 19.9384 31.4976Z" fill="#F0E8E2"/>
<path d="M17.2046 3.62311C20.0736 3.61356 22.8298 4.77687 24.8712 6.85897C26.9125 8.94107 28.0733 11.7728 28.0999 14.7358V18.7304C28.0999 21.7147 26.952 24.5768 24.9087 26.687C22.8655 28.7973 20.0942 29.9828 17.2046 29.9828C14.315 29.9828 11.5437 28.7973 9.50045 26.687C7.45719 24.5768 6.3093 21.7147 6.3093 18.7304L6.3093 14.7358C6.3359 11.7728 7.49663 8.94107 9.53801 6.85897C11.5794 4.77687 14.3355 3.61356 17.2046 3.62311Z" fill="#FFDDB8"/>
<path d="M10.8018 14.6412C10.8784 14.6823 10.9622 14.7071 11.0483 14.7142C11.1344 14.7213 11.221 14.7105 11.3029 14.6824C11.6398 14.5638 11.9952 14.5116 12.3507 14.5286C12.5151 14.5439 12.6772 14.5788 12.8337 14.6327C12.9979 14.669 13.1544 14.7354 13.2959 14.8287C13.4248 14.9619 13.7725 14.8671 13.7308 14.6871C13.7259 14.5968 13.7134 14.507 13.6936 14.4189C13.6472 14.3118 13.5769 14.2176 13.4884 14.1442C13.2459 13.9508 12.9579 13.8278 12.654 13.7879C12.0389 13.6585 11.3996 13.7456 10.8381 14.0354C10.6565 14.1573 10.5775 14.3167 10.6565 14.4893C10.6912 14.5522 10.7413 14.6045 10.8018 14.6412Z" fill="#41231B"/>
<path d="M20.5013 14.7952C20.7378 14.6545 20.9864 14.5368 21.244 14.4436C21.4808 14.3653 21.7239 14.3091 21.9704 14.2757C22.2014 14.2458 22.4349 14.2421 22.6668 14.2645C22.7635 14.275 22.859 14.2955 22.9519 14.3254C23.1026 14.3751 23.0563 14.391 23.217 14.482C23.6074 14.7024 24.2302 14.4586 23.9796 14.0694C23.6047 13.488 22.5669 13.4299 21.8887 13.5265C21.5416 13.5693 21.2056 13.6804 20.899 13.8537C20.5749 14.0507 20.2217 14.2879 20.1545 14.6227C20.1272 14.7671 20.3551 14.8693 20.4986 14.7952" fill="#41231B"/>
<path d="M16.4691 20.8659C16.4776 20.8808 16.4905 20.8925 16.5058 20.8992C16.5212 20.906 16.5383 20.9075 16.5545 20.9035C16.5708 20.8995 16.5854 20.8903 16.5962 20.8771C16.6069 20.8639 16.6133 20.8475 16.6144 20.8302C16.6144 20.7496 16.6435 20.6605 16.6489 20.5761C16.6571 20.4683 16.6616 20.3708 16.7542 20.3033C16.9694 20.1485 17.259 20.1298 17.4624 19.9619C17.6658 19.7941 17.4524 19.5306 17.2472 19.5587C17.0883 19.5994 16.9368 19.6666 16.7987 19.7575C16.6531 19.8361 16.5284 19.9504 16.4355 20.0904C16.3617 20.2092 16.3235 20.3478 16.3257 20.4889C16.3249 20.5671 16.3394 20.6446 16.3684 20.7168C16.3953 20.7707 16.4292 20.8205 16.4691 20.8649" fill="#41231B"/>
<path d="M11.6888 16.3472C11.9661 16.2056 12.2809 16.1631 12.5841 16.2262C12.6104 16.2328 12.6349 16.2393 12.6603 16.2478C13.4221 16.0827 13.7644 17.2042 13.7771 17.7893C13.8435 18.1658 13.7868 18.5545 13.6158 18.894C13.4449 19.2335 13.1694 19.5047 12.8329 19.6647C12.4503 19.7444 12.0528 19.6714 11.7203 19.4605C11.3878 19.2497 11.1449 18.9166 11.0406 18.5283C10.9791 18.3333 10.9485 18.1294 10.9498 17.9244C10.9058 17.6153 10.9528 17.2996 11.0845 17.0184C11.2163 16.7372 11.4268 16.5033 11.6888 16.3472Z" fill="#41231B"/>
<path d="M12.4588 17.6121C12.5454 17.6995 12.6618 17.7485 12.7829 17.7485C12.904 17.7485 13.0204 17.6995 13.107 17.6121C13.1496 17.569 13.1833 17.5176 13.2064 17.4608C13.2295 17.4041 13.2413 17.3431 13.2413 17.2816C13.2413 17.22 13.2295 17.1591 13.2064 17.1024C13.1833 17.0456 13.1496 16.9942 13.107 16.951C13.0206 16.8632 12.9042 16.814 12.7829 16.814C12.6616 16.814 12.5452 16.8632 12.4588 16.951C12.3742 17.0389 12.3268 17.1577 12.3268 17.2816C12.3268 17.4054 12.3742 17.5243 12.4588 17.6121Z" fill="#FFFFFE"/>
<path d="M22.7884 16.3817C22.4977 16.2095 22.1557 16.1541 21.8278 16.226C21.8024 16.2326 21.777 16.2392 21.7516 16.2476C20.9898 16.0826 20.6484 17.2041 20.6339 17.7939C20.5688 18.1696 20.6263 18.557 20.7974 18.8954C20.9684 19.2338 21.2433 19.504 21.579 19.6636C21.961 19.7428 22.3579 19.6699 22.69 19.4594C23.0221 19.249 23.2648 18.9166 23.3695 18.529C23.4316 18.3191 23.4622 18.1006 23.4603 17.8811C23.4875 16.8571 23.1334 16.5796 22.7884 16.3817Z" fill="#41231B"/>
<path d="M22.7349 17.6993C22.6485 17.7868 22.5322 17.8359 22.4112 17.8359C22.2901 17.8359 22.1739 17.7868 22.0875 17.6993C22.0457 17.6562 22.0125 17.6051 21.9898 17.5488C21.9672 17.4924 21.9555 17.4321 21.9555 17.3711C21.9555 17.3101 21.9672 17.2497 21.9898 17.1934C22.0125 17.1371 22.0457 17.0859 22.0875 17.0429C22.1739 16.9553 22.2901 16.9062 22.4112 16.9062C22.5322 16.9062 22.6485 16.9553 22.7349 17.0429C22.777 17.0857 22.8105 17.1368 22.8334 17.1931C22.8562 17.2495 22.868 17.31 22.868 17.3711C22.868 17.4322 22.8562 17.4926 22.8334 17.549C22.8105 17.6053 22.777 17.6564 22.7349 17.6993Z" fill="#FFFFFE"/>
<path d="M11.4228 22.2676C12.5532 22.2676 13.4766 21.9319 13.4766 21.5175C13.4766 21.103 12.5532 20.7729 11.4228 20.7729C10.2924 20.7729 9.36905 21.1086 9.36905 21.5231C9.36905 21.9376 10.2915 22.2733 11.4228 22.2733" fill="#D66051"/>
<path d="M22.99 22.2676C24.1204 22.2676 25.0437 21.9319 25.0437 21.5175C25.0437 21.103 24.1204 20.7729 22.99 20.7729C21.8596 20.7729 20.9362 21.1086 20.9362 21.5231C20.9362 21.9376 21.8587 22.2733 22.99 22.2733" fill="#D66051"/>
<path d="M14.0685 23.1385C14.0685 23.1385 19.982 22.8571 21.0533 23.2754C22.1247 23.6936 20.4822 27.1959 16.8768 26.9324C13.2714 26.6689 12.1328 23.2322 14.0685 23.1385Z" fill="#FFFFFE"/>
<path d="M28.1235 15.7878C28.1235 15.7878 29.9666 15.1624 30.6439 16.4123C31.3212 17.6623 29.7723 21.6109 27.9019 19.8349C26.0316 18.0589 28.1235 15.7878 28.1235 15.7878Z" fill="#FFDDB8"/>
<path d="M6.93575 15.6269C6.55623 15.4075 4.31271 14.8477 4.14655 16.2252C3.9804 17.6027 4.30181 19.5531 5.19432 19.9441C6.08682 20.3351 8.70714 19.1583 6.93575 15.6269Z" fill="#FFDDB8"/>
<path d="M17.1673 9.50637C13.6863 9.57951 10.2107 8.85561 8.78069 11.3227C7.39026 13.54 6.72222 16.1582 6.87402 18.7952C6.87402 18.7952 6.60164 18.8627 6.4945 18.4633C6.38736 18.0638 5.88799 15.4129 5.34232 15.3304C4.95735 5.91592 7.26897 3.20503 10.9298 2.3114C14.5906 1.41777 12.2409 2.01321 12.851 1.90256C14.271 3.30161 16.5527 7.72661 17.1673 9.50637Z" fill="#41231B"/>
<path d="M13.3077 8.71591C17.6232 10.9851 23.8652 7.83072 25.89 11.3227C27.2809 13.5398 27.949 16.1581 27.7966 18.7952C27.7966 18.7952 28.0736 18.8628 28.1762 18.4633C28.2787 18.0638 28.7845 15.7215 29.3301 15.6389C29.3301 15.6389 30.7384 2.90404 24.0759 1.27901C18.8189 -0.00282615 -0.81078 0.660127 11.8514 7.9198C12.3011 8.17798 12.7853 8.44335 13.3041 8.71591" fill="#562A1F"/>
<path d="M27.1965 64.6001C26.9132 64.9142 26.6435 65.1196 26.3167 65.4534C25.8368 65.9038 25.4235 66.4244 25.0901 66.9987C25.1489 68.1319 25.4268 69.2414 25.9072 70.2619C26.4017 69.7923 26.7476 69.1796 26.8996 68.5037C27.172 67.6542 27.6514 66.3949 27.98 65.5481C28.4422 64.36 27.4788 64.2869 27.1965 64.6001Z" fill="#FFDDB8"/>
<path d="M28.128 15.7881L27.7948 16.9912C27.4661 23.179 23.7436 28.2942 17.2064 28.2942V31.2011C17.2064 31.2011 23.4385 31.4252 25.6657 29.8236C27.8929 28.222 28.3686 24.1252 28.3323 21.7415C28.3158 20.2076 28.3779 18.6739 28.5184 17.1468L28.128 15.7881Z" fill="#562A1F"/>
<path d="M6.28295 15.7881L6.6207 16.9912C6.95482 23.18 10.6701 28.2942 17.2091 28.2942V31.2011C17.2091 31.2011 10.977 31.4252 8.74982 29.8236C6.52264 28.222 6.04416 24.1233 6.07594 21.7387C6.09384 20.2049 6.03322 18.6712 5.89435 17.144L6.28295 15.7881Z" fill="#562A1F"/>
<path d="M17.2064 33.8096C17.2064 33.8096 18.0617 34.2991 18.1143 34.6441C18.167 34.9892 17.8492 35.6493 17.6485 35.6756C17.4479 35.7019 16.8477 35.9663 16.6643 35.5462C16.4809 35.1261 15.9716 34.466 16.135 34.1847C16.2984 33.9033 17.2064 33.8096 17.2064 33.8096Z" fill="#BF3634"/>
<path d="M14.5498 31.335C14.5498 31.335 15.2952 33.4523 17.2064 33.5085C19.1176 33.4523 19.863 31.335 19.863 31.335C19.863 31.335 20.3669 31.5225 20.3361 31.8507C20.3052 32.1789 19.2947 35.1467 18.8016 35.1326C18.3086 35.1186 17.2064 34.1603 17.2064 34.1603C17.2064 34.1603 16.1051 35.128 15.612 35.1373C15.119 35.1467 14.1103 32.1789 14.0758 31.8507C14.0413 31.5225 14.5498 31.335 14.5498 31.335Z" fill="#FFFFFE"/>
<path d="M22.763 32.5896C23.0354 33.6361 23.8662 37.0446 23.6328 38.3921C23.355 39.9937 21.4774 39.658 21.3684 40.441C21.2595 41.224 22.0621 41.2971 22.3172 42.1167C22.5723 42.9362 17.21 51.5415 17.21 51.5415C17.1686 51.567 17.1226 51.5834 17.0747 51.5897C17.0269 51.5959 16.9783 51.592 16.932 51.578C16.8858 51.564 16.8428 51.5403 16.8058 51.5083C16.7688 51.4764 16.7386 51.4369 16.717 51.3924C16.5354 51.0567 12.5169 43.2166 12.3353 42.5836C12.1537 41.9507 13.7916 41.0936 13.7916 40.2741C13.7916 39.4545 11.6716 40.1625 11.4546 39.8249C11.2585 39.5267 11.6407 33.9624 11.7215 32.8241C12.0167 32.5467 12.3472 32.3123 12.7039 32.1273H12.6985C12.6985 32.1273 16.885 49.9568 17.0176 50.0834C17.1501 50.2099 17.2073 50.0927 17.2073 50.0927C18.2433 47.937 21.826 32.0233 21.8405 31.9482H21.8342C22.1687 32.1198 22.4803 32.3353 22.7612 32.5896" fill="#196597"/>
<path d="M17.6231 35.3149C17.6231 35.3149 17.9627 40.9861 18.3758 46.3207C18.0673 47.6033 17.6763 48.8632 17.2055 50.0921C17.2055 50.0921 17.1483 50.2094 17.0157 50.0837C16.9749 50.0443 16.5354 48.2655 15.9516 45.8416C16.3239 40.8943 16.8932 35.4734 16.8932 35.4734L17.6231 35.3149Z" fill="#BF3634"/>
<path d="M3.6 63.8622C3.85876 64.2532 4.42259 64.8636 4.46164 65.2546C4.52792 65.9251 5.21341 66.3321 4.52792 67.0522C4.52792 67.0522 2.26623 68.0087 2.08374 66.5618C1.95935 65.5875 2.0683 64.2672 1.90124 63.3867C1.86674 63.1992 2.76015 62.2699 3.05433 62.9179C3.1907 63.2584 3.37453 63.5765 3.6 63.8622Z" fill="#FFDDB8"/>
<path d="M43.6729 114.957C49.8369 114.957 54.8633 114.233 54.8633 113.346C54.8633 112.459 49.836 111.734 43.6729 111.734C37.5098 111.734 32.4825 112.459 32.4825 113.346C32.4825 114.233 37.5089 114.957 43.6729 114.957Z" fill="#848988"/>
<path d="M41.3504 110.622C41.3504 110.622 41.3195 108.588 41.4457 107.276C41.5719 105.964 41.8997 99.9617 41.8997 99.0999C41.8997 98.2382 39.8414 98.3873 39.8414 98.3873L39.1259 99.2209C39.1259 99.2209 40.2899 109.326 40.1737 110.626C40.1013 110.905 39.9332 111.146 39.7007 111.306C38.9404 111.696 38.1589 112.041 37.36 112.337C36.7907 112.619 36.265 113.408 36.8334 113.822C38.221 114.27 39.7214 114.158 41.0326 113.51C42.0949 112.795 41.5047 111.5 41.3867 110.762C41.3794 110.715 41.3672 110.669 41.3504 110.625" fill="#FFDDB8"/>
<path d="M40.0983 110.838C40.0027 111.024 39.8669 111.184 39.7016 111.307C38.941 111.696 38.1591 112.039 37.36 112.335C36.7907 112.616 36.265 113.405 36.8334 113.819C38.221 114.267 39.7214 114.155 41.0326 113.507C42.0949 112.792 41.5047 111.497 41.3867 110.759C41.2144 110.926 40.9912 111.024 40.7558 111.039C40.5204 111.053 40.2875 110.982 40.0974 110.838" fill="#196597"/>
<path d="M36.6309 113.124C36.5799 113.246 36.5724 113.383 36.6096 113.51C36.6468 113.637 36.7264 113.747 36.8343 113.819C38.2215 114.267 39.7215 114.155 41.0326 113.508C41.2571 113.361 41.4352 113.15 41.5449 112.9C41.6546 112.65 41.6911 112.372 41.65 112.101C41.65 112.101 40.3362 114.582 36.6309 113.124Z" fill="#FFFFFE"/>
<path d="M40.2245 74.6887L40.6631 73.7622C35.0338 75.6939 32.8629 83.3324 34.6761 91.3619C34.7119 91.5608 34.7963 91.7471 34.9212 91.9029C35.318 92.3155 35.8582 91.9733 35.7865 91.4144C35.2417 87.1948 34.707 81.9136 39.934 78.176L40.2245 74.6887Z" fill="#FFDDB8"/>
<path d="M45.7085 110.622C45.7085 110.622 45.7412 108.586 45.6177 107.275C45.4942 105.964 45.1637 99.9623 45.1637 99.0996C45.1637 98.2369 47.2193 98.3869 47.2193 98.3869L47.9348 99.2206C47.9348 99.2206 46.7708 109.325 46.8888 110.626C46.9603 110.904 47.1283 111.146 47.3609 111.306C48.1219 111.695 48.9041 112.038 49.7034 112.334C50.2727 112.616 50.7993 113.405 50.23 113.819C48.8427 114.266 47.3426 114.155 46.0317 113.506C44.9685 112.792 45.5596 111.497 45.6767 110.759C45.6843 110.712 45.6964 110.666 45.713 110.622" fill="#FFDDB8"/>
<path d="M46.9624 110.838C47.0582 111.023 47.1935 111.184 47.3582 111.307C48.1189 111.697 48.9007 112.041 49.6998 112.338C50.2691 112.62 50.7957 113.409 50.2264 113.823C48.8386 114.269 47.3385 114.156 46.0281 113.507C44.964 112.791 45.555 111.496 45.6758 110.759C45.8482 110.925 46.0713 111.024 46.3067 111.039C46.5421 111.053 46.7749 110.982 46.9651 110.838" fill="#196597"/>
<path d="M50.4289 113.124C50.48 113.246 50.4877 113.383 50.4506 113.51C50.4135 113.637 50.3341 113.746 50.2264 113.819C48.8392 114.267 47.3391 114.156 46.0281 113.508C45.8036 113.361 45.6255 113.15 45.5158 112.9C45.4061 112.65 45.3695 112.372 45.4107 112.101C45.4107 112.101 46.7254 114.582 50.4289 113.124Z" fill="#FFFFFE"/>
<path d="M43.4858 89.9517L49.0306 90.2461C49.2103 90.8032 49.2804 91.3917 49.2367 91.9771C49.1632 92.9523 48.731 98.5785 48.623 99.1411C48.5149 99.7037 48.2598 99.7131 47.9466 99.8069C46.9226 99.9772 45.8855 100.049 44.8487 100.023C44.1414 99.9475 44.0515 97.2657 43.908 96.7219C43.7646 96.178 43.4849 96.2343 43.4849 96.2343C43.4849 96.2343 43.2071 96.178 43.0627 96.7219C42.9184 97.2657 42.8285 99.9475 42.1212 100.023C41.0847 100.049 40.0479 99.9771 39.0242 99.8069C38.7092 99.7131 38.4559 99.7028 38.3478 99.1411C38.2398 98.5794 37.8067 92.9523 37.735 91.9771C37.6916 91.3916 37.762 90.8031 37.942 90.2461L43.4858 89.9517Z" fill="#562A1F"/>
<path d="M46.7481 74.6887L46.3068 73.7622C51.9361 75.6939 54.107 83.3324 52.2947 91.3619C52.2589 91.5609 52.1745 91.7471 52.0496 91.9029C51.6528 92.3155 51.1126 91.9733 51.1834 91.4144C51.7281 87.1948 52.2638 81.9136 47.0359 78.176L46.7481 74.6887Z" fill="#FFDDB8"/>
<path d="M41.8752 71.4876L41.887 71.934C41.8941 72.6271 41.8271 73.3189 41.6872 73.9969C41.4702 74.8549 42.5952 75.2018 43.4532 75.2018C44.1353 75.2382 44.8109 75.0497 45.3826 74.6636C45.4407 74.4676 45.6286 73.6396 45.6286 73.6396C45.4105 72.8384 45.2781 72.0149 45.2337 71.1838C45.2763 70.4008 41.8743 71.4857 41.8743 71.4857" fill="#FFDDB8"/>
<path d="M43.4858 52.3369C45.6532 52.3513 47.727 53.2508 49.2543 54.8391C50.7816 56.4274 51.6384 58.5753 51.6373 60.8137V63.8603C51.6384 66.0988 50.7816 68.2467 49.2543 69.8349C47.727 71.4232 45.6532 72.3227 43.4858 72.3371C41.3185 72.3227 39.2447 71.4232 37.7174 69.8349C36.1901 68.2467 35.3333 66.0988 35.3344 63.8603V60.8137C35.3333 58.5753 36.1901 56.4274 37.7174 54.8391C39.2447 53.2508 41.3185 52.3513 43.4858 52.3369" fill="#FFDDB8"/>
<path d="M38.6956 60.7406C38.7528 60.772 38.8158 60.7909 38.8804 60.7962C38.9451 60.8016 39.0101 60.7931 39.0715 60.7715C39.3231 60.6815 39.589 60.6421 39.855 60.6552C39.9787 60.6667 40.1006 60.6935 40.2182 60.735C40.3404 60.7628 40.4566 60.8133 40.5614 60.884C40.6567 60.9853 40.9182 60.9131 40.8864 60.7762C40.8825 60.7074 40.8734 60.6391 40.8592 60.5718C40.8248 60.4902 40.7722 60.4183 40.7057 60.3617C40.5249 60.2149 40.3092 60.1209 40.0811 60.0898C39.6197 59.9907 39.1393 60.0568 38.7192 60.2774C38.583 60.3711 38.524 60.4949 38.5803 60.6243C38.6077 60.6732 38.6476 60.7134 38.6956 60.7406Z" fill="#41231B"/>
<path d="M45.9518 60.8595C46.129 60.752 46.3156 60.6622 46.5093 60.5913C46.6868 60.5316 46.8691 60.4886 47.0541 60.4628C47.2257 60.4403 47.3993 60.4372 47.5716 60.4534C47.6443 60.4619 47.7161 60.4776 47.7859 60.5003C47.8984 60.5388 47.8639 60.55 47.9838 60.6194C48.2752 60.7873 48.7419 60.6016 48.554 60.3043C48.2716 59.8618 47.4971 59.8177 46.9896 59.8908C46.7294 59.9246 46.4781 60.0102 46.2496 60.1431C46.0072 60.2893 45.7421 60.4722 45.6921 60.7282C45.6713 60.8379 45.842 60.9157 45.95 60.8595" fill="#41231B"/>
<path d="M42.9338 65.4878C42.94 65.4993 42.9496 65.5084 42.9613 65.5137C42.973 65.519 42.986 65.5202 42.9984 65.5171C43.0107 65.514 43.0218 65.5068 43.0298 65.4966C43.0379 65.4864 43.0424 65.4737 43.0428 65.4606C43.0455 65.3996 43.0646 65.3349 43.0691 65.2674C43.0755 65.1849 43.0782 65.1108 43.1481 65.0592C43.3088 64.9401 43.5258 64.927 43.6774 64.7986C43.8291 64.6701 43.6702 64.4685 43.5158 64.491C43.3968 64.522 43.2833 64.5727 43.1799 64.641C43.0704 64.7016 42.9769 64.7888 42.9075 64.8951C42.8522 64.9866 42.8244 65.093 42.8276 65.2008C42.8268 65.2606 42.8376 65.3199 42.8594 65.3752C42.8789 65.4165 42.9039 65.4547 42.9338 65.4887" fill="#41231B"/>
<path d="M39.3584 62.0409C39.5649 61.9331 39.8006 61.9001 40.0275 61.9471L40.0856 61.9659C40.6558 61.8402 40.91 62.6954 40.9209 63.1446C40.9705 63.4292 40.9282 63.7229 40.8006 63.9803C40.673 64.2378 40.4671 64.4449 40.2145 64.5699C39.9269 64.6282 39.6285 64.5716 39.3798 64.4115C39.131 64.2513 38.9504 63.9996 38.8744 63.7072C38.8276 63.5576 38.8043 63.4012 38.8054 63.244C38.7719 63.0094 38.8066 62.7699 38.905 62.5557C39.0034 62.3416 39.1612 62.1624 39.3584 62.0409Z" fill="#41231B"/>
<path d="M39.9358 63.007C39.9675 63.04 40.0051 63.0663 40.0467 63.0842C40.0882 63.102 40.1328 63.1113 40.1778 63.1113C40.2228 63.1113 40.2673 63.102 40.3089 63.0842C40.3504 63.0663 40.3881 63.04 40.4197 63.007C40.4679 62.9573 40.5008 62.8941 40.5143 62.8251C40.5277 62.7562 40.5211 62.6847 40.4953 62.6196C40.4695 62.5546 40.4256 62.4988 40.3692 62.4595C40.3127 62.4201 40.2463 62.3989 40.1782 62.3984C40.0873 62.3987 40.0001 62.4361 39.9358 62.5025C39.9037 62.5356 39.8782 62.5749 39.8608 62.6182C39.8434 62.6615 39.8345 62.7079 39.8345 62.7548C39.8345 62.8016 39.8434 62.848 39.8608 62.8913C39.8782 62.9346 39.9037 62.9739 39.9358 63.007Z" fill="#FFFFFE"/>
<path d="M47.6624 62.0684C47.4455 61.9375 47.189 61.895 46.9433 61.9493C46.9242 61.954 46.9051 61.9597 46.887 61.9662C46.3168 61.8406 46.0617 62.6957 46.0499 63.144C46.0007 63.4287 46.0432 63.7223 46.171 63.9797C46.2987 64.2371 46.5046 64.4442 46.7572 64.5693C47.0448 64.6276 47.3432 64.571 47.5919 64.4108C47.8407 64.2507 48.0213 63.999 48.0973 63.7066C48.1442 63.5464 48.1674 63.3798 48.1663 63.2124C48.1853 62.4313 47.9202 62.2194 47.6624 62.0684Z" fill="#41231B"/>
<path d="M47.6234 63.0734C47.5751 63.1232 47.5136 63.157 47.4467 63.1707C47.3798 63.1844 47.3104 63.1773 47.2474 63.1503C47.1844 63.1233 47.1306 63.0776 47.0927 63.019C47.0549 62.9605 47.0346 62.8916 47.0346 62.8212C47.0346 62.7507 47.0549 62.6819 47.0927 62.6233C47.1306 62.5647 47.1844 62.519 47.2474 62.492C47.3104 62.4651 47.3798 62.4579 47.4467 62.4716C47.5136 62.4853 47.5751 62.5192 47.6234 62.5689C47.6873 62.6363 47.7232 62.7268 47.7232 62.8212C47.7232 62.9155 47.6873 63.0061 47.6234 63.0734Z" fill="#FFFFFE"/>
<path d="M39.1595 66.5578C40.0057 66.5578 40.6958 66.3018 40.6958 65.9876C40.6958 65.6735 40.0057 65.4185 39.1595 65.4185C38.3133 65.4185 37.6233 65.6745 37.6233 65.9876C37.6233 66.3008 38.3133 66.5578 39.1595 66.5578Z" fill="#D66051"/>
<path d="M47.8131 66.5578C48.6593 66.5578 49.3493 66.3018 49.3493 65.9876C49.3493 65.6735 48.6593 65.4185 47.8131 65.4185C46.9669 65.4185 46.2769 65.6745 46.2769 65.9876C46.2769 66.3008 46.9678 66.5578 47.8131 66.5578Z" fill="#D66051"/>
<path d="M41.1379 67.2227C41.1379 67.2227 45.5632 67.0061 46.364 67.3277C47.1648 67.6494 45.9373 70.3181 43.2371 70.1193C40.5369 69.9205 39.6879 67.2959 41.1379 67.2227Z" fill="#FFFFFE"/>
<path d="M51.0036 91.7681C51.0036 91.7681 50.6686 92.2988 50.5487 92.5079C50.5487 92.7564 50.4434 93.2524 50.5396 93.1952C50.5859 93.1671 50.7821 93.1512 50.862 92.6729C50.9028 92.8446 50.9696 93.0085 51.0599 93.1587C50.8171 93.4587 50.6042 93.7832 50.4243 94.1273C50.4171 94.2773 50.5324 94.3214 50.6858 94.2267C50.8393 94.132 50.9582 94.0504 50.9582 94.0504C51.028 94.0769 51.1033 94.0844 51.1767 94.0722C51.2501 94.0601 51.3193 94.0287 51.3777 93.981C51.7536 93.665 52.4218 93.6857 52.3528 92.7995C52.331 92.5332 52.1167 92.1863 52.1213 92.0569L51.0036 91.7681Z" fill="#FFDDB8"/>
<path d="M51.0036 91.7681C50.7715 91.9239 50.5959 92.1547 50.5042 92.4245C50.4882 92.6352 50.4578 92.8445 50.4134 93.0508C50.3699 93.2187 50.3835 93.5028 50.615 93.2928C50.7567 93.1171 50.8429 92.9008 50.862 92.6729C50.9038 92.8451 50.9719 93.0094 51.0635 93.1596C50.8208 93.4597 50.6078 93.7842 50.428 94.1283C50.4207 94.2783 50.536 94.3224 50.6894 94.2276C50.8429 94.1329 50.9618 94.0514 50.9618 94.0514C51.0323 94.0722 51.1064 94.0767 51.1787 94.0646C51.2511 94.0524 51.32 94.0239 51.3804 93.981C51.897 93.621 52.084 93.8554 52.3292 93.2206C52.2484 93.2553 52.0795 93.4465 51.838 93.2431C51.7163 93.2409 51.5949 93.2296 51.4748 93.2093C51.1743 93.1108 51.0608 92.5285 51.0544 92.2782C51.0721 92.1089 51.1486 91.952 51.2696 91.8365L51.0036 91.7681Z" fill="#FFDDB8"/>
<path d="M50.9854 91.8403C51.3571 91.9143 51.7237 92.013 52.0831 92.1356C52.0831 92.1356 52.1885 92.1872 52.2584 92.0475C52.3283 91.9078 52.4627 91.6124 52.3728 91.5233C51.9645 91.3415 51.5356 91.2139 51.0962 91.1436C50.9854 91.1707 50.8919 91.5861 50.8865 91.6687C50.881 91.7047 50.888 91.7415 50.906 91.7729C50.9241 91.8042 50.9522 91.828 50.9854 91.8403Z" fill="#BF3634"/>
<path d="M51.6564 61.6584C51.6564 61.6584 53.0319 61.1811 53.5395 62.1357C54.047 63.0903 52.8876 66.1003 51.4875 64.7453C50.0875 63.3903 51.6564 61.6584 51.6564 61.6584Z" fill="#FFDDB8"/>
<path d="M35.8029 61.5356C35.5169 61.3687 33.8399 60.9411 33.7164 61.9923C33.5929 63.0435 33.8317 64.5307 34.5018 64.8279C35.1718 65.1252 37.1348 64.2296 35.8065 61.5347" fill="#FFDDB8"/>
<path d="M43.4577 56.8666C40.8528 56.9219 38.2534 56.3705 37.1829 58.2516C36.1426 59.951 35.6449 61.9448 35.7602 63.9518C35.7602 63.9518 35.5541 64.0034 35.4769 63.6987C35.3997 63.3939 35.0193 61.3722 34.6116 61.3094C34.322 54.1276 36.0516 52.0599 38.7945 51.3773C41.5374 50.6946 39.7724 51.1504 40.2282 51.0641C41.5853 52.8165 42.6745 54.7734 43.4577 56.8666Z" fill="#41231B"/>
<path d="M39.3429 46.7012C39.3429 46.7012 34.6906 53.1141 40.5696 56.2657C43.7982 57.9958 48.4686 55.5906 49.9831 58.2536C51.0241 59.9532 51.522 61.9474 51.4067 63.9549C51.4067 63.9549 51.6138 64.0064 51.6909 63.7017C51.7681 63.3969 52.1449 61.6106 52.5535 61.545C52.5535 61.545 53.6067 51.8304 48.623 50.5908C43.6393 49.3511 40.6921 49.3971 39.3429 46.7012Z" fill="#562A1F"/>
<path d="M45.4715 73.6396C45.2564 73.9829 44.9623 74.2658 44.6155 74.4629C44.2687 74.6601 43.8799 74.7655 43.4841 74.7696C43.089 74.7646 42.7012 74.6589 42.3552 74.4617C42.0093 74.2646 41.7159 73.9822 41.5011 73.6396C37.8639 73.6734 38.0473 79.4412 38.0473 79.4412C38.0473 79.4412 37.764 87 37.5298 88.4272C37.4486 88.8137 37.4712 89.2157 37.5953 89.5899C37.7193 89.964 37.94 90.2961 38.2334 90.5501C39.8033 92.0411 47.1694 92.0411 48.7401 90.5501C49.0334 90.296 49.254 89.9639 49.378 89.5898C49.502 89.2157 49.5247 88.8137 49.4438 88.4272C49.2086 87 48.9253 79.4421 48.9253 79.4421C48.9253 79.4421 49.1087 73.6734 45.4715 73.6396Z" fill="#196597"/>
<path d="M45.0739 74.4457C45.9439 74.6876 46.7349 75.167 47.3637 75.8335C48.9072 77.1613 48.9635 80.4235 48.9635 80.4235C49.4748 80.9965 49.9044 81.6419 50.2391 82.3402C50.2705 82.3683 50.3106 82.3838 50.3522 82.3838C50.3937 82.3838 50.4338 82.3683 50.4652 82.3402C50.852 81.8057 52.4 81.3706 52.4627 81.1962C52.5021 81.0914 52.5053 80.9758 52.4718 80.8689C51.8553 77.6404 48.8981 73.8015 45.6095 73.583C45.4457 73.88 45.2669 74.168 45.0739 74.4457" fill="#FFFFFE"/>
<path d="M45.5251 73.4715C45.2976 73.8194 44.995 74.1079 44.6411 74.3144C44.2872 74.5209 43.8918 74.6397 43.4859 74.6615C43.1022 74.6548 42.7269 74.545 42.3968 74.3429C42.0668 74.1409 41.7934 73.8534 41.6037 73.509C41.3802 73.4855 41.1544 73.5176 40.9454 73.6028C40.7638 73.7341 41.522 74.9812 42.7123 75.2156C43.3745 75.3808 44.0709 75.3178 44.6951 75.036C45.3194 74.7543 45.8372 74.2694 46.1697 73.6553C46.1697 73.6553 45.6404 73.2512 45.5251 73.4715Z" fill="#FFFFFE"/>
<path d="M35.9663 91.7681C35.9663 91.7681 36.3022 92.2988 36.4203 92.5079C36.4203 92.7564 36.5256 93.2524 36.4293 93.1952C36.383 93.1671 36.186 93.1512 36.1061 92.6729C36.0642 92.8451 35.9962 93.0094 35.9045 93.1596C36.1473 93.4597 36.3602 93.7842 36.5401 94.1283C36.5474 94.2783 36.4321 94.3224 36.2786 94.2276C36.1252 94.1329 36.0062 94.0514 36.0062 94.0514C35.9372 94.0765 35.8632 94.0832 35.7909 94.0709C35.7187 94.0586 35.6507 94.0277 35.5931 93.981C35.2172 93.665 34.5454 93.6857 34.618 92.7995C34.6389 92.5332 34.8541 92.1863 34.8486 92.0569L35.9663 91.7681Z" fill="#FFDDB8"/>
<path d="M35.9672 91.7681C36.1993 91.9239 36.3749 92.1547 36.4666 92.4245C36.4829 92.6352 36.5132 92.8444 36.5573 93.0508C36.6 93.2187 36.5882 93.5028 36.3558 93.2928C36.2141 93.1171 36.1279 92.9008 36.1088 92.6729C36.067 92.8451 35.9989 93.0094 35.9073 93.1596C36.15 93.4597 36.3629 93.7842 36.5428 94.1283C36.5501 94.2783 36.4348 94.3224 36.2813 94.2276C36.1279 94.1329 36.009 94.0514 36.009 94.0514C35.9385 94.0722 35.8644 94.0767 35.7921 94.0646C35.7197 94.0524 35.6508 94.0239 35.5904 93.981C35.0774 93.621 34.8904 93.8544 34.6443 93.2206C34.7251 93.2553 34.894 93.4465 35.1355 93.2431C35.2572 93.2409 35.3786 93.2296 35.4987 93.2093C35.8001 93.1108 35.9145 92.5285 35.92 92.2782C35.9012 92.1082 35.8231 91.9512 35.7003 91.8365L35.9672 91.7681Z" fill="#FFDDB8"/>
<path d="M35.9844 91.8403C35.6131 91.9144 35.2468 92.0131 34.8876 92.1356C34.8876 92.1356 34.7814 92.1872 34.7115 92.0475C34.6416 91.9078 34.5072 91.6124 34.5971 91.5233C35.0054 91.3415 35.4343 91.2139 35.8737 91.1436C35.9844 91.1698 36.078 91.5843 36.0825 91.6668C36.0879 91.7028 36.081 91.7397 36.0629 91.771C36.0449 91.8023 36.0168 91.8262 35.9835 91.8384" fill="#BF3634"/>
<path d="M41.896 74.4457C41.026 74.6876 40.235 75.167 39.6062 75.8335C38.0627 77.1613 38.0073 80.4235 38.0073 80.4235C37.4954 80.9964 37.0653 81.6418 36.7299 82.3402C36.6985 82.3683 36.6583 82.3838 36.6168 82.3838C36.5753 82.3838 36.5351 82.3683 36.5038 82.3402C36.117 81.8057 34.569 81.3659 34.5027 81.1962C34.4632 81.0915 34.4597 80.976 34.4927 80.8689C35.1146 77.6404 38.0718 73.8015 41.3604 73.583C41.5242 73.88 41.703 74.168 41.896 74.4457Z" fill="#FFFFFE"/>
</g>
<defs>
<clipPath id="clip0">
<rect width="79.6065" height="114.277" fill="white" transform="translate(0 0.753906)"/>
</clipPath>
</defs>
</svg>
