<svg width="69" height="109" viewBox="0 0 69 109" fill="none" xmlns="http://www.w3.org/2000/svg">
<g clip-path="url(#clip0)">
<path d="M34.8097 108.832C41.2561 108.832 46.5068 107.931 46.5068 106.827C46.5068 105.723 41.2525 104.822 34.8097 104.822C28.367 104.822 23.1136 105.722 23.1136 106.827C23.1136 107.932 28.3679 108.832 34.8097 108.832Z" fill="#A8ACA9"/>
<path d="M47.1222 14.2188V26.2664C47.1166 27.9346 46.4722 29.5328 45.3295 30.7119C44.1868 31.8909 42.6388 32.5551 41.0235 32.5593H28.7963C24.0296 32.5593 22.6985 28.6585 22.6985 24.5729V18.1028C22.6985 10.107 22.8093 2.27629 32.6187 0.577176C39.3838 -0.595887 47.1222 3.47467 47.1222 12.801V14.2188Z" fill="#562B20"/>
<path d="M37.6523 102.845L36.8906 101.075C36.8906 101.075 37.0168 97.8306 36.8624 95.7302C36.7081 93.6297 36.1442 70.4282 36.1751 69.0517C36.206 67.6751 41.4611 67.2476 41.4611 67.2476L40.831 68.4197C40.831 68.4197 38.6447 99.0497 38.7827 101.128C38.9207 103.206 37.6523 102.845 37.6523 102.845" fill="#FFDDB8"/>
<path d="M38.7854 101.128C38.8877 101.576 39.1463 101.97 39.5118 102.234C40.7193 102.885 41.9622 103.464 43.2344 103.967C44.1423 104.436 44.9549 105.721 44.0243 106.357C43.0936 106.993 38.9679 106.872 37.2864 105.689C35.6049 104.507 36.6064 102.464 36.8261 101.293C37.0458 100.121 38.7637 100.433 38.7854 101.128Z" fill="#FFDDB8"/>
<path d="M42.6651 103.699C42.8857 103.793 43.0818 103.886 43.2416 103.967C44.1496 104.436 44.9622 105.721 44.0315 106.357C43.1009 106.993 38.9752 106.872 37.2937 105.69C36.1524 104.891 36.2432 103.692 36.4884 102.64C36.5719 103.695 39.4501 105.03 41.4929 104.85C43.5358 104.67 42.6678 103.703 42.6651 103.699Z" fill="#BF3733"/>
<path d="M32.0349 102.845L32.7967 101.076C32.7967 101.076 32.6714 97.8316 32.8248 95.7311C32.9783 93.6307 33.5439 70.4282 33.5112 69.0517C33.4785 67.6751 28.2261 67.2476 28.2261 67.2476L28.8562 68.4197C28.8562 68.4197 31.0407 99.0497 30.9054 101.128C30.7702 103.206 32.0349 102.845 32.0349 102.845" fill="#FFDDB8"/>
<path d="M30.9045 101.128C30.8 101.577 30.5384 101.971 30.17 102.233C28.9625 102.884 27.7196 103.463 26.4474 103.966C25.5395 104.435 24.7269 105.72 25.6575 106.356C26.5882 106.992 30.713 106.871 32.3954 105.689C34.0778 104.506 33.08 102.463 32.8621 101.292C32.6441 100.121 30.9218 100.433 30.9045 101.128Z" fill="#FFDDB8"/>
<path d="M27.0213 103.699C26.8006 103.793 26.6036 103.886 26.4447 103.967C25.5368 104.436 24.7242 105.721 25.6548 106.357C26.5855 106.993 30.7102 106.872 32.3926 105.69C33.533 104.891 33.4422 103.692 33.198 102.64C33.1145 103.695 30.2381 105.03 28.1934 104.85C26.1487 104.67 27.0185 103.703 27.0213 103.699Z" fill="#BF3733"/>
<path d="M32.0041 29.2935C32.0041 29.2935 27.7948 29.2841 27.1566 30.3906C26.656 31.4447 26.5167 32.6432 26.7616 33.7897C26.7616 33.7897 28.8825 34.0551 29.4464 34.8212C29.3628 35.4289 29.4544 36.0486 29.7097 36.6028C29.7097 36.6028 28.3015 46.7769 27.5506 48.2115C25.677 52.2361 24.8187 56.6845 25.0556 61.1434C25.5295 66.9984 25.8609 74.0292 26.1605 75.027C26.4602 76.0247 34.4973 75.8999 34.9113 75.8999C35.3253 75.8999 43.3606 76.0256 43.6611 75.027C43.9616 74.0283 43.7174 69.1616 44.4783 62.2742C44.9984 57.466 44.2364 52.6023 42.2747 48.2087C41.5229 46.7741 40.1156 36.5935 40.1156 36.5935C40.3702 36.039 40.4615 35.4194 40.378 34.8118C40.9418 34.0476 43.0628 33.7804 43.0628 33.7804C43.3074 32.6339 43.1685 31.4356 42.6687 30.3812C42.0268 29.2841 38.2343 29.4088 38.2343 29.4088L34.9113 31.2842L32.0041 29.2935Z" fill="#FFFFFE"/>
<path d="M27.5506 48.2114C25.677 52.236 24.8187 56.6844 25.0556 61.1432C25.5295 66.9982 25.8609 74.0291 26.1605 75.0296C26.4602 76.0302 34.4973 75.9026 34.9113 75.9026C35.3253 75.9026 43.3606 76.0283 43.6611 75.0296C43.9616 74.031 43.7174 69.1643 44.4783 62.2769C44.9976 57.4684 44.2346 52.6047 42.272 48.2114H27.5506Z" fill="#562B20"/>
<path d="M29.4464 34.8184C29.3628 35.4261 29.4544 36.0457 29.7097 36.6H40.1129C40.3675 36.0455 40.4587 35.426 40.3753 34.8184H29.4464Z" fill="#EFE7E0"/>
<path d="M32.5388 26.8638L32.557 27.5014C32.5671 28.4981 32.4696 29.4929 32.2664 30.4674C31.955 31.6986 33.5848 32.1946 34.8187 32.1946C36.0526 32.1946 37.5171 31.6976 37.6006 31.4172C37.6841 31.1369 37.9565 29.9488 37.9565 29.9488C37.6438 28.8013 37.4541 27.6218 37.3909 26.4315C37.4535 25.3091 32.5388 26.8638 32.5388 26.8638Z" fill="#FFDDB8"/>
<path d="M34.9112 3.40527C37.2505 3.41121 39.4924 4.37304 41.1472 6.08066C42.802 7.78827 43.7351 10.1029 43.7428 12.5188V18.6963C43.7428 21.1155 42.8123 23.4356 41.156 25.1462C39.4996 26.8568 37.2532 27.8178 34.9108 27.8178C32.5684 27.8178 30.3219 26.8568 28.6656 25.1462C27.0093 23.4356 26.0788 21.1155 26.0788 18.6963V12.5188C26.0867 10.1028 27.0201 7.78819 28.675 6.0806C30.3299 4.37301 32.5719 3.41121 34.9112 3.40527" fill="#FFDDB8"/>
<path d="M29.3538 14.4609C29.4201 14.497 29.4928 14.5188 29.5676 14.5251C29.6423 14.5314 29.7175 14.522 29.7887 14.4975C30.0803 14.3937 30.3885 14.3482 30.6966 14.3634C30.8396 14.3772 30.9804 14.4087 31.1161 14.4572C31.2586 14.4887 31.3943 14.5468 31.5165 14.6288C31.6282 14.746 31.9305 14.6625 31.8933 14.504C31.8885 14.4251 31.8772 14.3467 31.8597 14.2696C31.8189 14.1751 31.7566 14.0921 31.6781 14.0277C31.4675 13.8579 31.2167 13.7498 30.9517 13.7145C30.42 13.6018 29.8669 13.6774 29.3819 13.9292C29.2276 14.0361 29.1595 14.1796 29.2248 14.324C29.2551 14.3808 29.2996 14.4281 29.3538 14.4609Z" fill="#41231B"/>
<path d="M37.7704 14.5965C37.9768 14.4733 38.1938 14.37 38.4186 14.288C38.6258 14.2193 38.8385 14.1701 39.0542 14.1408C39.2515 14.1155 39.4509 14.112 39.6489 14.1305C39.733 14.1404 39.816 14.1586 39.8968 14.1849C40.0275 14.2299 39.9876 14.2421 40.1265 14.3227C40.4651 14.5159 41.0054 14.3021 40.7875 13.9599C40.4606 13.4451 39.5617 13.3972 38.9716 13.4826C38.6712 13.5208 38.3808 13.6185 38.1163 13.7704C37.833 13.9411 37.528 14.1511 37.4698 14.4456C37.4453 14.5722 37.6442 14.6622 37.7686 14.5965" fill="#41231B"/>
<path d="M34.2702 19.9256C34.2777 19.9383 34.2889 19.9483 34.3022 19.9541C34.3155 19.9599 34.3302 19.9611 34.3443 19.9577C34.3583 19.9542 34.3709 19.9463 34.3803 19.9349C34.3897 19.9236 34.3953 19.9095 34.3965 19.8946C34.3965 19.8243 34.4219 19.7446 34.4273 19.6715C34.4346 19.5777 34.4382 19.4914 34.519 19.4352C34.7061 19.2954 34.9567 19.2804 35.1328 19.1323C35.3089 18.9841 35.1246 18.7535 34.9458 18.7788C34.808 18.8151 34.6768 18.874 34.5572 18.9532C34.4314 19.0236 34.3242 19.1247 34.2448 19.2476C34.1804 19.3514 34.1464 19.4722 34.1468 19.5955C34.1463 19.6643 34.159 19.7325 34.184 19.7962C34.2083 19.8434 34.2389 19.887 34.2748 19.9256" fill="#41231B"/>
<path d="M29.0187 16.6585C29.0687 16.6379 29.0796 16.6501 29.1286 16.6492C29.1867 16.6509 29.2447 16.6568 29.302 16.667C29.3863 16.6839 29.4715 16.6952 29.5571 16.7007C29.5829 16.5924 29.621 16.4876 29.6706 16.3885C29.6479 16.381 29.6261 16.3725 29.6034 16.3632C29.4992 16.3192 29.4037 16.2556 29.322 16.1756C29.2593 16.11 29.1549 15.9787 29.1867 15.8802C29.263 15.643 29.4736 15.8868 29.568 15.974C29.6566 16.0537 29.7664 16.104 29.8831 16.1184H29.8885C30.027 15.9985 30.1898 15.9124 30.3649 15.8663C30.54 15.8202 30.7228 15.8153 30.9 15.8521C30.9218 15.8568 30.9445 15.8643 30.9663 15.8709C31.6272 15.7265 31.9232 16.7148 31.935 17.2287C31.9923 17.5569 31.9433 17.8955 31.7956 18.1921C31.6479 18.4887 31.4097 18.7268 31.1179 18.8696C30.784 18.939 30.437 18.8748 30.1472 18.6899C29.8574 18.505 29.6465 18.2133 29.5571 17.8738C29.482 17.6144 29.4607 17.3415 29.4945 17.073C29.4035 17.0809 29.312 17.0765 29.2221 17.0599C29.1585 17.0542 29.098 17.0287 29.0487 16.9867L28.9652 16.9042C28.9477 16.8865 28.935 16.8646 28.9281 16.8404C28.9212 16.8162 28.9204 16.7906 28.9257 16.766C28.9311 16.7414 28.9425 16.7186 28.9587 16.6998C28.975 16.681 28.9957 16.6668 29.0187 16.6585Z" fill="#41231B"/>
<path d="M30.791 17.0697C30.8559 17.1367 30.9413 17.1784 31.0327 17.1877C31.124 17.197 31.2157 17.1733 31.292 17.1206C31.3683 17.0679 31.4246 16.9896 31.4513 16.8988C31.4779 16.8081 31.4733 16.7107 31.4381 16.6231C31.403 16.5355 31.3396 16.4632 31.2586 16.4185C31.1776 16.3738 31.0842 16.3595 30.9942 16.378C30.9041 16.3965 30.8231 16.4467 30.7649 16.5199C30.7066 16.5932 30.6748 16.6851 30.6748 16.7799C30.6751 16.8885 30.7169 16.9926 30.791 17.0697Z" fill="#FFFFFE"/>
<path d="M40.8029 16.6586C40.7521 16.638 40.7421 16.6502 40.693 16.6493C40.6343 16.6509 40.5757 16.6568 40.5178 16.6671C40.4336 16.684 40.3483 16.6952 40.2627 16.7008C40.2388 16.5927 40.2026 16.4879 40.1546 16.3886C40.1773 16.3811 40.1991 16.3726 40.2209 16.3633C40.3253 16.3195 40.4208 16.2559 40.5024 16.1757C40.5659 16.1129 40.6694 15.9826 40.6377 15.8832C40.5614 15.6459 40.3517 15.8897 40.2563 15.9769C40.1675 16.0568 40.0574 16.1072 39.9404 16.1213H39.9358C39.7972 16.0004 39.6339 15.9133 39.4581 15.8667C39.2823 15.8201 39.0986 15.8152 38.9207 15.8522C38.899 15.8569 38.8772 15.8644 38.8554 15.871C38.1935 15.7266 37.8984 16.7112 37.8848 17.2288C37.827 17.5576 37.8757 17.8969 38.0234 18.1942C38.1711 18.4915 38.4096 18.7302 38.7019 18.8735C39.036 18.9422 39.3828 18.8771 39.6721 18.6915C39.9614 18.5059 40.1716 18.2136 40.26 17.8739C40.3368 17.6145 40.3594 17.3412 40.3262 17.0722C40.4172 17.0804 40.5088 17.076 40.5986 17.059C40.6616 17.0534 40.7214 17.0282 40.7702 16.9868L40.8565 16.9043C40.8741 16.8868 40.8871 16.8648 40.8942 16.8406C40.9012 16.8163 40.9021 16.7906 40.8967 16.7659C40.8913 16.7412 40.8799 16.7184 40.8634 16.6996C40.847 16.6808 40.8261 16.6667 40.8029 16.6586Z" fill="#41231B"/>
<path d="M39.7088 17.1463C39.6334 17.2186 39.5338 17.2579 39.4309 17.256C39.328 17.254 39.2298 17.2109 39.157 17.1357C39.0843 17.0606 39.0425 16.9592 39.0406 16.8529C39.0387 16.7466 39.0768 16.6438 39.1468 16.5659C39.2213 16.4888 39.3225 16.4454 39.4279 16.4453C39.5334 16.4452 39.6346 16.4884 39.7093 16.5654C39.7839 16.6424 39.8259 16.7468 39.826 16.8557C39.8261 16.9647 39.7843 17.0692 39.7097 17.1463" fill="#FFFFFE"/>
<path d="M29.8922 21.159C30.8736 21.159 31.6735 20.8645 31.6735 20.5026C31.6735 20.1406 30.8736 19.8462 29.8922 19.8462C28.9107 19.8462 28.1108 20.1406 28.1108 20.5026C28.1108 20.8645 28.9107 21.159 29.8922 21.159Z" fill="#D76051"/>
<path d="M39.9285 21.159C40.91 21.159 41.7108 20.8645 41.7108 20.5026C41.7108 20.1406 40.9109 19.8462 39.9285 19.8462C38.9461 19.8462 38.1472 20.1406 38.1472 20.5026C38.1472 20.8645 38.948 21.159 39.9285 21.159Z" fill="#D76051"/>
<path d="M29.5018 13.2465L25.5568 11.2539L24.9466 16.7779H26.0788C26.0819 15.8417 26.4437 14.9447 27.085 14.2831C27.7264 13.6214 28.5952 13.2487 29.5018 13.2465Z" fill="#562B20"/>
<path d="M32.4507 22.2603C32.4507 22.2603 37.0931 22.0353 37.9347 22.3738C38.7764 22.7123 37.4853 25.4869 34.6534 25.2807C31.8215 25.0744 30.9299 22.3372 32.4507 22.2603Z" fill="#FFFFFE"/>
<path d="M32.9973 28.9818C32.9973 28.9818 33.3759 30.9322 34.9194 30.8094C35.4237 30.7276 35.8986 30.5117 36.2975 30.1829C36.6965 29.854 37.0057 29.4236 37.1947 28.934C37.4217 28.6049 38.5485 29.37 38.5857 29.822C38.6229 30.274 37.4825 33.2324 36.6509 33.2118C35.8192 33.1912 35.4406 32.4522 35.062 32.3078C34.6834 32.1634 34.2321 32.9248 33.5684 33.2549C32.9047 33.585 31.5501 30.1755 31.7017 29.8061C31.8533 29.4366 32.675 28.2645 32.9973 28.9818Z" fill="#DBD2C9"/>
<path d="M25.5123 12.6978L28.8771 13.2501H35.1655C36.3976 13.2501 41.0671 13.2098 41.0671 7.96803V4.34851L33.306 1.34131C31.9595 2.23345 30.6582 3.19649 29.4073 4.22661C29.2493 4.55199 25.3116 7.63984 25.1536 8.41156C24.9956 9.18329 24.4273 10.528 24.6815 10.8908C24.993 11.4754 25.2701 12.0788 25.5114 12.6978" fill="#562B20"/>
<path d="M46.5783 13.5351C44.5019 13.3879 40.7103 12.5243 40.7103 7.43259V3.2345L41.5937 3.08447C42.4781 3.96497 44.1841 5.70253 44.1841 6.0176C44.1841 6.44238 46.3858 11.5547 46.2869 12.5271C46.2949 12.8836 46.3952 13.2313 46.5774 13.5342" fill="#562B20"/>
<path d="M30.5077 55.2377C31.1286 53.9865 32.0836 52.9451 33.2597 52.2371C34.5835 51.6745 36.3086 51.38 37.1457 52.0102C38.0309 52.836 38.5734 53.9827 38.6601 55.2115C38.6084 56.0423 37.9338 55.6128 37.803 55.1318C37.6723 54.6507 37.1185 52.8485 36.3712 52.57C35.624 52.2915 33.2279 52.5559 32.793 53.2892C32.443 53.9971 32.0231 54.6658 31.5401 55.2846C31.2541 55.4853 30.397 55.7263 30.5077 55.2377Z" fill="#8F2429"/>
<path d="M43.06 33.7896C43.0764 33.8017 43.9798 36.7546 44.6943 39.8161C45.3026 42.4126 45.7139 42.2823 44.7207 44.1136C43.0782 47.1443 40.0629 51.2748 39.46 51.5214C38.8572 51.7681 38.2534 51.6368 38.5321 50.9738C38.8109 50.3109 41.828 46.0293 43.0428 42.8046C42.9883 42.5933 42.9278 42.3933 42.8612 42.2045C42.2066 40.3497 41.1361 37.891 40.319 36.0747C40.4034 35.6627 40.4209 35.239 40.3707 34.821C40.9382 34.0549 43.06 33.7896 43.06 33.7896Z" fill="#FFDDB8"/>
<path d="M32.2755 52.0737L32.2701 52.0653L32.2619 52.0569L32.2492 52.0428C32.3262 52.2878 32.3648 52.5438 32.3636 52.8014C32.8895 52.9718 33.3975 53.1965 33.8798 53.4718C34.0024 53.65 33.8916 53.7982 33.6311 53.8047C33.3705 53.8113 33.1617 53.8047 33.1617 53.8047C33.0953 53.8931 33.0081 53.9625 32.9085 54.0063C32.8089 54.0501 32.7001 54.0669 32.5924 54.0551C31.6844 54.0288 31.6291 54.4667 30.8491 53.8863H30.8655C30.6937 53.7656 30.5647 53.5906 30.4978 53.3875C30.2419 52.4853 29.9292 51.6013 29.5617 50.7413L30.9853 50.3774L31.3331 50.9466C31.7589 51.0112 32.1621 51.1857 32.5052 51.4539C32.6849 51.6981 32.8809 51.929 33.0918 52.145C33.2733 52.3166 33.4676 52.6748 33.0237 52.6035C32.728 52.5095 32.467 52.3247 32.2755 52.0737Z" fill="#FFDDB8"/>
<path d="M26.7625 33.7896C26.7461 33.8017 25.8427 36.7546 25.1255 39.8161C24.5181 42.4164 24.1068 42.2823 25.1 44.1136C26.7425 47.1443 29.7569 51.2748 30.3607 51.5214C30.9644 51.7681 31.5664 51.6368 31.2886 50.9738C31.0107 50.3109 27.9927 46.0293 26.7779 42.8046C26.833 42.5933 26.8935 42.3933 26.9595 42.2045C27.615 40.3497 28.6846 37.891 29.5017 36.0747C29.4163 35.6629 29.3978 35.2391 29.4473 34.821C28.8834 34.0549 26.7625 33.7896 26.7625 33.7896Z" fill="#FFDDB8"/>
<path d="M37.547 52.0737L37.5525 52.0653L37.5606 52.0569L37.5743 52.0419C37.4972 52.2868 37.4586 52.5429 37.4599 52.8005C36.9336 52.9711 36.4253 53.196 35.9427 53.4718C35.8201 53.65 35.93 53.7982 36.1906 53.8047C36.4511 53.8113 36.66 53.8047 36.66 53.8047C36.7264 53.8931 36.8135 53.9625 36.9131 54.0063C37.0128 54.0501 37.1216 54.0669 37.2293 54.0551C38.1372 54.0288 38.1935 54.4667 38.9743 53.8863H38.958C39.1277 53.7646 39.255 53.5897 39.3211 53.3875C39.5784 52.4852 39.8923 51.6013 40.2609 50.7413L38.8381 50.3774L38.4895 50.9466C38.0633 51.0111 37.6599 51.1856 37.3164 51.4539C37.1372 51.6983 36.9415 51.9292 36.7308 52.145C36.5492 52.3166 36.354 52.6748 36.7989 52.6035C37.0943 52.5095 37.355 52.3247 37.5461 52.0737" fill="#FFDDB8"/>
<path d="M32.5906 52.6441V52.7603H33.5058V52.1377C33.4232 52.1705 33.3396 52.2033 33.2597 52.238C33.0212 52.3441 32.7964 52.4805 32.5906 52.6441" fill="#8F2429"/>
<path d="M37.4526 52.2924V52.6806H36.5701C36.5091 52.6344 36.4422 52.5971 36.3712 52.5699C36.3175 52.5501 36.2626 52.5338 36.2069 52.5212V51.6772C36.5424 51.7029 36.8657 51.8176 37.1457 52.0101C37.2562 52.0939 37.359 52.188 37.4526 52.2914" fill="#8F2429"/>
<path d="M28.1398 63.9317C27.4008 63.5416 27.6722 62.1557 27.6768 61.3408C27.6117 59.3712 27.6459 57.3993 27.7794 55.4333C28.405 54.6007 30.0965 54.9242 31.186 54.9035C32.5479 54.8782 41.4457 54.6475 41.9741 54.9514C42.7205 55.379 42.4081 57.3547 42.4281 58.2389C42.4481 59.1232 42.7868 63.3288 42.133 63.7779C41.5356 64.184 36.058 64.0499 35.1146 64.0592C32.7893 64.1619 30.4602 64.1194 28.1398 63.9317Z" fill="#BF3733"/>
<path d="M58.4415 108.69C63.6231 108.69 67.8505 107.688 67.8505 106.46C67.8505 105.233 63.6231 104.231 58.4415 104.231C53.2598 104.231 49.0325 105.232 49.0325 106.461C49.0325 107.691 53.2589 108.69 58.4415 108.69Z" fill="#A8ACA9"/>
<path d="M54.1505 68.7506L52.9956 67.3984C50.9203 69.799 49.4287 72.6758 48.6444 75.7904C47.8602 78.9051 47.8058 82.1679 48.4859 85.3085C48.5224 85.5069 48.6088 85.6919 48.7365 85.8449C48.8131 85.9337 48.9164 85.9934 49.0298 86.0144C49.1432 86.0354 49.2601 86.0165 49.3619 85.9608C49.4637 85.905 49.5444 85.8156 49.5912 85.7069C49.638 85.5982 49.6481 85.4764 49.6199 85.361C49.0679 81.1676 48.7383 76.6338 53.8564 72.2145L54.1505 68.7506Z" fill="#FFFFFE"/>
<path d="M49.8051 85.7139C49.8051 85.7139 50.1474 86.2418 50.27 86.449C50.27 86.6966 50.3762 87.1889 50.2791 87.1317C50.2327 87.1035 50.0312 87.0885 49.9495 86.6131C49.9063 86.7842 49.8367 86.9469 49.7434 87.0951C49.9916 87.3927 50.2103 87.7154 50.3962 88.0581C50.4034 88.2063 50.2854 88.2513 50.1292 88.1566C49.9731 88.0619 49.8505 87.9812 49.8505 87.9812C49.7789 88.0078 49.7019 88.0154 49.6267 88.0033C49.5515 87.9912 49.4805 87.9597 49.4201 87.9118C49.0397 87.5986 48.3533 87.6183 48.4269 86.7341C48.4496 86.4743 48.6684 86.1302 48.6629 86.0008L49.8051 85.7139Z" fill="#FFDDB8"/>
<path d="M49.8042 85.7139C50.0399 85.8681 50.2192 86.0991 50.3136 86.3703C50.3316 86.5795 50.3638 86.7873 50.4098 86.9919C50.4534 87.1579 50.4416 87.4402 50.2037 87.2311C50.0582 87.0574 49.9692 86.8409 49.9495 86.6122C49.9063 86.7832 49.8367 86.946 49.7434 87.0942C49.9917 87.3921 50.2104 87.715 50.3962 88.0581C50.4035 88.2063 50.2854 88.2513 50.1293 88.1566C49.9731 88.0619 49.8505 87.9812 49.8505 87.9812C49.7786 88.0019 49.7032 88.0063 49.6294 87.9944C49.5557 87.9824 49.4852 87.9543 49.4229 87.9118C48.8963 87.5546 48.7047 87.7871 48.4541 87.156C48.5358 87.1917 48.7083 87.3811 48.9553 87.1786C49.077 87.1764 49.1984 87.1651 49.3185 87.1448C49.6263 87.051 49.7416 86.4687 49.747 86.2202C49.73 86.0521 49.6538 85.8962 49.5327 85.7823L49.8042 85.7139Z" fill="#FFDDB8"/>
<path d="M49.9495 85.7557C49.483 85.8466 49.0224 85.9672 48.5703 86.1167C48.5703 86.1167 48.4414 86.1805 48.3506 86.0098C48.2598 85.8392 48.0937 85.4772 48.2062 85.3731C48.7208 85.1497 49.2599 84.9923 49.8115 84.9043C49.9495 84.9371 50.0684 85.4444 50.0757 85.5457C50.0825 85.5901 50.0735 85.6356 50.0505 85.6738C50.0275 85.712 49.992 85.7404 49.9504 85.7539" fill="#BF3733"/>
<path d="M61.7891 68.7506L62.9449 67.3984C65.0201 69.7991 66.5115 72.6759 67.2956 75.7906C68.0797 78.9052 68.1339 82.1679 67.4537 85.3085C67.4168 85.5067 67.3304 85.6916 67.2031 85.8449C67.1265 85.9337 67.0232 85.9934 66.9098 86.0144C66.7964 86.0354 66.6794 86.0165 66.5777 85.9608C66.4759 85.905 66.3952 85.8156 66.3484 85.7069C66.3016 85.5982 66.2915 85.4764 66.3197 85.361C66.8735 81.1676 67.2022 76.6338 62.0841 72.2145L61.7891 68.7506Z" fill="#FFFFFE"/>
<path d="M60.3772 104.003L59.8705 102.914C59.8705 102.914 59.8987 100.893 59.7698 99.5896C59.6408 98.2862 59.235 93.5189 59.235 92.6619C59.235 91.8048 61.8135 92.2109 61.8135 92.2109L62.2493 93.3361C62.2493 93.3361 60.951 101.626 61.069 102.917C61.1871 104.207 60.3772 104.002 60.3772 104.002" fill="#FFDDB8"/>
<path d="M61.069 102.917C61.143 103.196 61.3152 103.438 61.5521 103.594C62.3296 103.979 63.1278 104.318 63.9427 104.61C64.5238 104.891 65.0613 105.674 64.4793 106.084C63.0618 106.531 61.5347 106.422 60.1901 105.778C59.107 105.069 59.7098 103.782 59.827 103.05C59.9441 102.317 61.0436 102.487 61.0654 102.917" fill="#FFDDB8"/>
<path d="M63.5731 104.457C63.7148 104.513 63.841 104.567 63.9427 104.616C64.5237 104.897 65.0612 105.68 64.4793 106.091C63.0612 106.536 61.534 106.425 60.1901 105.779C59.905 105.576 59.695 105.279 59.5943 104.937C59.4935 104.595 59.508 104.227 59.6354 103.895C59.7053 104.551 61.5521 105.335 62.8468 105.191C64.1415 105.048 63.5731 104.459 63.5731 104.457Z" fill="#BF3733"/>
<path d="M55.8102 104.003L56.3196 102.915C56.3196 102.915 56.2887 100.894 56.4176 99.5906C56.5466 98.2872 56.9515 93.5199 56.9515 92.6629C56.9515 91.8058 54.373 92.2109 54.373 92.2109L53.939 93.3361C53.939 93.3361 55.2364 101.623 55.1193 102.914C55.0022 104.205 55.8111 104 55.8111 104" fill="#FFDDB8"/>
<path d="M60.6523 67.1286L61.3269 66.626C61.3269 66.626 62.6552 66.8688 63.0601 67.5581C63.4651 68.2473 63.9999 76.8872 64.3685 79.42C64.7371 81.9527 65.6214 90.5945 65.0322 91.8595C63.929 94.23 52.3846 94.6135 50.7875 91.5857C49.9032 89.9091 51.1934 81.9527 51.562 79.42C51.9306 76.8872 52.4327 68.5773 52.9348 67.7259C53.4369 66.8745 54.9922 66.7573 54.9922 66.7573L55.2818 67.1323L57.9648 68.6739L60.6523 67.1286Z" fill="#BF3733"/>
<path d="M68.7166 53.1652V60.3452C68.6977 61.799 68.1225 63.1861 67.1166 64.2034C66.1106 65.2207 64.7558 65.7855 63.348 65.7744H52.5825C48.3851 65.7744 47.213 62.409 47.213 58.8814V56.5165C47.213 49.6179 47.311 42.8617 55.9473 41.3952C61.9034 40.3815 68.7166 43.8988 68.7166 51.9415V53.1605" fill="#562B20"/>
<path d="M55.8756 64.0753L55.891 64.6257C55.9001 65.4859 55.8148 66.3443 55.6368 67.1847C55.3644 68.2462 56.7962 68.6747 57.8831 68.6747C58.7477 68.7182 59.6041 68.484 60.3345 68.0042C60.408 67.7623 60.6477 66.7383 60.6477 66.7383C60.3724 65.749 60.2052 64.7308 60.1493 63.703C60.2047 62.7344 55.8756 64.0753 55.8756 64.0753Z" fill="#FFDDB8"/>
<path d="M57.9648 43.8362C60.148 43.8189 62.2491 44.6947 63.809 46.2724C65.3689 47.85 66.2607 50.0012 66.2897 52.2558V56.4754C66.2605 58.7299 65.3685 60.8808 63.8087 62.4583C62.2488 64.0357 60.1479 64.9114 57.9648 64.8941C55.7813 64.9114 53.6799 64.0353 52.12 62.4573C50.56 60.8792 49.6684 58.7276 49.6399 56.4726V52.253C49.6696 49.9988 50.5617 47.8484 52.1216 46.2714C53.6814 44.6944 55.7821 43.8189 57.9648 43.8362Z" fill="#FFDDB8"/>
<path d="M53.0728 53.3744C53.1315 53.4054 53.1956 53.4242 53.2614 53.4295C53.3272 53.4348 53.3933 53.4266 53.456 53.4053C53.7132 53.3154 53.9845 53.276 54.2559 53.2891C54.3819 53.3004 54.5062 53.3268 54.6263 53.3678C54.7516 53.3952 54.8712 53.4454 54.9795 53.516C55.0775 53.6173 55.3427 53.5451 55.3118 53.4091C55.307 53.3409 55.297 53.2731 55.2818 53.2066C55.2467 53.1247 55.1928 53.0529 55.1248 52.9974C54.9396 52.8512 54.7204 52.7581 54.4892 52.7274C54.0191 52.6293 53.5308 52.6952 53.101 52.9149C52.9611 53.0087 52.9012 53.1306 52.9593 53.2581C52.9865 53.3066 53.0257 53.3467 53.0728 53.3744Z" fill="#41231B"/>
<path d="M60.4825 53.4917C60.6641 53.3846 60.855 53.2955 61.0527 53.2253C61.2342 53.1661 61.4205 53.1237 61.6093 53.0988C61.7843 53.0762 61.9611 53.0731 62.1368 53.0894C62.211 53.0978 62.2843 53.1135 62.3556 53.1363C62.4709 53.1738 62.4355 53.185 62.5581 53.2544C62.8559 53.4213 63.3317 53.2366 63.1401 52.9412C62.8504 52.5014 62.0605 52.4574 61.543 52.5305C61.2774 52.5643 61.0205 52.6499 60.7858 52.7828C60.5388 52.9262 60.2683 53.1072 60.2174 53.3613C60.1965 53.4701 60.3709 53.5489 60.4807 53.4917" fill="#41231B"/>
<path d="M57.4019 58.09C57.4083 58.1015 57.4182 58.1105 57.43 58.1158C57.4418 58.1211 57.455 58.1223 57.4675 58.1192C57.48 58.1162 57.4913 58.109 57.4996 58.0989C57.5078 58.0887 57.5128 58.0761 57.5135 58.0628C57.5135 58.0028 57.5344 57.9334 57.5408 57.8696C57.5367 57.831 57.5417 57.792 57.5555 57.7559C57.5693 57.7198 57.5913 57.6877 57.6198 57.6624C57.7841 57.5461 58.0056 57.532 58.16 57.4045C58.3143 57.277 58.1527 57.0782 57.9966 57.0998C57.876 57.1314 57.7608 57.182 57.6552 57.2498C57.5461 57.3101 57.4527 57.3966 57.3828 57.502C57.324 57.5914 57.2924 57.6969 57.292 57.8049C57.2915 57.8641 57.3026 57.9228 57.3247 57.9775C57.3448 58.0185 57.3705 58.0564 57.401 58.09" fill="#41231B"/>
<path d="M52.7777 55.2704C52.8222 55.2526 52.8313 55.262 52.874 55.262C52.9254 55.2637 52.9767 55.2691 53.0274 55.2779C53.1015 55.2925 53.1764 55.3022 53.2517 55.307C53.2744 55.2132 53.3079 55.1225 53.3516 55.0369L53.2934 55.0163C53.2015 54.9774 53.1172 54.9215 53.0447 54.8513C52.9902 54.7931 52.8976 54.6844 52.9257 54.599C52.9929 54.3946 53.1772 54.6056 53.2617 54.6787C53.3401 54.7482 53.4369 54.7916 53.5395 54.8035H53.544C53.6673 54.7008 53.8109 54.6274 53.9646 54.5885C54.1184 54.5496 54.2786 54.5462 54.4338 54.5784C54.4529 54.5831 54.4729 54.5887 54.4919 54.5953C55.0739 54.4706 55.3345 55.3192 55.3454 55.7665C55.3941 56.0523 55.3491 56.3468 55.2176 56.6032C55.086 56.8597 54.8754 57.0635 54.619 57.1824C54.3284 57.2416 54.0268 57.1858 53.7742 57.0259C53.5215 56.8661 53.3363 56.614 53.2553 56.3197C53.1876 56.0961 53.1675 55.8601 53.1963 55.6277C53.116 55.635 53.0351 55.6312 52.9557 55.6164C52.9004 55.6117 52.8476 55.5901 52.8041 55.5546C52.8041 55.5546 52.7314 55.4852 52.7305 55.4842C52.7147 55.4691 52.7031 55.45 52.6967 55.4287C52.6904 55.4075 52.6896 55.3849 52.6944 55.3632C52.6991 55.3416 52.7094 55.3216 52.724 55.3053C52.7386 55.289 52.7572 55.277 52.7777 55.2704Z" fill="#41231B"/>
<path d="M54.3394 55.6259C54.4057 55.6924 54.4944 55.7296 54.5868 55.7296C54.6792 55.7296 54.768 55.6924 54.8342 55.6259C54.8667 55.5934 54.8925 55.5545 54.9101 55.5115C54.9277 55.4685 54.9368 55.4223 54.9368 55.3756C54.9368 55.3289 54.9277 55.2826 54.9101 55.2396C54.8925 55.1966 54.8667 55.1577 54.8342 55.1252C54.768 55.0587 54.6792 55.0215 54.5868 55.0215C54.4944 55.0215 54.4057 55.0587 54.3394 55.1252C54.3067 55.1576 54.2807 55.1964 54.2629 55.2395C54.2452 55.2825 54.236 55.3288 54.236 55.3756C54.236 55.4223 54.2452 55.4686 54.2629 55.5116C54.2807 55.5547 54.3067 55.5935 54.3394 55.6259Z" fill="#FFFFFE"/>
<path d="M63.1518 55.2704C63.1083 55.2526 63.0992 55.262 63.0556 55.262C63.0045 55.2635 62.9535 55.2685 62.9031 55.277C62.829 55.2916 62.7541 55.3013 62.6788 55.3061C62.6569 55.2127 62.6243 55.1223 62.5817 55.0369L62.637 55.0163C62.7291 54.9775 62.8134 54.9216 62.8858 54.8513C62.9448 54.7931 63.0356 54.6844 63.0048 54.599C62.9376 54.3946 62.7524 54.6056 62.6725 54.6787C62.5928 54.7485 62.4948 54.7919 62.391 54.8035H62.3864C62.263 54.6995 62.1187 54.6251 61.9641 54.5856C61.8095 54.546 61.6483 54.5423 61.4921 54.5747C61.4767 54.5793 61.4576 54.585 61.4386 54.5915C60.8566 54.4668 60.5951 55.3154 60.5842 55.7627C60.5355 56.0486 60.5805 56.343 60.712 56.5995C60.8436 56.8559 61.0542 57.0597 61.3105 57.1787C61.6004 57.2375 61.9012 57.1819 62.1533 57.0229C62.4055 56.8639 62.5907 56.6129 62.6725 56.3197C62.7404 56.0962 62.7605 55.8601 62.7315 55.6277C62.8121 55.6351 62.8933 55.6313 62.973 55.6164C63.0289 55.612 63.0824 55.5905 63.1264 55.5546L63.2 55.4852C63.216 55.47 63.2278 55.4508 63.2342 55.4293C63.2406 55.4079 63.2415 55.3851 63.2366 55.3633C63.2317 55.3415 63.2212 55.3214 63.2064 55.305C63.1915 55.2887 63.1727 55.2768 63.1518 55.2704Z" fill="#41231B"/>
<path d="M62.1894 55.6912C62.1231 55.7575 62.0343 55.7945 61.942 55.7945C61.8497 55.7945 61.761 55.7575 61.6946 55.6912C61.6622 55.6587 61.6364 55.6199 61.6188 55.577C61.6012 55.534 61.5921 55.4879 61.5921 55.4413C61.5921 55.3946 61.6012 55.3485 61.6188 55.3056C61.6364 55.2626 61.6622 55.2238 61.6946 55.1914C61.7606 55.1244 61.8495 55.0869 61.942 55.0869C62.0346 55.0869 62.1234 55.1244 62.1894 55.1914C62.2217 55.2239 62.2474 55.2627 62.265 55.3056C62.2825 55.3486 62.2915 55.3947 62.2915 55.4413C62.2915 55.4879 62.2825 55.534 62.265 55.5769C62.2474 55.6198 62.2217 55.6587 62.1894 55.6912Z" fill="#FFFFFE"/>
<path d="M53.5459 59.1513C54.4093 59.1513 55.1148 58.8972 55.1148 58.5887C55.1148 58.2802 54.4102 58.0195 53.5459 58.0195C52.6815 58.0195 51.9778 58.2736 51.9778 58.5822C51.9778 58.8907 52.6824 59.1448 53.5459 59.1448" fill="#D76051"/>
<path d="M62.3828 59.1513C63.2472 59.1513 63.9518 58.8972 63.9518 58.5887C63.9518 58.2802 63.2472 58.0195 62.3828 58.0195C61.5185 58.0195 60.8148 58.2736 60.8148 58.5822C60.8148 58.8907 61.5194 59.1448 62.3828 59.1448" fill="#D76051"/>
<path d="M52.6533 51.8037L49.1795 50.084L48.6429 54.8503H49.6417C49.6522 54.0344 49.9749 53.2559 50.5394 52.6849C51.1038 52.1139 51.8641 51.7968 52.6542 51.8028" fill="#562B20"/>
<path d="M63.2772 51.8037L66.75 50.084L67.2875 54.8503H66.2888C66.2783 54.0346 65.9556 53.2564 65.3914 52.6856C64.8271 52.1147 64.067 51.7977 63.2772 51.8037" fill="#562B20"/>
<path d="M55.5669 59.8123C55.5669 59.8123 60.0848 59.5967 60.9038 59.9164C61.7228 60.2362 60.468 62.8861 57.7106 62.6892C54.9532 62.4923 54.0861 59.8845 55.5669 59.8123Z" fill="#FFFFFE"/>
<path d="M48.9163 51.8025H67.0152L66.001 46.015L57.9657 42.7612L51.0045 45.3521L48.9163 51.8025Z" fill="#562B20"/>
<path d="M55.763 66.6998C56.003 67.0774 56.3326 67.3851 56.7204 67.5938C57.1082 67.8024 57.5413 67.905 57.9784 67.8916C58.4889 67.8154 58.9786 67.6304 59.4162 67.3484C59.8538 67.0664 60.2299 66.6935 60.5207 66.2535C60.7313 65.9553 61.2906 66.216 61.326 66.6285C61.3614 67.0411 60.3472 70.0896 59.5782 70.0708C58.8092 70.0521 58.4578 69.3816 58.1083 69.2513C57.7587 69.121 57.3383 69.8139 56.7255 70.1074C56.1126 70.4009 54.8533 67.0908 54.9931 66.7561C55.1329 66.4213 55.4652 66.0481 55.763 66.6998Z" fill="#FFFFFE"/>
<path d="M55.1184 102.917C55.0445 103.196 54.8727 103.438 54.6363 103.594C53.8582 103.979 53.0598 104.318 52.2447 104.61C51.6637 104.892 51.1262 105.678 51.7081 106.089C53.1261 106.534 54.6533 106.424 55.9973 105.779C57.0868 105.069 56.4803 103.782 56.3604 103.05C56.2406 102.318 55.1402 102.485 55.1184 102.917Z" fill="#FFDDB8"/>
<path d="M52.6152 104.457C52.4735 104.513 52.3473 104.566 52.2447 104.615C51.6637 104.892 51.1262 105.676 51.7081 106.09C53.1261 106.535 54.6533 106.424 55.9973 105.779C56.2825 105.576 56.4926 105.279 56.5934 104.937C56.6941 104.595 56.6796 104.227 56.552 103.895C56.483 104.551 54.6353 105.335 53.3424 105.191C52.0495 105.048 52.6125 104.457 52.6152 104.457Z" fill="#BF3733"/>
<path d="M65.2701 41.9081C65.2701 41.9081 68.2663 42.3938 68.417 42.9396C68.5677 43.4853 67.2902 44.0817 67.066 44.5215C66.8417 44.9612 66.7491 46.2506 66.0001 46.0283C65.251 45.8061 64.1869 43.8201 63.9681 43.4844C63.7493 43.1487 64.3966 41.8087 65.2701 41.9081Z" fill="#BF3733"/>
<path d="M63.9635 41.2245C63.9635 41.2245 62.5108 38.8831 61.7336 38.8259C60.9564 38.7687 61.2815 40.1912 60.6895 40.6816C60.0975 41.172 59.4365 41.805 60.7195 42.2016C62.0024 42.5983 63.1055 42.7642 63.2789 42.5626C63.4524 42.361 64.2595 41.699 63.9635 41.2273" fill="#BF3733"/>
<path d="M64.2877 40.9187C64.2877 40.9187 63.6276 40.6205 63.2971 41.0949C62.9666 41.5694 62.3955 42.6647 62.7841 43.0294C63.1727 43.3942 63.8482 43.7627 64.2768 43.3942C64.7053 43.0257 66.109 41.6444 64.2877 40.9187Z" fill="#BF3733"/>
<path d="M66.1363 85.7139C66.1363 85.7139 65.794 86.2418 65.6705 86.449C65.6705 86.6966 65.5643 87.1889 65.6614 87.1317C65.7077 87.1035 65.9075 87.0876 65.991 86.6122C66.0343 86.7832 66.1039 86.9459 66.1971 87.0942C65.9482 87.3916 65.7295 87.7146 65.5443 88.0581C65.5352 88.2063 65.6551 88.2513 65.8103 88.1566C65.9656 88.0619 66.0891 87.9812 66.0891 87.9812C66.1602 88.0072 66.2364 88.0144 66.3109 88.0023C66.3854 87.9902 66.4559 87.9591 66.5158 87.9118C66.8999 87.5986 67.5863 87.6183 67.5145 86.7341C67.4909 86.4743 67.2694 86.1302 67.2776 86.0008L66.1363 85.7139Z" fill="#FFDDB8"/>
<path d="M66.1354 85.7139C65.8995 85.8679 65.7202 86.0989 65.626 86.3703C65.6085 86.5796 65.5763 86.7874 65.5298 86.9919C65.4853 87.1579 65.498 87.4402 65.7359 87.2311C65.8813 87.0573 65.9705 86.8409 65.991 86.6122C66.0343 86.7832 66.1039 86.9459 66.1971 87.0942C65.9482 87.3916 65.7294 87.7146 65.5443 88.0581C65.5352 88.2063 65.6551 88.2513 65.8103 88.1566C65.9656 88.0619 66.09 87.9812 66.09 87.9812C66.1617 88.0019 66.237 88.0064 66.3106 87.9944C66.3842 87.9825 66.4545 87.9543 66.5167 87.9118C67.0442 87.5546 67.234 87.7862 67.4864 87.156C67.4047 87.1917 67.2312 87.3811 66.9843 87.1786C66.8626 87.1764 66.7412 87.1651 66.6211 87.1448C66.3097 87.0482 66.1944 86.4687 66.188 86.2202C66.2067 86.0513 66.2849 85.8955 66.4077 85.7823L66.1354 85.7139Z" fill="#FFDDB8"/>
<path d="M65.991 85.7557C66.4575 85.8465 66.9181 85.9671 67.3702 86.1167C67.3702 86.1167 67.5027 86.1805 67.5899 86.0089C67.6771 85.8373 67.8468 85.4772 67.7334 85.3731C67.2191 85.1498 66.6803 84.9923 66.129 84.9043C65.991 84.9381 65.8721 85.4453 65.8648 85.5476C65.859 85.592 65.8685 85.6372 65.8915 85.6752C65.9146 85.7132 65.9498 85.7417 65.991 85.7557Z" fill="#BF3733"/>
<path d="M11.1904 108.958C17.3544 108.958 22.3808 108.234 22.3808 107.347C22.3808 106.46 17.3535 105.735 11.1904 105.735C5.02727 105.735 0 106.46 0 107.347C0 108.234 5.02636 108.958 11.1904 108.958Z" fill="#848988"/>
<path d="M8.86787 104.623C8.86787 104.623 8.837 102.588 8.9632 101.276C9.08941 99.9644 9.41717 93.9622 9.41717 93.1004C9.41717 92.2387 7.35887 92.3878 7.35887 92.3878L6.64341 93.2214C6.64341 93.2214 7.80739 103.326 7.69118 104.627C7.61882 104.905 7.45064 105.147 7.21814 105.306C6.45791 105.697 5.67637 106.041 4.87747 106.338C4.30819 106.619 3.78249 107.409 4.35086 107.822C5.73851 108.27 7.23886 108.158 8.55009 107.51C9.61238 106.796 9.02222 105.501 8.90419 104.763C8.89685 104.716 8.88468 104.67 8.86787 104.626" fill="#FFDDB8"/>
<path d="M7.61582 104.839C7.52016 105.024 7.3844 105.185 7.21905 105.307C6.45844 105.696 5.6766 106.04 4.87747 106.335C4.30819 106.616 3.78249 107.406 4.35086 107.819C5.73851 108.267 7.23886 108.156 8.55009 107.507C9.61238 106.793 9.02222 105.498 8.90419 104.76C8.73188 104.926 8.50873 105.025 8.27331 105.039C8.03788 105.054 7.805 104.983 7.61491 104.839" fill="#196597"/>
<path d="M4.14839 107.125C4.09739 107.247 4.08984 107.383 4.12707 107.51C4.16429 107.638 4.24389 107.747 4.35177 107.819C5.73903 108.267 7.239 108.156 8.55009 107.508C8.77463 107.361 8.95271 107.15 9.06242 106.9C9.17212 106.65 9.20864 106.373 9.16749 106.102C9.16749 106.102 7.8537 108.583 4.14839 107.125Z" fill="#FFFFFE"/>
<path d="M7.74201 68.6891L8.18055 67.7627C2.55131 69.6944 0.380421 77.3329 2.19358 85.3624C2.22942 85.5613 2.31379 85.7475 2.43872 85.9034C2.83549 86.316 3.37572 85.9738 3.30399 85.4149C2.75923 81.1952 2.22445 75.9141 7.45147 72.1764L7.74201 68.6891Z" fill="#FFDDB8"/>
<path d="M13.226 104.623C13.226 104.623 13.2587 102.587 13.1352 101.276C13.0117 99.965 12.6812 93.9628 12.6812 93.1001C12.6812 92.2374 14.7368 92.3874 14.7368 92.3874L15.4522 93.221C15.4522 93.221 14.2883 103.326 14.4063 104.626C14.4778 104.905 14.6458 105.147 14.8784 105.306C15.6394 105.695 16.4216 106.039 17.2209 106.335C17.7902 106.616 18.3168 107.406 17.7475 107.819C16.3602 108.267 14.8601 108.155 13.5492 107.507C12.486 106.792 13.0771 105.497 13.1942 104.759C13.2017 104.713 13.2139 104.667 13.2305 104.623" fill="#FFDDB8"/>
<path d="M14.4798 104.839C14.5756 105.024 14.711 105.184 14.8757 105.307C15.6363 105.697 16.4182 106.042 17.2173 106.339C17.7866 106.62 18.3132 107.41 17.7439 107.823C16.3561 108.27 14.856 108.157 13.5456 107.507C12.4815 106.792 13.0725 105.497 13.1933 104.76C13.3657 104.926 13.5888 105.025 13.8242 105.039C14.0596 105.053 14.2924 104.983 14.4826 104.839" fill="#196597"/>
<path d="M17.9464 107.125C17.9974 107.246 18.0051 107.383 17.9681 107.51C17.931 107.637 17.8516 107.747 17.7439 107.819C16.3567 108.267 14.8566 108.156 13.5456 107.508C13.321 107.361 13.143 107.15 13.0333 106.9C12.9235 106.65 12.887 106.373 12.9282 106.102C12.9282 106.102 14.2429 108.583 17.9464 107.125Z" fill="#FFFFFE"/>
<path d="M11.0033 83.9521L16.5481 84.2466C16.7278 84.8036 16.7979 85.3922 16.7542 85.9776C16.6807 86.9528 16.2485 92.579 16.1405 93.1416C16.0324 93.7042 15.7773 93.7136 15.4641 93.8074C14.4401 93.9776 13.403 94.0498 12.3662 94.023C11.6589 93.948 11.569 91.2662 11.4255 90.7223C11.2821 90.1785 11.0024 90.2347 11.0024 90.2347C11.0024 90.2347 10.7246 90.1785 10.5802 90.7223C10.4359 91.2662 10.346 93.948 9.6387 94.023C8.60214 94.0498 7.56541 93.9776 6.54171 93.8074C6.22666 93.7136 5.97334 93.7033 5.8653 93.1416C5.75725 92.5799 5.32416 86.9528 5.25244 85.9776C5.2091 85.3921 5.27948 84.8036 5.45945 84.2466L11.0033 83.9521Z" fill="#562A1F"/>
<path d="M14.2656 68.6891L13.8243 67.7627C19.4535 69.6944 21.6244 77.3329 19.8122 85.3624C19.7764 85.5613 19.692 85.7476 19.567 85.9034C19.1703 86.316 18.63 85.9738 18.7009 85.4149C19.2456 81.1952 19.7813 75.9141 14.5534 72.1764L14.2656 68.6891Z" fill="#FFDDB8"/>
<path d="M9.39264 65.4881L9.40444 65.9344C9.41153 66.6276 9.34455 67.3194 9.2047 67.9974C8.9877 68.8554 10.1126 69.2023 10.9706 69.2023C11.6527 69.2386 12.3284 69.0502 12.9 68.6641C12.9581 68.4681 13.1461 67.6401 13.1461 67.6401C12.928 66.8389 12.7955 66.0153 12.7511 65.1843C12.7938 64.4013 9.39173 65.4862 9.39173 65.4862" fill="#FFDDB8"/>
<path d="M11.0033 46.3374C13.1707 46.3518 15.2445 47.2513 16.7718 48.8396C18.2991 50.4278 19.1558 52.5758 19.1548 54.8142V57.8608C19.1558 60.0992 18.2991 62.2472 16.7718 63.8354C15.2445 65.4237 13.1707 66.3232 11.0033 66.3376C8.83597 66.3232 6.76216 65.4237 5.23485 63.8354C3.70754 62.2472 2.85083 60.0992 2.85184 57.8608V54.8142C2.85083 52.5758 3.70754 50.4278 5.23485 48.8396C6.76216 47.2513 8.83597 46.3518 11.0033 46.3374" fill="#FFDDB8"/>
<path d="M6.21305 54.7411C6.27034 54.7725 6.33324 54.7914 6.39789 54.7967C6.46254 54.802 6.52756 54.7936 6.58894 54.772C6.84055 54.682 7.10652 54.6425 7.37249 54.6557C7.4962 54.6672 7.61813 54.6939 7.73567 54.7354C7.85785 54.7633 7.97413 54.8138 8.07887 54.8845C8.1742 54.9858 8.43569 54.9136 8.40391 54.7767C8.39995 54.7079 8.39085 54.6396 8.37667 54.5723C8.34232 54.4907 8.28973 54.4187 8.22323 54.3622C8.04241 54.2153 7.82664 54.1214 7.59857 54.0903C7.13715 53.9912 6.6568 54.0573 6.23666 54.2778C6.10046 54.3716 6.04145 54.4954 6.09774 54.6248C6.12521 54.6737 6.16508 54.7139 6.21305 54.7411Z" fill="#41231B"/>
<path d="M13.4693 54.86C13.6465 54.7525 13.8331 54.6627 14.0268 54.5918C14.2043 54.5321 14.3866 54.4891 14.5715 54.4633C14.7432 54.4408 14.9167 54.4377 15.0891 54.4539C15.1618 54.4624 15.2335 54.4781 15.3034 54.5008C15.4159 54.5393 15.3814 54.5505 15.5013 54.6199C15.7927 54.7878 16.2594 54.6021 16.0715 54.3048C15.7891 53.8622 15.0146 53.8182 14.5071 53.8913C14.2469 53.925 13.9956 54.0107 13.7671 54.1436C13.5247 54.2898 13.2596 54.4727 13.2096 54.7287C13.1888 54.8384 13.3594 54.9162 13.4675 54.86" fill="#41231B"/>
<path d="M10.4513 59.4883C10.4575 59.4998 10.4671 59.5089 10.4788 59.5142C10.4904 59.5195 10.5035 59.5207 10.5158 59.5176C10.5282 59.5145 10.5393 59.5073 10.5473 59.4971C10.5553 59.4869 10.5599 59.4742 10.5603 59.4611C10.563 59.4001 10.5821 59.3354 10.5866 59.2679C10.593 59.1854 10.5957 59.1113 10.6656 59.0597C10.8263 58.9406 11.0433 58.9275 11.1949 58.799C11.3466 58.6706 11.1877 58.469 11.0333 58.4915C10.9143 58.5225 10.8008 58.5732 10.6974 58.6415C10.5879 58.7021 10.4944 58.7893 10.425 58.8956C10.3697 58.9871 10.3419 59.0935 10.3451 59.2013C10.3443 59.2611 10.3551 59.3204 10.3769 59.3757C10.3963 59.417 10.4214 59.4552 10.4513 59.4892" fill="#41231B"/>
<path d="M6.87584 56.0414C7.08242 55.9336 7.31807 55.9006 7.54499 55.9476L7.6031 55.9664C8.17329 55.8407 8.42751 56.6959 8.43841 57.1451C8.48796 57.4297 8.44569 57.7233 8.31809 57.9808C8.19048 58.2383 7.9846 58.4454 7.73203 58.5704C7.44438 58.6287 7.14602 58.5721 6.89725 58.4119C6.64848 58.2518 6.46786 58.0001 6.39191 57.7077C6.34512 57.5581 6.32182 57.4017 6.3229 57.2445C6.2894 57.0099 6.32406 56.7704 6.4225 56.5562C6.52093 56.342 6.67871 56.1629 6.87584 56.0414Z" fill="#41231B"/>
<path d="M7.45329 57.0075C7.48494 57.0405 7.52263 57.0667 7.56416 57.0846C7.6057 57.1025 7.65025 57.1117 7.69525 57.1117C7.74025 57.1117 7.78481 57.1025 7.82634 57.0846C7.86787 57.0667 7.90556 57.0405 7.93722 57.0075C7.98542 56.9578 8.01831 56.8945 8.03176 56.8256C8.0452 56.7567 8.0386 56.6852 8.01278 56.6201C7.98696 56.555 7.94307 56.4993 7.88665 56.46C7.83023 56.4206 7.76379 56.3994 7.69571 56.3989C7.60476 56.3992 7.5176 56.4366 7.45329 56.503C7.42117 56.5361 7.39568 56.5754 7.3783 56.6187C7.36091 56.662 7.35196 56.7084 7.35196 56.7553C7.35196 56.8021 7.36091 56.8485 7.3783 56.8918C7.39568 56.9351 7.42117 56.9744 7.45329 57.0075Z" fill="#FFFFFE"/>
<path d="M15.1799 56.0689C14.963 55.938 14.7065 55.8955 14.4608 55.9498C14.4417 55.9545 14.4227 55.9601 14.4045 55.9667C13.8343 55.8411 13.5792 56.6962 13.5674 57.1445C13.5182 57.4292 13.5608 57.7228 13.6885 57.9802C13.8162 58.2376 14.0221 58.4447 14.2747 58.5698C14.5623 58.6281 14.8607 58.5715 15.1094 58.4113C15.3582 58.2512 15.5388 57.9995 15.6148 57.7071C15.6617 57.5469 15.6849 57.3803 15.6838 57.2129C15.7029 56.4318 15.4377 56.2199 15.1799 56.0689Z" fill="#41231B"/>
<path d="M15.1408 57.0739C15.0926 57.1237 15.0311 57.1575 14.9642 57.1712C14.8973 57.1849 14.8279 57.1778 14.7649 57.1508C14.7019 57.1238 14.6481 57.0781 14.6102 57.0195C14.5723 56.961 14.5521 56.8921 14.5521 56.8217C14.5521 56.7512 14.5723 56.6824 14.6102 56.6238C14.6481 56.5652 14.7019 56.5195 14.7649 56.4925C14.8279 56.4655 14.8973 56.4584 14.9642 56.4721C15.0311 56.4858 15.0926 56.5197 15.1408 56.5694C15.2048 56.6367 15.2407 56.7273 15.2407 56.8217C15.2407 56.916 15.2048 57.0066 15.1408 57.0739Z" fill="#FFFFFE"/>
<path d="M6.67701 60.5583C7.52322 60.5583 8.21325 60.3023 8.21325 59.9881C8.21325 59.674 7.52322 59.4189 6.67701 59.4189C5.83081 59.4189 5.14078 59.6749 5.14078 59.9881C5.14078 60.3013 5.83081 60.5583 6.67701 60.5583Z" fill="#D66051"/>
<path d="M15.3306 60.5583C16.1768 60.5583 16.8668 60.3023 16.8668 59.9881C16.8668 59.674 16.1768 59.4189 15.3306 59.4189C14.4844 59.4189 13.7943 59.6749 13.7943 59.9881C13.7943 60.3013 14.4853 60.5583 15.3306 60.5583Z" fill="#D66051"/>
<path d="M8.65541 61.2232C8.65541 61.2232 13.0807 61.0066 13.8815 61.3282C14.6823 61.6499 13.4548 64.3185 10.7546 64.1198C8.05435 63.921 7.20543 61.2963 8.65541 61.2232Z" fill="#FFFFFE"/>
<path d="M18.5211 85.7686C18.5211 85.7686 18.1861 86.2993 18.0662 86.5084C18.0662 86.7569 17.9609 87.2529 18.0571 87.1957C18.1034 87.1676 18.2996 87.1517 18.3795 86.6734C18.4203 86.8451 18.4871 87.009 18.5774 87.1592C18.3346 87.4592 18.1217 87.7837 17.9418 88.1278C17.9346 88.2778 18.0499 88.3219 18.2033 88.2272C18.3568 88.1325 18.4757 88.0509 18.4757 88.0509C18.5455 88.0774 18.6208 88.0849 18.6942 88.0727C18.7676 88.0606 18.8368 88.0292 18.8952 87.9815C19.271 87.6655 19.9393 87.6862 19.8703 86.8C19.8485 86.5337 19.6342 86.1868 19.6388 86.0574L18.5211 85.7686Z" fill="#FFDDB8"/>
<path d="M18.5211 85.7686C18.289 85.9244 18.1134 86.1552 18.0217 86.4249C18.0057 86.6357 17.9753 86.845 17.9309 87.0513C17.8873 87.2192 17.901 87.5033 18.1325 87.2933C18.2742 87.1176 18.3604 86.9013 18.3794 86.6734C18.4213 86.8456 18.4893 87.0099 18.581 87.1601C18.3382 87.4602 18.1253 87.7847 17.9454 88.1288C17.9382 88.2788 18.0535 88.3229 18.2069 88.2282C18.3604 88.1334 18.4793 88.0519 18.4793 88.0519C18.5498 88.0727 18.6239 88.0772 18.6962 88.0651C18.7686 88.0529 18.8374 88.0244 18.8979 87.9815C19.4145 87.6215 19.6015 87.8559 19.8467 87.2211C19.7659 87.2558 19.597 87.447 19.3555 87.2436C19.2338 87.2414 19.1124 87.2301 18.9923 87.2098C18.6918 87.1113 18.5783 86.529 18.5719 86.2787C18.5896 86.1094 18.6661 85.9525 18.7871 85.837L18.5211 85.7686Z" fill="#FFDDB8"/>
<path d="M18.5029 85.8408C18.8746 85.9148 19.2412 86.0135 19.6006 86.1361C19.6006 86.1361 19.706 86.1877 19.7759 86.048C19.8458 85.9083 19.9801 85.6129 19.8903 85.5238C19.482 85.342 19.0531 85.2144 18.6137 85.144C18.5029 85.1712 18.4094 85.5866 18.404 85.6692C18.3985 85.7052 18.4055 85.742 18.4235 85.7734C18.4416 85.8047 18.4697 85.8285 18.5029 85.8408Z" fill="#BF3634"/>
<path d="M19.1739 55.6589C19.1739 55.6589 20.5494 55.1816 21.057 56.1362C21.5645 57.0907 20.4051 60.1008 19.005 58.7458C17.605 57.3908 19.1739 55.6589 19.1739 55.6589Z" fill="#FFDDB8"/>
<path d="M3.32035 55.5361C3.03435 55.3692 1.35738 54.9416 1.2339 55.9928C1.11042 57.0439 1.34921 58.5311 2.01927 58.8284C2.68933 59.1256 4.6523 58.2301 3.32398 55.5352" fill="#FFDDB8"/>
<path d="M10.9752 50.8671C8.37032 50.9224 5.77089 50.371 4.70042 52.252C3.66007 53.9515 3.16243 55.9453 3.27768 57.9523C3.27768 57.9523 3.07158 58.0039 2.9944 57.6991C2.91723 57.3944 2.5368 55.3727 2.12913 55.3099C1.8395 48.128 3.56913 46.0604 6.31202 45.3778C9.05491 44.6951 7.28987 45.1508 7.74566 45.0646C9.10282 46.817 10.192 48.7739 10.9752 50.8671Z" fill="#41231B"/>
<path d="M6.86041 40.7017C6.86041 40.7017 2.20812 47.1146 8.08704 50.2662C11.3157 51.9963 15.9861 49.5911 17.5006 52.2541C18.5415 53.9536 19.0395 55.9478 18.9242 57.9553C18.9242 57.9553 19.1312 58.0069 19.2084 57.7022C19.2856 57.3974 19.6624 55.6111 20.071 55.5454C20.071 55.5454 21.1242 45.8309 16.1405 44.5912C11.1568 43.3516 8.20961 43.3975 6.86041 40.7017Z" fill="#562A1F"/>
<path d="M12.989 67.6401C12.7739 67.9834 12.4798 68.2663 12.133 68.4634C11.7862 68.6606 11.3974 68.766 11.0015 68.7701C10.6064 68.7651 10.2187 68.6594 9.87271 68.4622C9.52675 68.2651 9.23334 67.9827 9.0186 67.6401C5.38138 67.6739 5.56479 73.4417 5.56479 73.4417C5.56479 73.4417 5.28151 81.0005 5.04726 82.4277C4.96609 82.8141 4.98873 83.2162 5.11275 83.5904C5.23676 83.9645 5.45744 84.2966 5.75092 84.5506C7.32075 86.0416 14.6869 86.0416 16.2576 84.5506C16.5509 84.2964 16.7715 83.9644 16.8955 83.5903C17.0195 83.2161 17.0422 82.8142 16.9613 82.4277C16.7261 81.0005 16.4428 73.4426 16.4428 73.4426C16.4428 73.4426 16.6262 67.6739 12.989 67.6401Z" fill="#196597"/>
<path d="M12.5913 68.4462C13.4614 68.6881 14.2523 69.1675 14.8812 69.834C16.4247 71.1618 16.481 74.424 16.481 74.424C16.9923 74.997 17.4218 75.6424 17.7566 76.3407C17.788 76.3688 17.8281 76.3843 17.8697 76.3843C17.9112 76.3843 17.9513 76.3688 17.9827 76.3407C18.3695 75.8062 19.9175 75.3711 19.9802 75.1967C20.0196 75.0919 20.0228 74.9763 19.9892 74.8694C19.3728 71.6409 16.4156 67.802 13.127 67.5835C12.9632 67.8805 12.7844 68.1685 12.5913 68.4462" fill="#FFFFFE"/>
<path d="M13.0426 67.472C12.8151 67.8199 12.5125 68.1084 12.1586 68.3149C11.8047 68.5214 11.4092 68.6402 11.0033 68.6619C10.6197 68.6553 10.2444 68.5455 9.91433 68.3434C9.58428 68.1413 9.31092 67.8539 9.12118 67.5095C8.89766 67.486 8.67193 67.5181 8.46292 67.6033C8.28133 67.7346 9.03946 68.9817 10.2298 69.2161C10.892 69.3813 11.5883 69.3183 12.2126 69.0365C12.8369 68.7548 13.3547 68.2699 13.6872 67.6558C13.6872 67.6558 13.1579 67.2516 13.0426 67.472Z" fill="#FFFFFE"/>
<path d="M3.48377 85.7686C3.48377 85.7686 3.81971 86.2993 3.93774 86.5084C3.93774 86.7569 4.04306 87.2529 3.94682 87.1957C3.90052 87.1676 3.70349 87.1517 3.62359 86.6734C3.58172 86.8456 3.51369 87.0099 3.42203 87.1601C3.66479 87.4602 3.87772 87.7847 4.05759 88.1288C4.06485 88.2788 3.94955 88.3229 3.7961 88.2282C3.64266 88.1334 3.52372 88.0519 3.52372 88.0519C3.45469 88.077 3.38064 88.0837 3.30843 88.0714C3.23622 88.0591 3.16817 88.0282 3.11061 87.9815C2.73472 87.6655 2.06284 87.6862 2.13548 86.8C2.15636 86.5337 2.37154 86.1868 2.36609 86.0574L3.48377 85.7686Z" fill="#FFDDB8"/>
<path d="M3.48467 85.7686C3.71677 85.9244 3.89237 86.1552 3.98404 86.4249C4.00034 86.6356 4.03068 86.8449 4.07484 87.0513C4.11751 87.2192 4.10571 87.5033 3.87327 87.2933C3.73155 87.1176 3.64536 86.9013 3.62631 86.6734C3.58444 86.8456 3.51641 87.0099 3.42475 87.1601C3.66751 87.4602 3.88044 87.7847 4.06031 88.1288C4.06757 88.2788 3.95226 88.3229 3.79882 88.2282C3.64538 88.1334 3.52644 88.0519 3.52644 88.0519C3.45596 88.0727 3.3819 88.0772 3.30954 88.0651C3.23718 88.0529 3.16832 88.0244 3.10788 87.9815C2.59489 87.6215 2.40786 87.8549 2.1618 87.2211C2.24261 87.2558 2.41149 87.447 2.653 87.2436C2.77469 87.2414 2.89607 87.2301 3.01618 87.2098C3.31761 87.1113 3.43201 86.529 3.43746 86.2787C3.41873 86.1087 3.34061 85.9517 3.21774 85.837L3.48467 85.7686Z" fill="#FFDDB8"/>
<path d="M3.50192 85.8408C3.13059 85.9149 2.76424 86.0136 2.40513 86.1361C2.40513 86.1361 2.2989 86.1877 2.22899 86.048C2.15908 85.9083 2.0247 85.6129 2.11459 85.5238C2.52285 85.342 2.9518 85.2144 3.39115 85.144C3.50192 85.1703 3.59544 85.5848 3.59998 85.6673C3.60541 85.7033 3.59849 85.7402 3.58043 85.7715C3.56236 85.8028 3.53427 85.8266 3.50101 85.8389" fill="#BF3634"/>
<path d="M9.41353 68.4462C8.54347 68.6881 7.75252 69.1675 7.1237 69.834C5.5802 71.1618 5.52482 74.424 5.52482 74.424C5.01292 74.9969 4.58277 75.6423 4.24734 76.3407C4.21597 76.3688 4.17583 76.3843 4.1343 76.3843C4.09277 76.3843 4.05264 76.3688 4.02127 76.3407C3.63448 75.8062 2.08644 75.3664 2.02016 75.1967C1.9807 75.092 1.97718 74.9765 2.01018 74.8694C2.63211 71.6409 5.58928 67.802 8.87784 67.5835C9.04169 67.8805 9.22049 68.1685 9.41353 68.4462Z" fill="#FFFFFE"/>
</g>
<defs>
<clipPath id="clip0">
<rect width="68.7166" height="108.577" fill="white" transform="translate(0 0.380371)"/>
</clipPath>
</defs>
</svg>
