<svg width="37" height="116" viewBox="0 0 37 116" fill="none" xmlns="http://www.w3.org/2000/svg">
<g clip-path="url(#clip0)">
<path d="M21.3793 115.155C29.4654 115.155 36.0607 114.437 36.0607 113.555C36.0607 112.674 29.4654 111.955 21.3793 111.955C13.2932 111.955 6.69788 112.674 6.69788 113.555C6.69788 114.437 13.2932 115.155 21.3793 115.155Z" fill="#848988"/>
<path d="M17.4643 31.9099C12.9509 32.4847 7.22721 43.7708 5.36684 47.035C3.79065 49.8031 3.71711 49.9137 3.91232 52.4455C4.23555 56.6398 4.91105 63.4766 5.3741 64.0111C5.83715 64.5456 7.41516 64.1677 6.9966 62.9534C6.57803 61.739 6.30838 55.6487 6.45183 51.4018C6.58439 51.1787 5.59564 52.5646 6.85496 50.7792C8.11427 48.9938 13.1261 42.5087 13.1261 42.5087C12.5178 40.6905 19.0232 31.7148 17.4643 31.9099Z" fill="#16334A"/>
<path d="M25.6802 32.0757C29.7714 33.08 32.3808 42.2816 34.9721 49.8095C36.0117 52.8289 36.393 52.5776 35.7329 55.0315C34.6434 59.0899 32.8393 65.32 32.2909 65.756C32.1367 65.8524 31.9591 65.9017 31.7789 65.8983C31.5986 65.8949 31.4229 65.8388 31.2722 65.7366C31.1215 65.6344 31.0019 65.4902 30.9271 65.3207C30.8524 65.1513 30.8257 64.9634 30.85 64.7789C31.0089 63.9087 33.2306 58.0171 33.868 53.8181C33.7772 53.5734 33.6864 53.3427 33.5857 53.1289C31.8669 49.3519 28.5094 43.5081 28.5094 43.5081C28.5094 43.5081 23.7735 32.1207 25.6802 32.0757Z" fill="#16334A"/>
<path d="M26.4193 108.302C26.5884 108.621 26.826 108.895 27.1139 109.105C28.4456 109.773 29.8134 110.362 31.2105 110.869C32.2092 111.348 33.1271 112.709 32.132 113.418C31.1369 114.127 26.6444 114.109 24.7804 112.883C22.9164 111.656 23.9569 109.432 24.163 108.167C24.4673 108.453 24.8574 108.622 25.268 108.647C25.6787 108.671 26.085 108.55 26.4193 108.302Z" fill="#562A1F"/>
<path d="M32.487 112.226C32.5771 112.435 32.5911 112.671 32.5264 112.89C32.4617 113.109 32.3226 113.297 32.1348 113.418C31.136 114.126 26.6444 114.109 24.7804 112.882C24.3907 112.634 24.0805 112.273 23.8887 111.844C23.697 111.414 23.6323 110.936 23.7027 110.469C23.7027 110.469 26.0034 114.728 32.487 112.226Z" fill="#FFFFFE"/>
<path d="M16.5917 108.401C16.4234 108.719 16.1863 108.994 15.899 109.203C14.5669 109.871 13.1988 110.46 11.8014 110.966C10.8045 111.447 9.88385 112.809 10.8799 113.517C11.8759 114.225 16.3675 114.207 18.2278 112.98C20.0882 111.754 19.0559 109.531 18.8489 108.266C18.5445 108.552 18.1543 108.721 17.7434 108.746C17.3326 108.77 16.926 108.649 16.5917 108.401Z" fill="#562A1F"/>
<path d="M10.5249 112.324C10.435 112.534 10.4215 112.77 10.4867 112.989C10.5519 113.208 10.6915 113.396 10.8799 113.517C11.8786 114.227 16.3675 114.208 18.2278 112.981C18.6181 112.733 18.9289 112.372 19.1213 111.943C19.3137 111.514 19.379 111.035 19.3092 110.568C19.3092 110.568 17.0085 114.827 10.5249 112.324Z" fill="#FFFFFE"/>
<path d="M21.6462 62.8218L12.831 63.5963C11.2167 63.7379 14.3337 82.6832 14.6533 84.5652C14.7967 85.4147 16.0152 108.056 16.5663 108.57C17.1174 109.084 18.1098 109.613 18.7908 108.784C19.4717 107.955 19.0577 78.9183 19.5916 76.665C20.4232 73.1543 22.5642 73.1543 23.3958 76.665C23.9288 78.9155 23.512 107.953 24.1975 108.784C24.883 109.615 25.8691 109.081 26.422 108.57C26.9749 108.059 28.1907 85.4175 28.335 84.5652C28.6537 82.6841 30.8836 64.0605 29.2747 63.842L21.6462 62.8218Z" fill="#16334A"/>
<path d="M18.3513 29.2513L18.3704 30.0736C18.3812 31.3529 18.2797 32.6306 18.0671 33.891C17.7384 35.4757 19.4472 36.1152 20.7392 36.1152C22.0312 36.1152 23.5647 35.4757 23.6555 35.11C23.7463 34.7443 24.0268 33.2196 24.0268 33.2196C23.6978 31.733 23.4994 30.2187 23.434 28.6952C23.4993 27.2502 18.3495 29.2503 18.3495 29.2503" fill="#FFDDB8"/>
<path d="M23.7735 31.6221C22.7521 34.8346 19.8031 34.5477 18.4466 31.7955C12.3916 31.8602 12.6957 42.9345 12.6957 42.9345C12.6957 42.9345 12.338 59.2645 11.9467 62.0035C11.5554 64.7426 12.3807 65.0979 13.1179 65.5246C16.3166 66.7239 26.8469 68.6706 29.4609 65.8059C29.9681 65.2801 30.3407 64.6322 30.545 63.9206C30.7493 63.209 30.7789 62.4561 30.6312 61.7297C30.2408 58.9888 29.5217 42.7563 29.5217 42.7563C29.5217 42.7563 29.8304 31.6858 23.7735 31.6221Z" fill="#1A4A6F"/>
<path d="M23.7735 31.6221C22.7512 34.8346 19.8022 34.5477 18.4457 31.7955C17.7827 31.7954 17.1285 31.9526 16.5336 32.255H16.5336C16.5336 32.255 20.7192 50.0826 20.8518 50.2073C20.9843 50.332 21.0415 50.2167 21.0415 50.2167C22.0775 48.0609 25.6611 32.1491 25.6766 32.0778C25.0843 31.7776 24.4333 31.6217 23.7735 31.6221Z" fill="#F0E8E2"/>
<path d="M21.0397 3.74762C23.9088 3.73808 26.6649 4.90138 28.7063 6.98348C30.7477 9.06558 31.9084 11.8973 31.935 14.8603V18.8549C31.935 21.8392 30.7871 24.7013 28.7439 26.8115C26.7006 28.9218 23.9293 30.1073 21.0397 30.1073C18.1501 30.1073 15.3789 28.9218 13.3356 26.8115C11.2923 24.7013 10.1444 21.8392 10.1444 18.8549V14.8603C10.171 11.8973 11.3318 9.06558 13.3731 6.98348C15.4145 4.90138 18.1707 3.73808 21.0397 3.74762Z" fill="#FFDDB8"/>
<path d="M14.6369 14.7657C14.7136 14.8068 14.7974 14.8316 14.8835 14.8387C14.9696 14.8458 15.0561 14.835 15.1381 14.8069C15.4749 14.6883 15.8304 14.6362 16.1859 14.6532C16.3502 14.6684 16.5123 14.7033 16.6689 14.7572C16.8331 14.7935 16.9896 14.8599 17.131 14.9532C17.26 15.0864 17.6077 14.9917 17.5659 14.8116C17.561 14.7213 17.5486 14.6316 17.5287 14.5434C17.4824 14.4363 17.4121 14.3422 17.3235 14.2687C17.0811 14.0753 16.793 13.9523 16.4891 13.9124C15.8741 13.783 15.2347 13.8701 14.6732 14.1599C14.4917 14.2818 14.4127 14.4412 14.4917 14.6138C14.5264 14.6767 14.5765 14.729 14.6369 14.7657Z" fill="#41231B"/>
<path d="M24.3365 14.9197C24.5729 14.779 24.8216 14.6613 25.0792 14.5681C25.3159 14.4898 25.559 14.4337 25.8055 14.4002C26.0366 14.3704 26.2701 14.3666 26.5019 14.389C26.5986 14.3996 26.6941 14.42 26.787 14.4499C26.9377 14.4996 26.8914 14.5156 27.0521 14.6065C27.4425 14.8269 28.0654 14.5831 27.8148 14.1939C27.4398 13.6125 26.402 13.5544 25.7238 13.651C25.3767 13.6938 25.0408 13.8049 24.7341 13.9783C24.41 14.1752 24.0568 14.4124 23.9896 14.7472C23.9624 14.8916 24.1903 14.9938 24.3337 14.9197" fill="#41231B"/>
<path d="M20.3043 20.9904C20.3127 21.0053 20.3256 21.017 20.341 21.0237C20.3564 21.0305 20.3734 21.032 20.3897 21.028C20.4059 21.0241 20.4205 21.0148 20.4313 21.0016C20.4421 20.9884 20.4485 20.972 20.4496 20.9548C20.4496 20.8741 20.4786 20.785 20.4841 20.7006C20.4922 20.5928 20.4968 20.4953 20.5894 20.4278C20.8046 20.273 21.0942 20.2543 21.2976 20.0864C21.501 19.9186 21.2876 19.6551 21.0824 19.6832C20.9234 19.7239 20.772 19.7911 20.6339 19.882C20.4883 19.9606 20.3636 20.0749 20.2707 20.2149C20.1969 20.3337 20.1586 20.4723 20.1608 20.6134C20.1601 20.6916 20.1746 20.7691 20.2035 20.8413C20.2304 20.8952 20.2643 20.945 20.3043 20.9894" fill="#41231B"/>
<path d="M15.524 16.4712C15.8012 16.3297 16.1161 16.2871 16.4192 16.3502C16.4455 16.3568 16.4701 16.3634 16.4955 16.3718C17.2572 16.2068 17.5995 17.3282 17.6122 17.9134C17.6787 18.2899 17.6219 18.6785 17.451 19.018C17.28 19.3575 17.0046 19.6287 16.668 19.7888C16.2855 19.8684 15.888 19.7954 15.5554 19.5846C15.2229 19.3737 14.98 19.0406 14.8757 18.6523C14.8142 18.4573 14.7836 18.2534 14.7849 18.0484C14.7409 17.7393 14.7879 17.4237 14.9197 17.1425C15.0515 16.8612 15.262 16.6274 15.524 16.4712Z" fill="#41231B"/>
<path d="M16.2939 17.7361C16.3806 17.8235 16.4969 17.8725 16.6181 17.8725C16.7392 17.8725 16.8555 17.8235 16.9422 17.7361C16.9847 17.693 17.0185 17.6416 17.0415 17.5848C17.0646 17.5281 17.0765 17.4672 17.0765 17.4056C17.0765 17.3441 17.0646 17.2831 17.0415 17.2264C17.0185 17.1696 16.9847 17.1182 16.9422 17.0751C16.8557 16.9872 16.7393 16.938 16.6181 16.938C16.4968 16.938 16.3804 16.9872 16.2939 17.0751C16.2094 17.1629 16.1619 17.2817 16.1619 17.4056C16.1619 17.5295 16.2094 17.6483 16.2939 17.7361Z" fill="#FFFFFE"/>
<path d="M26.6236 16.5062C26.3328 16.334 25.9908 16.2786 25.663 16.3506C25.6375 16.3571 25.6121 16.3637 25.5867 16.3721C24.8249 16.2071 24.4835 17.3286 24.469 17.9184C24.404 18.2941 24.4615 18.6816 24.6325 19.0199C24.8036 19.3583 25.0785 19.6285 25.4142 19.7882C25.7962 19.8673 26.193 19.7944 26.5251 19.5839C26.8572 19.3735 27.1 19.0411 27.2046 18.6535C27.2667 18.4436 27.2974 18.2251 27.2954 18.0056C27.3227 16.9816 26.9686 16.7041 26.6236 16.5062Z" fill="#41231B"/>
<path d="M26.57 17.8238C26.4836 17.9113 26.3674 17.9604 26.2463 17.9604C26.1253 17.9604 26.009 17.9113 25.9226 17.8238C25.8808 17.7807 25.8476 17.7296 25.8249 17.6733C25.8023 17.6169 25.7906 17.5566 25.7906 17.4956C25.7906 17.4346 25.8023 17.3742 25.8249 17.3179C25.8476 17.2616 25.8808 17.2104 25.9226 17.1674C26.009 17.0798 26.1253 17.0308 26.2463 17.0308C26.3674 17.0308 26.4836 17.0798 26.57 17.1674C26.6122 17.2102 26.6456 17.2613 26.6685 17.3177C26.6914 17.374 26.7031 17.4345 26.7031 17.4956C26.7031 17.5567 26.6914 17.6171 26.6685 17.6735C26.6456 17.7298 26.6122 17.7809 26.57 17.8238Z" fill="#FFFFFE"/>
<path d="M15.258 22.3922C16.3883 22.3922 17.3117 22.0565 17.3117 21.642C17.3117 21.2275 16.3883 20.8975 15.258 20.8975C14.1276 20.8975 13.2042 21.2332 13.2042 21.6476C13.2042 22.0621 14.1267 22.3978 15.258 22.3978" fill="#D66051"/>
<path d="M26.8251 22.3922C27.9555 22.3922 28.8789 22.0565 28.8789 21.642C28.8789 21.2275 27.9555 20.8975 26.8251 20.8975C25.6947 20.8975 24.7714 21.2332 24.7714 21.6476C24.7714 22.0621 25.6938 22.3978 26.8251 22.3978" fill="#D66051"/>
<path d="M17.9037 23.263C17.9037 23.263 23.8171 22.9817 24.8885 23.3999C25.9599 23.8181 24.3174 27.3204 20.712 27.0569C17.1065 26.7934 15.968 23.3567 17.9037 23.263Z" fill="#FFFFFE"/>
<path d="M31.9586 15.9123C31.9586 15.9123 33.8017 15.2869 34.4791 16.5368C35.1564 17.7868 33.6074 21.7355 31.7371 19.9595C29.8667 18.1834 31.9586 15.9123 31.9586 15.9123Z" fill="#FFDDB8"/>
<path d="M10.7709 15.7515C10.3914 15.532 8.14786 14.9722 7.98171 16.3497C7.81556 17.7272 8.13697 19.6776 9.02947 20.0686C9.92198 20.4596 12.5423 19.2828 10.7709 15.7515Z" fill="#FFDDB8"/>
<path d="M21.0025 9.63088C17.5215 9.70402 14.0459 8.98012 12.6158 11.4472C11.2254 13.6645 10.5574 16.2827 10.7092 18.9197C10.7092 18.9197 10.4368 18.9872 10.3296 18.5878C10.2225 18.1883 9.72314 15.5375 9.17747 15.4549C8.7925 6.04043 11.1041 3.32954 14.7649 2.43591C18.4258 1.54228 16.076 2.13772 16.6861 2.02707C18.1062 3.42612 20.3878 7.85113 21.0025 9.63088Z" fill="#41231B"/>
<path d="M17.1428 8.84042C21.4583 11.1097 27.7004 7.95523 29.7251 11.4472C31.1161 13.6643 31.7841 16.2826 31.6318 18.9198C31.6318 18.9198 31.9087 18.9873 32.0113 18.5878C32.1139 18.1883 32.6196 15.846 33.1653 15.7635C33.1653 15.7635 34.5735 3.02855 27.911 1.40352C22.654 0.121686 3.02435 0.784639 15.6865 8.04431C16.1362 8.30249 16.6205 8.56786 17.1392 8.84042" fill="#562A1F"/>
<path d="M31.0316 64.7246C30.7483 65.0387 30.4787 65.2441 30.1518 65.5779C29.672 66.0283 29.2587 66.5489 28.9252 67.1232C28.9841 68.2564 29.2619 69.3659 29.7423 70.3864C30.2369 69.9168 30.5827 69.3041 30.7347 68.6282C31.0071 67.7787 31.4865 66.5194 31.8152 65.6726C32.2773 64.4846 31.314 64.4114 31.0316 64.7246Z" fill="#FFDDB8"/>
<path d="M31.9632 15.9126L31.63 17.1157C31.3013 23.3035 27.5787 28.4187 21.0415 28.4187V31.3256C21.0415 31.3256 27.2736 31.5497 29.5008 29.9481C31.728 28.3465 32.2038 24.2497 32.1675 21.8661C32.1509 20.3322 32.2131 18.7984 32.3536 17.2713L31.9632 15.9126Z" fill="#562A1F"/>
<path d="M10.1181 15.9126L10.4558 17.1157C10.79 23.3045 14.5053 28.4187 21.0443 28.4187V31.3256C21.0443 31.3256 14.8122 31.5497 12.585 29.9481C10.3578 28.3465 9.87931 24.2478 9.91108 21.8632C9.92899 20.3294 9.86837 18.7957 9.7295 17.2685L10.1181 15.9126Z" fill="#562A1F"/>
<path d="M21.0415 33.9341C21.0415 33.9341 21.8968 34.4236 21.9495 34.7686C22.0021 35.1137 21.6844 35.7738 21.4837 35.8001C21.2831 35.8264 20.6829 36.0908 20.4995 35.6707C20.3161 35.2506 19.8067 34.5905 19.9702 34.3092C20.1336 34.0279 21.0415 33.9341 21.0415 33.9341Z" fill="#BF3634"/>
<path d="M18.3849 31.4595C18.3849 31.4595 19.1303 33.5768 21.0415 33.6331C22.9528 33.5768 23.6982 31.4595 23.6982 31.4595C23.6982 31.4595 24.2021 31.647 24.1712 31.9752C24.1403 32.3034 23.1298 35.2712 22.6368 35.2572C22.1438 35.2431 21.0415 34.2848 21.0415 34.2848C21.0415 34.2848 19.9402 35.2525 19.4472 35.2618C18.9542 35.2712 17.9455 32.3034 17.911 31.9752C17.8765 31.647 18.3849 31.4595 18.3849 31.4595Z" fill="#FFFFFE"/>
<path d="M26.5981 32.7141C26.8705 33.7606 27.7013 37.1692 27.4679 38.5166C27.1901 40.1182 25.3125 39.7825 25.2035 40.5655C25.0946 41.3485 25.8972 41.4216 26.1523 42.2412C26.4075 43.0607 21.0452 51.666 21.0452 51.666C21.0038 51.6915 20.9577 51.7079 20.9099 51.7142C20.862 51.7205 20.8135 51.7165 20.7672 51.7025C20.7209 51.6885 20.6779 51.6648 20.6409 51.6328C20.6039 51.6009 20.5737 51.5614 20.5522 51.5169C20.3706 51.1812 16.352 43.3411 16.1704 42.7081C15.9888 42.0752 17.6268 41.2181 17.6268 40.3986C17.6268 39.579 15.5067 40.287 15.2897 39.9494C15.0936 39.6512 15.4759 34.0869 15.5567 32.9486C15.8519 32.6712 16.1824 32.4368 16.5391 32.2519H16.5336C16.5336 32.2519 20.7201 50.0813 20.8527 50.2079C20.9852 50.3345 21.0424 50.2172 21.0424 50.2172C22.0784 48.0615 25.6611 32.1478 25.6757 32.0728H25.6693C26.0039 32.2443 26.3155 32.4599 26.5963 32.7141" fill="#196597"/>
<path d="M21.4583 35.4395C21.4583 35.4395 21.7979 41.1107 22.211 46.4452C21.9024 47.7278 21.5114 48.9878 21.0406 50.2167C21.0406 50.2167 20.9834 50.3339 20.8509 50.2082C20.81 50.1688 20.3706 48.39 19.7868 45.9661C20.159 41.0188 20.7283 35.5979 20.7283 35.5979L21.4583 35.4395Z" fill="#BF3634"/>
<path d="M3.98768 68.3639C4.0159 67.9125 4.1502 67.475 4.37896 67.0892C4.60771 66.7035 4.92404 66.3811 5.30056 66.15C6.28477 65.7515 9.84572 64.8757 10.5167 65.3848C10.8887 65.6348 11.2034 65.9658 11.4387 66.3545C11.6739 66.7432 11.8241 67.1804 11.8786 67.6353C11.8159 68.4005 10.1762 68.6865 9.94196 68.543C9.70771 68.3995 9.39719 68.3836 9.41081 68.2251C9.42443 68.0667 9.4889 66.5682 8.5519 66.5682C7.6149 66.5682 5.3968 66.918 5.11625 67.2537C4.89711 67.6767 4.76308 68.1411 4.7222 68.619C4.7222 68.619 4.05033 68.9209 3.98768 68.3639Z" fill="#1E1510"/>
<path d="M1.42632 68.8259C1.42632 68.8259 0.0989145 69.6061 0.130692 70.7013C0.16247 71.7965 -0.232484 77.2952 0.208775 78.1251C0.650035 78.9549 0.739921 79.5579 3.45739 80.1318C6.17486 80.7056 10.7046 81.438 12.0828 81.5336C13.4611 81.6293 16.6434 81.407 17.4243 80.2912C18.2051 79.1753 17.456 68.8512 16.7687 68.1217C16.0814 67.3922 14.0467 66.6908 10.2352 67.2646C6.42363 67.8385 2.17901 68.4752 1.42632 68.8259Z" fill="#562A1F"/>
<path d="M12.0783 81.5363C13.453 81.6301 16.6389 81.4097 17.4198 80.2939C18.2006 79.178 17.4515 68.8539 16.7642 68.1244C16.2294 67.5543 14.8821 67.0029 12.516 67.0535C12.8811 67.1895 13.2028 67.4268 13.446 67.7393C13.6891 68.0517 13.8442 68.4273 13.8942 68.8248C14.0195 70.1629 14.3319 77.1075 14.3319 78.4456C14.3319 79.7837 13.7689 81.345 12.0829 81.5401" fill="#41231B"/>
<path d="M6.89037 63.0471C7.02701 63.3853 7.21051 63.7011 7.43513 63.9848C7.69389 64.3758 8.53555 65.2385 8.29677 65.3773C7.18 66.0337 9.04854 66.4547 8.36305 67.1748C8.36305 67.1748 6.10136 68.1313 5.91887 66.6844C5.79448 65.712 5.90343 64.3918 5.73637 63.5113C5.70187 63.3237 6.59528 62.3945 6.88946 63.0424" fill="#FFDDB8"/>
</g>
<!-- <defs>
<clipPath id="clip0">
<rect width="36.0598" height="114.277" fill="white" transform="translate(0 0.878418)"/>
</clipPath>
</defs> -->
</svg>
