<svg width="60" height="116" viewBox="0 0 60 116" fill="none" xmlns="http://www.w3.org/2000/svg">
<g clip-path="url(#clip0)">
<path d="M47.3175 114.832C53.7639 114.832 59.0145 113.931 59.0145 112.827C59.0145 111.723 53.7603 110.822 47.3175 110.822C40.8748 110.822 35.6214 111.722 35.6214 112.827C35.6214 113.932 40.8757 114.832 47.3175 114.832Z" fill="#A8ACA9"/>
<path d="M59.63 20.2188V32.2664C59.6244 33.9346 58.98 35.5328 57.8373 36.7118C56.6946 37.8909 55.1466 38.5551 53.5313 38.5593H41.3041C36.5374 38.5593 35.2063 34.6585 35.2063 30.5729V24.1028C35.2063 16.107 35.3171 8.27629 45.1265 6.57718C51.8916 5.40411 59.63 9.47467 59.63 18.801V20.2188Z" fill="#562B20"/>
<path d="M50.1601 108.845L49.3984 107.075C49.3984 107.075 49.5246 103.831 49.3702 101.73C49.2159 99.6297 48.652 76.4282 48.6829 75.0517C48.7138 73.6751 53.9689 73.2476 53.9689 73.2476L53.3388 74.4197C53.3388 74.4197 51.1525 105.05 51.2905 107.128C51.4285 109.206 50.1601 108.845 50.1601 108.845" fill="#FFDDB8"/>
<path d="M51.2932 107.128C51.3955 107.576 51.6541 107.97 52.0196 108.234C53.2271 108.885 54.47 109.464 55.7421 109.967C56.6501 110.436 57.4627 111.721 56.5321 112.357C55.6014 112.993 51.4757 112.872 49.7942 111.689C48.1127 110.507 49.1142 108.464 49.3339 107.293C49.5536 106.121 51.2714 106.433 51.2932 107.128Z" fill="#FFDDB8"/>
<path d="M55.1729 109.699C55.3935 109.793 55.5896 109.886 55.7494 109.967C56.6574 110.436 57.47 111.721 56.5393 112.357C55.6087 112.993 51.483 112.872 49.8015 111.69C48.6602 110.891 48.751 109.692 48.9962 108.64C49.0797 109.695 51.9579 111.03 54.0007 110.85C56.0436 110.67 55.1756 109.703 55.1729 109.699Z" fill="#BF3733"/>
<path d="M44.5427 108.845L45.3044 107.076C45.3044 107.076 45.1791 103.832 45.3326 101.731C45.486 99.6307 46.0517 76.4282 46.019 75.0517C45.9863 73.6751 40.7339 73.2476 40.7339 73.2476L41.364 74.4197C41.364 74.4197 43.5485 105.05 43.4132 107.128C43.2779 109.206 44.5427 108.845 44.5427 108.845" fill="#FFDDB8"/>
<path d="M43.4123 107.128C43.3077 107.577 43.0462 107.971 42.6778 108.233C41.4703 108.884 40.2273 109.463 38.9552 109.966C38.0473 110.435 37.2347 111.72 38.1653 112.356C39.096 112.992 43.2207 112.871 44.9032 111.689C46.5856 110.506 45.5877 108.463 45.3698 107.292C45.1519 106.121 43.4296 106.433 43.4123 107.128Z" fill="#FFDDB8"/>
<path d="M39.529 109.699C39.3084 109.793 39.1114 109.886 38.9525 109.967C38.0446 110.436 37.2319 111.721 38.1626 112.357C39.0932 112.993 43.218 112.872 44.9004 111.69C46.0408 110.891 45.95 109.692 45.7058 108.64C45.6222 109.695 42.7459 111.03 40.7012 110.85C38.6565 110.67 39.5263 109.703 39.529 109.699Z" fill="#BF3733"/>
<path d="M44.5118 35.2935C44.5118 35.2935 40.3026 35.2841 39.6643 36.3906C39.1637 37.4447 39.0245 38.6432 39.2694 39.7897C39.2694 39.7897 41.3903 40.0551 41.9541 40.8212C41.8706 41.4289 41.9621 42.0486 42.2174 42.6028C42.2174 42.6028 40.8092 52.7769 40.0584 54.2116C38.1848 58.2361 37.3265 62.6845 37.5633 67.1434C38.0373 72.9984 38.3687 80.0292 38.6683 81.027C38.9679 82.0247 47.005 81.9 47.419 81.9C47.8331 81.9 55.8683 82.0256 56.1689 81.027C56.4694 80.0283 56.2252 75.1616 56.986 68.2742C57.5062 63.466 56.7442 58.6023 54.7824 54.2087C54.0307 52.7741 52.6234 42.5935 52.6234 42.5935C52.878 42.039 52.9692 41.4194 52.8858 40.8118C53.4496 40.0476 55.5705 39.7804 55.5705 39.7804C55.8151 38.6339 55.6762 37.4356 55.1765 36.3812C54.5346 35.2841 50.7421 35.4088 50.7421 35.4088L47.419 37.2842L44.5118 35.2935Z" fill="#FFFFFE"/>
<path d="M40.0584 54.2114C38.1848 58.236 37.3265 62.6844 37.5633 67.1432C38.0373 72.9982 38.3687 80.0291 38.6683 81.0296C38.9679 82.0302 47.005 81.9026 47.419 81.9026C47.8331 81.9026 55.8683 82.0283 56.1689 81.0296C56.4694 80.031 56.2252 75.1643 56.986 68.2769C57.5053 63.4684 56.7424 58.6047 54.7797 54.2114H40.0584Z" fill="#562B20"/>
<path d="M41.9541 40.8184C41.8706 41.4261 41.9621 42.0457 42.2174 42.6H52.6206C52.8753 42.0455 52.9665 41.426 52.883 40.8184H41.9541Z" fill="#EFE7E0"/>
<path d="M45.0466 32.8638L45.0648 33.5014C45.0748 34.4981 44.9774 35.4929 44.7742 36.4673C44.4628 37.6985 46.0925 38.1946 47.3264 38.1946C48.5603 38.1946 50.0248 37.6976 50.1084 37.4172C50.1919 37.1369 50.4643 35.9488 50.4643 35.9488C50.1516 34.8013 49.9619 33.6218 49.8986 32.4315C49.9613 31.3091 45.0466 32.8638 45.0466 32.8638Z" fill="#FFDDB8"/>
<path d="M47.419 9.40527C49.7583 9.41121 52.0002 10.373 53.655 12.0807C55.3098 13.7883 56.2429 16.1029 56.2506 18.5188V24.6963C56.2506 27.1155 55.3201 29.4356 53.6638 31.1462C52.0074 32.8568 49.761 33.8178 47.4186 33.8178C45.0762 33.8178 42.8297 32.8568 41.1734 31.1462C39.5171 29.4356 38.5866 27.1155 38.5866 24.6963V18.5188C38.5945 16.1028 39.5279 13.7882 41.1828 12.0806C42.8377 10.373 45.0797 9.41121 47.419 9.40527" fill="#FFDDB8"/>
<path d="M41.8615 20.4609C41.9279 20.497 42.0006 20.5188 42.0754 20.5251C42.1501 20.5314 42.2253 20.522 42.2964 20.4975C42.5881 20.3937 42.8962 20.3482 43.2044 20.3634C43.3473 20.3772 43.4882 20.4087 43.6239 20.4572C43.7663 20.4887 43.902 20.5468 44.0243 20.6288C44.1359 20.746 44.4383 20.6625 44.4011 20.504C44.3963 20.4251 44.385 20.3467 44.3675 20.2696C44.3267 20.1751 44.2644 20.0921 44.1859 20.0277C43.9753 19.8579 43.7244 19.7498 43.4595 19.7145C42.9277 19.6018 42.3747 19.6774 41.8897 19.9292C41.7353 20.0361 41.6672 20.1796 41.7326 20.324C41.7629 20.3808 41.8074 20.4281 41.8615 20.4609Z" fill="#41231B"/>
<path d="M50.2782 20.5965C50.4846 20.4733 50.7016 20.37 50.9264 20.288C51.1336 20.2193 51.3463 20.1701 51.562 20.1408C51.7593 20.1155 51.9587 20.112 52.1567 20.1305C52.2408 20.1404 52.3238 20.1586 52.4046 20.1849C52.5353 20.2299 52.4953 20.2421 52.6343 20.3227C52.9729 20.5159 53.5131 20.3021 53.2952 19.9599C52.9684 19.4451 52.0695 19.3972 51.4794 19.4826C51.179 19.5208 50.8886 19.6185 50.6241 19.7704C50.3408 19.9411 50.0357 20.1511 49.9776 20.4456C49.9531 20.5722 50.152 20.6622 50.2763 20.5965" fill="#41231B"/>
<path d="M46.778 25.9256C46.7855 25.9383 46.7967 25.9483 46.81 25.9541C46.8233 25.9599 46.838 25.9611 46.8521 25.9577C46.8661 25.9542 46.8787 25.9463 46.8881 25.9349C46.8975 25.9236 46.9031 25.9095 46.9042 25.8946C46.9042 25.8243 46.9297 25.7446 46.9351 25.6715C46.9424 25.5777 46.946 25.4914 47.0268 25.4352C47.2138 25.2954 47.4644 25.2804 47.6406 25.1323C47.8167 24.9841 47.6324 24.7535 47.4535 24.7788C47.3158 24.8151 47.1846 24.874 47.0649 24.9532C46.9392 25.0236 46.832 25.1247 46.7526 25.2476C46.6882 25.3514 46.6541 25.4722 46.6546 25.5955C46.6541 25.6643 46.6668 25.7325 46.6918 25.7962C46.7161 25.8434 46.7467 25.887 46.7826 25.9256" fill="#41231B"/>
<path d="M41.5265 22.6585C41.5764 22.6379 41.5873 22.6501 41.6364 22.6492C41.6945 22.6509 41.7525 22.6568 41.8098 22.667C41.894 22.6839 41.9793 22.6952 42.0649 22.7007C42.0907 22.5924 42.1288 22.4876 42.1784 22.3885C42.1557 22.381 42.1339 22.3725 42.1112 22.3632C42.007 22.3192 41.9115 22.2556 41.8298 22.1756C41.7671 22.11 41.6627 21.9787 41.6945 21.8802C41.7707 21.643 41.9814 21.8868 42.0758 21.974C42.1644 22.0537 42.2742 22.104 42.3909 22.1184H42.3963C42.5348 21.9985 42.6976 21.9124 42.8727 21.8663C43.0478 21.8202 43.2306 21.8153 43.4078 21.8521C43.4296 21.8568 43.4523 21.8643 43.474 21.8709C44.135 21.7265 44.431 22.7148 44.4428 23.2287C44.5001 23.5569 44.4511 23.8955 44.3034 24.1921C44.1557 24.4887 43.9175 24.7268 43.6257 24.8696C43.2917 24.939 42.9448 24.8748 42.655 24.6899C42.3652 24.505 42.1543 24.2133 42.0649 23.8738C41.9898 23.6144 41.9684 23.3415 42.0023 23.073C41.9113 23.0809 41.8197 23.0765 41.7299 23.0599C41.6662 23.0542 41.6058 23.0287 41.5565 22.9867L41.4729 22.9042C41.4555 22.8865 41.4428 22.8646 41.4359 22.8404C41.429 22.8162 41.4282 22.7906 41.4335 22.766C41.4389 22.7414 41.4502 22.7186 41.4665 22.6998C41.4828 22.681 41.5034 22.6668 41.5265 22.6585Z" fill="#41231B"/>
<path d="M43.2988 23.0697C43.3637 23.1367 43.4491 23.1784 43.5405 23.1877C43.6318 23.197 43.7235 23.1733 43.7998 23.1206C43.8761 23.0679 43.9324 22.9896 43.959 22.8988C43.9857 22.8081 43.9811 22.7107 43.9459 22.6231C43.9108 22.5355 43.8473 22.4632 43.7664 22.4185C43.6854 22.3738 43.592 22.3595 43.5019 22.378C43.4119 22.3965 43.3309 22.4467 43.2726 22.5199C43.2144 22.5932 43.1826 22.6851 43.1826 22.7799C43.1829 22.8885 43.2246 22.9926 43.2988 23.0697Z" fill="#FFFFFE"/>
<path d="M53.3107 22.6586C53.2598 22.638 53.2498 22.6502 53.2008 22.6493C53.1421 22.6509 53.0835 22.6568 53.0256 22.6671C52.9413 22.684 52.8561 22.6952 52.7704 22.7008C52.7466 22.5927 52.7103 22.4879 52.6624 22.3886C52.6851 22.3811 52.7069 22.3726 52.7287 22.3633C52.8331 22.3195 52.9285 22.2559 53.0101 22.1757C53.0737 22.1129 53.1772 21.9826 53.1454 21.8832C53.0692 21.6459 52.8594 21.8897 52.7641 21.9769C52.6753 22.0568 52.5651 22.1072 52.4481 22.1213H52.4436C52.305 22.0004 52.1417 21.9133 51.9659 21.8667C51.7901 21.8201 51.6064 21.8152 51.4285 21.8522C51.4067 21.8569 51.3849 21.8644 51.3631 21.871C50.7012 21.7266 50.4062 22.7112 50.3925 23.2288C50.3348 23.5576 50.3835 23.8969 50.5312 24.1942C50.6789 24.4915 50.9174 24.7302 51.2097 24.8735C51.5437 24.9422 51.8906 24.8771 52.1799 24.6915C52.4692 24.5059 52.6793 24.2136 52.7677 23.8739C52.8446 23.6145 52.8672 23.3412 52.834 23.0722C52.925 23.0804 53.0166 23.076 53.1064 23.059C53.1693 23.0534 53.2291 23.0282 53.278 22.9868L53.3642 22.9043C53.3819 22.8868 53.3949 22.8648 53.4019 22.8406C53.409 22.8163 53.4099 22.7906 53.4045 22.7659C53.3991 22.7412 53.3876 22.7184 53.3712 22.6996C53.3548 22.6808 53.3339 22.6667 53.3107 22.6586Z" fill="#41231B"/>
<path d="M52.2166 23.1463C52.1412 23.2186 52.0416 23.2579 51.9387 23.256C51.8357 23.254 51.7376 23.2109 51.6648 23.1357C51.592 23.0606 51.5503 22.9592 51.5484 22.8529C51.5465 22.7466 51.5846 22.6438 51.6546 22.5659C51.7291 22.4888 51.8302 22.4454 51.9357 22.4453C52.0412 22.4452 52.1424 22.4884 52.2171 22.5654C52.2917 22.6424 52.3337 22.7468 52.3338 22.8557C52.3339 22.9647 52.292 23.0692 52.2175 23.1463" fill="#FFFFFE"/>
<path d="M42.3999 27.159C43.3814 27.159 44.1813 26.8645 44.1813 26.5026C44.1813 26.1406 43.3814 25.8462 42.3999 25.8462C41.4185 25.8462 40.6186 26.1406 40.6186 26.5026C40.6186 26.8645 41.4185 27.159 42.3999 27.159Z" fill="#D76051"/>
<path d="M52.4363 27.159C53.4178 27.159 54.2186 26.8645 54.2186 26.5026C54.2186 26.1406 53.4187 25.8462 52.4363 25.8462C51.4539 25.8462 50.655 26.1406 50.655 26.5026C50.655 26.8645 51.4558 27.159 52.4363 27.159Z" fill="#D76051"/>
<path d="M42.0095 19.2465L38.0645 17.2539L37.4544 22.7779H38.5866C38.5897 21.8417 38.9515 20.9447 39.5928 20.2831C40.2342 19.6214 41.103 19.2487 42.0095 19.2465Z" fill="#562B20"/>
<path d="M44.9585 28.2603C44.9585 28.2603 49.6008 28.0353 50.4425 28.3738C51.2842 28.7123 49.9931 31.4869 47.1612 31.2807C44.3293 31.0744 43.4377 28.3372 44.9585 28.2603Z" fill="#FFFFFE"/>
<path d="M45.5051 34.9818C45.5051 34.9818 45.8837 36.9322 47.4272 36.8094C47.9314 36.7276 48.4064 36.5117 48.8053 36.1829C49.2043 35.854 49.5135 35.4236 49.7025 34.934C49.9295 34.6049 51.0563 35.37 51.0935 35.822C51.1307 36.274 49.9903 39.2324 49.1587 39.2118C48.327 39.1912 47.9484 38.4522 47.5698 38.3078C47.1911 38.1634 46.7399 38.9248 46.0762 39.2549C45.4125 39.585 44.0578 36.1755 44.2095 35.8061C44.3611 35.4366 45.1828 34.2645 45.5051 34.9818Z" fill="#DBD2C9"/>
<path d="M38.02 18.6978L41.3849 19.2501H47.6733C48.9053 19.2501 53.5749 19.2098 53.5749 13.968V10.3485L45.8138 7.34131C44.4672 8.23345 43.166 9.19649 41.9151 10.2266C41.7571 10.552 37.8194 13.6398 37.6614 14.4116C37.5034 15.1833 36.9351 16.528 37.1893 16.8908C37.5007 17.4754 37.7779 18.0788 38.0191 18.6978" fill="#562B20"/>
<path d="M59.0861 19.5351C57.0096 19.3879 53.2181 18.5243 53.2181 13.4326V9.2345L54.1015 9.08447C54.9858 9.96497 56.6919 11.7025 56.6919 12.0176C56.6919 12.4424 58.8936 17.5547 58.7947 18.5271C58.8027 18.8836 58.903 19.2313 59.0852 19.5342" fill="#562B20"/>
<path d="M43.0155 61.2377C43.6363 59.9865 44.5914 58.9451 45.7675 58.2371C47.0913 57.6745 48.8164 57.38 49.6535 58.0102C50.5387 58.836 51.0812 59.9827 51.1679 61.2115C51.1162 62.0423 50.4416 61.6128 50.3108 61.1318C50.1801 60.6507 49.6262 58.8485 48.879 58.57C48.1318 58.2915 45.7357 58.5559 45.3008 59.2892C44.9508 59.9971 44.5309 60.6658 44.0479 61.2846C43.7619 61.4853 42.9048 61.7263 43.0155 61.2377Z" fill="#8F2429"/>
<path d="M55.5678 39.7896C55.5842 39.8017 56.4876 42.7546 57.2021 45.8161C57.8104 48.4126 58.2217 48.2823 57.2285 50.1136C55.586 53.1443 52.5707 57.2748 51.9678 57.5215C51.365 57.7681 50.7612 57.6368 51.0399 56.9738C51.3187 56.3109 54.3358 52.0293 55.5506 48.8046C55.4961 48.5933 55.4356 48.3933 55.369 48.2045C54.7144 46.3497 53.6439 43.8911 52.8268 42.0747C52.9112 41.6627 52.9287 41.239 52.8785 40.821C53.446 40.0549 55.5678 39.7896 55.5678 39.7896Z" fill="#FFDDB8"/>
<path d="M44.7833 58.0737L44.7778 58.0653L44.7697 58.0569L44.757 58.0428C44.834 58.2878 44.8726 58.5439 44.8714 58.8014C45.3973 58.9718 45.9052 59.1965 46.3876 59.4719C46.5102 59.65 46.3994 59.7982 46.1389 59.8047C45.8783 59.8113 45.6694 59.8047 45.6694 59.8047C45.6031 59.8931 45.5159 59.9625 45.4163 60.0063C45.3167 60.0501 45.2078 60.0669 45.1002 60.0551C44.1922 60.0288 44.1368 60.4668 43.3569 59.8863H43.3733C43.2015 59.7657 43.0724 59.5906 43.0055 59.3875C42.7497 58.4853 42.437 57.6013 42.0695 56.7413L43.4931 56.3774L43.8409 56.9466C44.2667 57.0112 44.6698 57.1857 45.013 57.4539C45.1927 57.6981 45.3887 57.929 45.5995 58.145C45.7811 58.3166 45.9754 58.6748 45.5314 58.6035C45.2358 58.5095 44.9748 58.3247 44.7833 58.0737Z" fill="#FFDDB8"/>
<path d="M39.2703 39.7896C39.2539 39.8017 38.3505 42.7546 37.6333 45.8161C37.0259 48.4164 36.6146 48.2823 37.6078 50.1136C39.2503 53.1443 42.2647 57.2748 42.8685 57.5215C43.4722 57.7681 44.0742 57.6368 43.7964 56.9738C43.5185 56.3109 40.5005 52.0293 39.2857 48.8046C39.3408 48.5933 39.4013 48.3933 39.4673 48.2045C40.1228 46.3497 41.1924 43.8911 42.0095 42.0747C41.9241 41.6629 41.9056 41.2391 41.9551 40.821C41.3912 40.0549 39.2703 39.7896 39.2703 39.7896Z" fill="#FFDDB8"/>
<path d="M50.0548 58.0737L50.0602 58.0653L50.0684 58.0569L50.082 58.0419C50.005 58.2868 49.9664 58.5429 49.9676 58.8005C49.4414 58.9711 48.9331 59.196 48.4505 59.4719C48.3279 59.65 48.4378 59.7982 48.6983 59.8047C48.9589 59.8113 49.1677 59.8047 49.1677 59.8047C49.2341 59.8931 49.3213 59.9625 49.4209 60.0063C49.5205 60.0501 49.6293 60.0669 49.737 60.0551C50.645 60.0288 50.7013 60.4668 51.4821 59.8863H51.4657C51.6355 59.7646 51.7628 59.5897 51.8289 59.3875C52.0862 58.4852 52.4001 57.6013 52.7686 56.7413L51.3459 56.3774L50.9972 56.9466C50.5711 57.0111 50.1676 57.1856 49.8242 57.4539C49.645 57.6983 49.4493 57.9292 49.2386 58.145C49.057 58.3166 48.8618 58.6748 49.3067 58.6035C49.6021 58.5095 49.8627 58.3247 50.0539 58.0737" fill="#FFDDB8"/>
<path d="M45.0984 58.6441V58.7603H46.0136V58.1377C45.9309 58.1705 45.8474 58.2033 45.7675 58.238C45.529 58.3441 45.3042 58.4805 45.0984 58.6441" fill="#8F2429"/>
<path d="M49.9604 58.2924V58.6806H49.0779C49.0169 58.6344 48.9499 58.5971 48.879 58.5699C48.8253 58.5501 48.7704 58.5338 48.7147 58.5212V57.6772C49.0502 57.7029 49.3735 57.8176 49.6535 58.0101C49.764 58.0939 49.8668 58.188 49.9604 58.2914" fill="#8F2429"/>
<path d="M40.6476 69.9317C39.9086 69.5416 40.18 68.1557 40.1846 67.3408C40.1195 65.3712 40.1537 63.3993 40.2872 61.4333C40.9127 60.6007 42.6042 60.9242 43.6938 60.9035C45.0557 60.8782 53.9535 60.6475 54.4819 60.9514C55.2282 61.379 54.9159 63.3547 54.9359 64.2389C54.9559 65.1232 55.2945 69.3288 54.6408 69.7779C54.0434 70.184 48.5658 70.0499 47.6224 70.0592C45.2971 70.1619 42.9679 70.1194 40.6476 69.9317Z" fill="#BF3733"/>
<path d="M17.5441 115.03C25.6303 115.03 32.2255 114.312 32.2255 113.431C32.2255 112.549 25.6303 111.83 17.5441 111.83C9.45802 111.83 2.86273 112.549 2.86273 113.431C2.86273 114.312 9.45802 115.03 17.5441 115.03Z" fill="#848988"/>
<path d="M13.6291 31.7854C9.11573 32.3602 3.39207 43.6463 1.5317 46.9105C-0.0444891 49.6785 -0.118032 49.7892 0.0771749 52.321C0.400402 56.5153 1.07591 63.3521 1.53896 63.8866C2.00201 64.4211 3.58001 64.0432 3.16145 62.8288C2.74289 61.6145 2.47323 55.5242 2.61669 51.2773C2.74925 51.0541 1.7605 52.4401 3.01981 50.6547C4.27913 48.8693 9.29096 42.3842 9.29096 42.3842C8.68264 40.566 15.188 31.5903 13.6291 31.7854Z" fill="#16334A"/>
<path d="M21.8451 31.9512C25.9362 32.9554 28.5457 42.1571 31.1369 49.6849C32.1765 52.7043 32.5579 52.453 31.8978 54.907C30.8083 58.9654 29.0042 65.1954 28.4558 65.6315C28.3015 65.7279 28.124 65.7772 27.9437 65.7738C27.7634 65.7704 27.5878 65.7143 27.4371 65.6121C27.2863 65.5099 27.1667 65.3657 27.092 65.1962C27.0173 65.0267 26.9906 64.8389 27.0149 64.6544C27.1738 63.7842 29.3955 57.8926 30.0329 53.6936C29.9421 53.4489 29.8513 53.2182 29.7505 53.0044C28.0318 49.2273 24.6742 43.3836 24.6742 43.3836C24.6742 43.3836 19.9384 31.9962 21.8451 31.9512Z" fill="#16334A"/>
<path d="M22.5841 108.178C22.7533 108.497 22.9909 108.771 23.2787 108.981C24.6105 109.649 25.9783 110.238 27.3753 110.745C28.3741 111.224 29.292 112.585 28.2969 113.294C27.3018 114.003 22.8093 113.985 20.9453 112.759C19.0813 111.532 20.1218 109.308 20.3279 108.043C20.6322 108.329 21.0223 108.498 21.4329 108.523C21.8435 108.547 22.2499 108.426 22.5841 108.178Z" fill="#562A1F"/>
<path d="M28.6519 112.101C28.742 112.31 28.756 112.546 28.6912 112.765C28.6265 112.984 28.4875 113.172 28.2996 113.294C27.3009 114.002 22.8093 113.985 20.9453 112.757C20.5555 112.51 20.2453 112.148 20.0536 111.719C19.8618 111.29 19.7971 110.812 19.8676 110.345C19.8676 110.345 22.1683 114.604 28.6519 112.101Z" fill="#FFFFFE"/>
<path d="M12.7566 108.276C12.5882 108.595 12.3512 108.87 12.0638 109.079C10.7317 109.747 9.36364 110.335 7.96628 110.842C6.96936 111.323 6.04871 112.684 7.04472 113.392C8.04073 114.1 12.5323 114.082 14.3927 112.856C16.2531 111.629 15.2207 109.406 15.0137 108.141C14.7094 108.427 14.3191 108.597 13.9083 108.621C13.4975 108.646 13.0909 108.524 12.7566 108.276Z" fill="#562A1F"/>
<path d="M6.68972 112.2C6.59988 112.409 6.58633 112.645 6.65155 112.865C6.71677 113.084 6.85638 113.271 7.04472 113.392C8.04346 114.102 12.5323 114.084 14.3927 112.856C14.783 112.609 15.0938 112.248 15.2862 111.818C15.4785 111.389 15.5439 110.911 15.4741 110.443C15.4741 110.443 13.1733 114.702 6.68972 112.2Z" fill="#FFFFFE"/>
<path d="M17.8111 62.6973L8.99589 63.4718C7.38157 63.6134 10.4985 82.5587 10.8181 84.4406C10.9616 85.2902 12.18 107.932 12.7312 108.446C13.2823 108.96 14.2747 109.488 14.9556 108.66C15.6366 107.831 15.2225 78.7938 15.7564 76.5405C16.5881 73.0298 18.729 73.0298 19.5607 76.5405C20.0937 78.791 19.6769 107.829 20.3624 108.66C21.0479 109.49 22.0339 108.957 22.5869 108.446C23.1398 107.935 24.3555 85.293 24.4999 84.4406C24.8186 82.5596 27.0485 63.936 25.4396 63.7175L17.8111 62.6973Z" fill="#16334A"/>
<path d="M14.5162 29.1267L14.5352 29.9491C14.546 31.2284 14.4445 32.5061 14.232 33.7665C13.9033 35.3512 15.6121 35.9907 16.9041 35.9907C18.1961 35.9907 19.7296 35.3512 19.8204 34.9855C19.9112 34.6198 20.1917 33.0951 20.1917 33.0951C19.8627 31.6085 19.6642 30.0942 19.5988 28.5707C19.6642 27.1257 14.5144 29.1258 14.5144 29.1258" fill="#FFDDB8"/>
<path d="M19.9384 31.4976C18.917 34.7101 15.968 34.4232 14.6115 31.671C8.55644 31.7357 8.8606 42.81 8.8606 42.81C8.8606 42.81 8.50287 59.14 8.11154 61.879C7.72022 64.6181 8.54554 64.9734 9.28279 65.4001C12.4815 66.5994 23.0118 68.5461 25.6257 65.6814C26.133 65.1556 26.5055 64.5077 26.7098 63.7961C26.9141 63.0845 26.9438 62.3316 26.7961 61.6052C26.4057 58.8643 25.6866 42.6318 25.6866 42.6318C25.6866 42.6318 25.9953 31.5613 19.9384 31.4976Z" fill="#1A4A6F"/>
<path d="M19.9384 31.4976C18.9161 34.7101 15.9671 34.4232 14.6106 31.671C13.9476 31.6708 13.2933 31.828 12.6985 32.1305H12.6985C12.6985 32.1305 16.8841 49.958 17.0166 50.0828C17.1492 50.2075 17.2064 50.0921 17.2064 50.0921C18.2424 47.9364 21.826 32.0245 21.8414 31.9533C21.2492 31.6531 20.5981 31.4972 19.9384 31.4976Z" fill="#F0E8E2"/>
<path d="M17.2046 3.62311C20.0736 3.61356 22.8298 4.77687 24.8712 6.85897C26.9125 8.94107 28.0733 11.7728 28.0999 14.7358V18.7304C28.0999 21.7147 26.952 24.5768 24.9087 26.687C22.8654 28.7973 20.0942 29.9828 17.2046 29.9828C14.315 29.9828 11.5437 28.7973 9.50044 26.687C7.45717 24.5768 6.30928 21.7147 6.30928 18.7304L6.30928 14.7358C6.33589 11.7728 7.49662 8.94107 9.53799 6.85897C11.5794 4.77687 14.3355 3.61356 17.2046 3.62311Z" fill="#FFDDB8"/>
<path d="M10.8018 14.6412C10.8784 14.6823 10.9623 14.7071 11.0483 14.7142C11.1344 14.7213 11.221 14.7105 11.303 14.6824C11.6398 14.5638 11.9952 14.5116 12.3507 14.5286C12.5151 14.5439 12.6772 14.5788 12.8338 14.6327C12.9979 14.669 13.1544 14.7354 13.2959 14.8287C13.4248 14.9619 13.7726 14.8671 13.7308 14.6871C13.7259 14.5968 13.7134 14.507 13.6936 14.4189C13.6473 14.3118 13.5769 14.2176 13.4884 14.1442C13.2459 13.9508 12.9579 13.8278 12.654 13.7879C12.0389 13.6585 11.3996 13.7456 10.8381 14.0354C10.6565 14.1573 10.5775 14.3167 10.6565 14.4893C10.6912 14.5522 10.7413 14.6045 10.8018 14.6412Z" fill="#41231B"/>
<path d="M20.5013 14.7952C20.7378 14.6545 20.9864 14.5368 21.244 14.4436C21.4808 14.3653 21.7239 14.3091 21.9704 14.2757C22.2014 14.2458 22.4349 14.2421 22.6668 14.2645C22.7635 14.275 22.859 14.2955 22.9519 14.3254C23.1026 14.3751 23.0563 14.391 23.217 14.482C23.6074 14.7024 24.2302 14.4586 23.9796 14.0694C23.6047 13.488 22.5669 13.4299 21.8887 13.5265C21.5416 13.5693 21.2056 13.6804 20.899 13.8537C20.5749 14.0507 20.2217 14.2879 20.1545 14.6227C20.1272 14.7671 20.3551 14.8693 20.4986 14.7952" fill="#41231B"/>
<path d="M16.4692 20.8659C16.4776 20.8808 16.4905 20.8925 16.5058 20.8992C16.5212 20.906 16.5383 20.9075 16.5545 20.9035C16.5708 20.8995 16.5854 20.8903 16.5962 20.8771C16.607 20.8639 16.6134 20.8475 16.6144 20.8302C16.6144 20.7496 16.6435 20.6605 16.6489 20.5761C16.6571 20.4683 16.6616 20.3708 16.7542 20.3033C16.9694 20.1485 17.2591 20.1298 17.4624 19.9619C17.6658 19.7941 17.4525 19.5306 17.2473 19.5587C17.0883 19.5994 16.9368 19.6666 16.7987 19.7575C16.6531 19.8361 16.5284 19.9504 16.4356 20.0904C16.3617 20.2092 16.3235 20.3478 16.3257 20.4889C16.3249 20.5671 16.3394 20.6446 16.3684 20.7168C16.3953 20.7707 16.4292 20.8205 16.4692 20.8649" fill="#41231B"/>
<path d="M11.6888 16.3472C11.9661 16.2056 12.2809 16.1631 12.5841 16.2262C12.6104 16.2328 12.6349 16.2393 12.6603 16.2478C13.4221 16.0827 13.7644 17.2042 13.7771 17.7893C13.8435 18.1658 13.7868 18.5545 13.6158 18.894C13.4449 19.2335 13.1694 19.5047 12.8328 19.6647C12.4503 19.7444 12.0528 19.6714 11.7203 19.4605C11.3877 19.2497 11.1449 18.9166 11.0406 18.5283C10.9791 18.3333 10.9484 18.1294 10.9498 17.9244C10.9058 17.6153 10.9527 17.2996 11.0845 17.0184C11.2163 16.7372 11.4268 16.5033 11.6888 16.3472Z" fill="#41231B"/>
<path d="M12.4588 17.6121C12.5454 17.6995 12.6618 17.7485 12.7829 17.7485C12.904 17.7485 13.0204 17.6995 13.107 17.6121C13.1496 17.569 13.1833 17.5176 13.2064 17.4608C13.2294 17.4041 13.2413 17.3431 13.2413 17.2816C13.2413 17.22 13.2294 17.1591 13.2064 17.1024C13.1833 17.0456 13.1496 16.9942 13.107 16.951C13.0206 16.8632 12.9042 16.814 12.7829 16.814C12.6616 16.814 12.5452 16.8632 12.4588 16.951C12.3742 17.0389 12.3268 17.1577 12.3268 17.2816C12.3268 17.4054 12.3742 17.5243 12.4588 17.6121Z" fill="#FFFFFE"/>
<path d="M22.7884 16.3817C22.4977 16.2095 22.1557 16.1541 21.8278 16.226C21.8024 16.2326 21.777 16.2392 21.7516 16.2476C20.9898 16.0826 20.6484 17.2041 20.6339 17.7939C20.5688 18.1696 20.6263 18.557 20.7974 18.8954C20.9684 19.2338 21.2433 19.504 21.579 19.6636C21.961 19.7428 22.3579 19.6699 22.69 19.4594C23.0221 19.249 23.2648 18.9166 23.3695 18.529C23.4316 18.3191 23.4622 18.1006 23.4603 17.8811C23.4875 16.8571 23.1334 16.5796 22.7884 16.3817Z" fill="#41231B"/>
<path d="M22.7348 17.6993C22.6484 17.7868 22.5322 17.8359 22.4112 17.8359C22.2901 17.8359 22.1739 17.7868 22.0875 17.6993C22.0456 17.6562 22.0125 17.6051 21.9898 17.5488C21.9672 17.4924 21.9555 17.4321 21.9555 17.3711C21.9555 17.3101 21.9672 17.2497 21.9898 17.1934C22.0125 17.1371 22.0456 17.0859 22.0875 17.0429C22.1739 16.9553 22.2901 16.9062 22.4112 16.9062C22.5322 16.9062 22.6484 16.9553 22.7348 17.0429C22.777 17.0857 22.8105 17.1368 22.8334 17.1931C22.8562 17.2495 22.868 17.31 22.868 17.3711C22.868 17.4322 22.8562 17.4926 22.8334 17.549C22.8105 17.6053 22.777 17.6564 22.7348 17.6993Z" fill="#FFFFFE"/>
<path d="M11.4228 22.2676C12.5532 22.2676 13.4766 21.9319 13.4766 21.5175C13.4766 21.103 12.5532 20.7729 11.4228 20.7729C10.2924 20.7729 9.36905 21.1086 9.36905 21.5231C9.36905 21.9376 10.2915 22.2733 11.4228 22.2733" fill="#D66051"/>
<path d="M22.99 22.2676C24.1204 22.2676 25.0437 21.9319 25.0437 21.5175C25.0437 21.103 24.1204 20.7729 22.99 20.7729C21.8596 20.7729 20.9362 21.1086 20.9362 21.5231C20.9362 21.9376 21.8587 22.2733 22.99 22.2733" fill="#D66051"/>
<path d="M14.0685 23.1385C14.0685 23.1385 19.982 22.8571 21.0533 23.2754C22.1247 23.6936 20.4822 27.1959 16.8768 26.9324C13.2714 26.6689 12.1328 23.2322 14.0685 23.1385Z" fill="#FFFFFE"/>
<path d="M28.1235 15.7878C28.1235 15.7878 29.9666 15.1624 30.6439 16.4123C31.3213 17.6623 29.7723 21.6109 27.9019 19.8349C26.0316 18.0589 28.1235 15.7878 28.1235 15.7878Z" fill="#FFDDB8"/>
<path d="M6.93576 15.6269C6.55625 15.4075 4.31272 14.8477 4.14657 16.2252C3.98042 17.6027 4.30183 19.5531 5.19433 19.9441C6.08684 20.3351 8.70716 19.1583 6.93576 15.6269Z" fill="#FFDDB8"/>
<path d="M17.1673 9.50637C13.6863 9.57951 10.2107 8.85561 8.78069 11.3227C7.39026 13.54 6.72222 16.1582 6.87402 18.7952C6.87402 18.7952 6.60164 18.8627 6.4945 18.4633C6.38736 18.0638 5.88799 15.4129 5.34232 15.3304C4.95735 5.91592 7.26897 3.20503 10.9298 2.3114C14.5906 1.41777 12.2409 2.01321 12.851 1.90256C14.271 3.30161 16.5527 7.72661 17.1673 9.50637Z" fill="#41231B"/>
<path d="M13.3077 8.71591C17.6231 10.9851 23.8652 7.83072 25.8899 11.3227C27.2809 13.5398 27.949 16.1581 27.7966 18.7952C27.7966 18.7952 28.0735 18.8628 28.1761 18.4633C28.2787 18.0638 28.7845 15.7215 29.3301 15.6389C29.3301 15.6389 30.7383 2.90404 24.0759 1.27901C18.8189 -0.00282615 -0.810795 0.660127 11.8514 7.9198C12.3011 8.17798 12.7853 8.44335 13.3041 8.71591" fill="#562A1F"/>
<path d="M27.1965 64.6001C26.9132 64.9142 26.6435 65.1196 26.3167 65.4534C25.8368 65.9038 25.4235 66.4244 25.0901 66.9987C25.1489 68.1319 25.4268 69.2414 25.9072 70.2619C26.4017 69.7923 26.7476 69.1796 26.8996 68.5037C27.172 67.6542 27.6514 66.3949 27.98 65.5481C28.4422 64.36 27.4789 64.2869 27.1965 64.6001Z" fill="#FFDDB8"/>
<path d="M28.128 15.7881L27.7948 16.9912C27.4661 23.179 23.7436 28.2942 17.2064 28.2942V31.2011C17.2064 31.2011 23.4385 31.4252 25.6657 29.8236C27.8929 28.222 28.3686 24.1252 28.3323 21.7415C28.3158 20.2076 28.3779 18.6739 28.5184 17.1468L28.128 15.7881Z" fill="#562A1F"/>
<path d="M6.28295 15.7881L6.6207 16.9912C6.95482 23.18 10.6701 28.2942 17.2091 28.2942V31.2011C17.2091 31.2011 10.977 31.4252 8.74982 29.8236C6.52264 28.222 6.04416 24.1233 6.07594 21.7387C6.09384 20.2049 6.03322 18.6712 5.89435 17.144L6.28295 15.7881Z" fill="#562A1F"/>
<path d="M17.2064 33.8096C17.2064 33.8096 18.0617 34.2991 18.1143 34.6441C18.167 34.9892 17.8492 35.6493 17.6486 35.6756C17.4479 35.7019 16.8478 35.9663 16.6644 35.5462C16.481 35.1261 15.9716 34.466 16.135 34.1847C16.2985 33.9033 17.2064 33.8096 17.2064 33.8096Z" fill="#BF3634"/>
<path d="M14.5498 31.335C14.5498 31.335 15.2952 33.4523 17.2064 33.5085C19.1176 33.4523 19.863 31.335 19.863 31.335C19.863 31.335 20.3669 31.5225 20.3361 31.8507C20.3052 32.1789 19.2947 35.1467 18.8016 35.1326C18.3086 35.1186 17.2064 34.1603 17.2064 34.1603C17.2064 34.1603 16.1051 35.128 15.612 35.1373C15.119 35.1467 14.1103 32.1789 14.0758 31.8507C14.0413 31.5225 14.5498 31.335 14.5498 31.335Z" fill="#FFFFFE"/>
<path d="M22.763 32.5896C23.0354 33.6361 23.8661 37.0446 23.6328 38.3921C23.355 39.9937 21.4773 39.658 21.3684 40.441C21.2594 41.224 22.0621 41.2971 22.3172 42.1167C22.5723 42.9362 17.21 51.5415 17.21 51.5415C17.1686 51.567 17.1225 51.5834 17.0747 51.5897C17.0269 51.5959 16.9783 51.592 16.932 51.578C16.8858 51.564 16.8428 51.5403 16.8058 51.5083C16.7688 51.4764 16.7386 51.4369 16.717 51.3924C16.5354 51.0567 12.5169 43.2166 12.3353 42.5836C12.1537 41.9507 13.7916 41.0936 13.7916 40.2741C13.7916 39.4545 11.6716 40.1625 11.4546 39.8249C11.2585 39.5267 11.6407 33.9624 11.7215 32.8241C12.0167 32.5467 12.3472 32.3123 12.7039 32.1273H12.6985C12.6985 32.1273 16.885 49.9568 17.0175 50.0834C17.1501 50.2099 17.2073 50.0927 17.2073 50.0927C18.2433 47.937 21.826 32.0233 21.8405 31.9482H21.8342C22.1687 32.1198 22.4803 32.3353 22.7612 32.5896" fill="#196597"/>
<path d="M17.6231 35.3149C17.6231 35.3149 17.9627 40.9861 18.3758 46.3207C18.0673 47.6033 17.6763 48.8632 17.2055 50.0921C17.2055 50.0921 17.1483 50.2094 17.0157 50.0837C16.9749 50.0443 16.5354 48.2655 15.9516 45.8416C16.3239 40.8943 16.8931 35.4734 16.8931 35.4734L17.6231 35.3149Z" fill="#BF3634"/>
<path d="M3.59998 63.8622C3.85875 64.2532 4.30091 64.9264 4.46162 65.2546C4.79029 65.9251 5.2134 66.3321 4.5279 67.0522C4.5279 67.0522 2.26622 68.0087 2.08372 66.5618C1.95933 65.5875 2.06829 64.2672 1.90123 63.3867C1.86672 63.1992 2.76014 62.2699 3.05431 62.9179C3.19068 63.2584 3.37452 63.5765 3.59998 63.8622Z" fill="#FFDDB8"/>
</g>

</svg>
