<svg width="39" height="39" viewBox="0 0 39 39" fill="none" xmlns="http://www.w3.org/2000/svg">
<path d="M32.2459 8.92658C31.6116 8.28779 30.579 8.28596 29.9425 8.92251L28.7888 10.0763C26.3754 8.14944 23.4147 7.03488 20.3298 6.89187C17.9357 6.78088 15.5619 7.25948 13.4122 8.27182C12.4485 8.7257 12.3191 9.98657 13.0723 10.7398C13.6106 11.2781 14.4387 11.3751 15.1364 11.0709C16.5185 10.4682 18.0531 10.125 19.6563 10.125C25.945 10.125 31.0313 15.2113 31.0313 21.5C31.0313 23.1044 30.6875 24.6401 30.084 26.023C29.7804 26.7188 29.8772 27.5447 30.414 28.0815C31.162 28.8295 32.4135 28.7055 32.8698 27.7511C33.7993 25.8074 34.2854 23.6718 34.2813 21.5C34.2813 18.055 33.0788 14.8862 31.08 12.3837L32.2419 11.2219C32.8752 10.5885 32.8771 9.56218 32.2459 8.92658ZM24.5313 3.625C24.5313 2.72754 23.8037 2 22.9063 2H16.4063C15.5088 2 14.7813 2.72754 14.7813 3.625C14.7813 4.52246 15.5088 5.25 16.4063 5.25H22.9063C23.8037 5.25 24.5313 4.52246 24.5313 3.625ZM18.0313 15.715L21.2813 18.965V15C21.2813 14.1025 20.5537 13.375 19.6563 13.375C18.7588 13.375 18.0313 14.1025 18.0313 15V15.715ZM6.09656 7.90781C5.52616 7.33741 4.60134 7.33741 4.03094 7.90781C3.46126 8.47749 3.46043 9.40085 4.02907 9.97156L7.46875 13.4237C5.87215 15.814 5.02359 18.6256 5.03125 21.5C5.03125 29.5763 11.5638 36.125 19.6563 36.125C22.6463 36.125 25.425 35.2313 27.7488 33.6875L30.7794 36.7181C31.3493 37.288 32.2732 37.288 32.8431 36.7181C33.413 36.1482 33.413 35.2243 32.8431 34.6544L21.3463 23.1575L6.09656 7.90781ZM19.6563 32.875C13.3675 32.875 8.28125 27.7887 8.28125 21.5C8.28125 19.42 8.85 17.47 9.825 15.78L25.36 31.315C23.6863 32.3063 21.7363 32.875 19.6563 32.875Z" fill="white"/>
</svg>
