<svg width="54" height="50" viewBox="0 0 54 50" fill="none" xmlns="http://www.w3.org/2000/svg">
<path d="M9.11839 27.9333L25.8039 18.3C26.4524 17.9256 26.6745 17.0963 26.3001 16.4478C25.9257 15.7993 25.0965 15.5772 24.448 15.9516L7.76253 25.5849L9.59016 18.69C9.63566 18.5178 9.64679 18.3383 9.62291 18.1617C9.59904 17.9852 9.54062 17.815 9.451 17.6611C9.36138 17.5071 9.24231 17.3723 9.10059 17.2643C8.95886 17.1564 8.79727 17.0774 8.62502 17.0319C8.45278 16.9864 8.27326 16.9753 8.09671 16.9992C7.92016 17.023 7.75005 17.0815 7.59608 17.1711C7.44211 17.2607 7.3073 17.3798 7.19935 17.5215C7.09139 17.6632 7.01241 17.8248 6.96691 17.997L4.30101 28.0447C4.10963 28.766 4.53707 29.5063 5.25739 29.7012L15.2919 32.4163C15.4676 32.4796 15.6546 32.5059 15.841 32.4936C16.0274 32.4812 16.2093 32.4305 16.3752 32.3445C16.5411 32.2586 16.6874 32.1393 16.805 31.9941C16.9226 31.8489 17.0089 31.681 17.0585 31.5009C17.1082 31.3208 17.1201 31.1323 17.0934 30.9474C17.0668 30.7625 17.0022 30.5851 16.9038 30.4263C16.8053 30.2675 16.6752 30.1308 16.5214 30.0247C16.3676 29.9186 16.1935 29.8454 16.0101 29.8098L9.11839 27.9333Z" fill="white"/>
<path opacity="0.5" d="M28.7424 15.038C28.3679 14.3895 28.5901 13.5603 29.2386 13.1858L30.4128 12.5079C31.0613 12.1335 31.8906 12.3557 32.265 13.0042C32.6394 13.6527 32.4172 14.4819 31.7687 14.8563L30.5945 15.5343C29.946 15.9087 29.1168 15.6865 28.7424 15.038Z" fill="white"/>
<path opacity="0.3" d="M34.6136 11.6483C34.2392 10.9998 34.4614 10.1706 35.1099 9.7962C35.7583 9.42179 36.5876 9.64398 36.962 10.2925C37.3364 10.941 37.1142 11.7702 36.4657 12.1446C35.8172 12.519 34.988 12.2968 34.6136 11.6483Z" fill="white"/>
<path d="M37.8143 17.409C37.6424 17.3623 37.4629 17.3499 37.2862 17.3725C37.1095 17.3952 36.939 17.4524 36.7844 17.5409C36.6298 17.6294 36.4941 17.7476 36.3852 17.8885C36.2762 18.0295 36.1961 18.1905 36.1494 18.3624C36.1027 18.5343 36.0903 18.7138 36.1129 18.8905C36.1355 19.0672 36.1928 19.2377 36.2813 19.3923C36.3698 19.5469 36.4879 19.6826 36.6289 19.7915C36.7698 19.9005 36.9309 19.9806 37.1028 20.0273L43.9878 21.892L27.3023 31.5253C26.6538 31.8998 26.4316 32.729 26.806 33.3775C27.1804 34.026 28.0097 34.2482 28.6582 33.8738L45.3436 24.2404L43.5228 31.147C43.462 31.3237 43.4383 31.511 43.4533 31.6972C43.4683 31.8835 43.5216 32.0646 43.6099 32.2292C43.6982 32.3939 43.8196 32.5385 43.9664 32.654C44.1132 32.7695 44.2824 32.8535 44.4632 32.9006C44.644 32.9476 44.8325 32.9568 45.0171 32.9276C45.2016 32.8983 45.3781 32.8313 45.5355 32.7306C45.6928 32.6299 45.8277 32.4978 45.9316 32.3425C46.0355 32.1872 46.1062 32.0122 46.1393 31.8283L48.7748 21.7954C48.9638 21.0762 48.5381 20.339 47.8208 20.143L37.8143 17.409Z" fill="white"/>
<path opacity="0.5" d="M20.9351 36.767C20.5606 36.1185 20.7828 35.2893 21.4313 34.9148L22.6055 34.2369C23.254 33.8625 24.0833 34.0847 24.4577 34.7332C24.8321 35.3817 24.6099 36.2109 23.9614 36.5853L22.7872 37.2633C22.1387 37.6377 21.3095 37.4155 20.9351 36.767Z" fill="white"/>
<path opacity="0.3" d="M16.2383 39.4789C15.8639 38.8304 16.0861 38.0012 16.7346 37.6268C17.383 37.2524 18.2123 37.4745 18.5867 38.123C18.9611 38.7715 18.7389 39.6008 18.0904 39.9752C17.4419 40.3496 16.6127 40.1274 16.2383 39.4789Z" fill="white"/>
</svg>
