<svg width="46" height="46" viewBox="0 0 46 46" fill="none" xmlns="http://www.w3.org/2000/svg">
<g clip-path="url(#clip0)">
<path d="M34.2846 35.201C32.1154 35.201 29.9978 34.351 28.4339 32.8437C27.1779 31.6333 25.9864 30.3421 24.8339 29.0934C24.5693 28.8064 24.3043 28.5196 24.0386 28.2336C23.1669 27.2945 22.0379 26.8123 20.5877 26.7586C19.0141 26.7003 17.611 27.3952 16.7108 27.9886L11.282 31.6003C10.0063 32.4492 8.434 32.6791 6.96878 32.2309C5.50883 31.7842 4.33736 30.7208 3.75267 29.3114L0.666069 22.2826C-0.727202 19.0608 0.0606809 16.349 3.07218 13.9864C3.07218 13.9864 12.3502 4.93229 12.3569 4.92562C13.09 4.24022 13.893 3.56815 14.9403 3.53656C15.9959 3.50533 16.828 4.13248 17.5903 4.77787C17.7047 4.87509 17.8195 4.88596 17.8953 4.87824C17.9672 4.87087 18.0707 4.83929 18.1564 4.73014C18.9681 3.69344 19.4812 2.91468 19.8932 2.28858C20.5979 1.21819 21.1071 0.444693 22.18 0.132699C23.0584 -0.122442 24.0376 0.0217986 25.9882 0.309577C26.4398 0.376258 26.9498 0.451712 27.5285 0.532431C27.9542 0.592092 28.3258 0.851093 28.5287 1.22977C28.7319 1.60844 28.7421 2.06117 28.5564 2.44862C28.1254 3.34705 27.817 4.04404 27.4558 4.72698C27.2768 5.066 27.3344 5.16778 27.393 5.22568L31.2285 8.34949C31.563 8.52707 31.9178 8.46671 32.128 8.35511C32.3986 8.21122 32.4291 8.00451 32.4348 7.91115L32.4133 3.03014C32.4109 2.44125 32.7913 1.91903 33.3525 1.74075C33.9137 1.56247 34.5254 1.76953 34.8633 2.25209C34.8633 2.25209 44.2867 15.7184 44.2986 15.7377C46.4085 19.1058 46.3685 20.884 45.1981 24.2044C44.1575 27.1562 42.3807 30.0417 39.917 32.7809C38.5841 34.2629 36.6886 35.1207 34.5801 35.1958C34.4815 35.1993 34.3829 35.201 34.2846 35.201ZM20.4045 24.0619C20.4993 24.0619 20.5934 24.0636 20.6874 24.0671C22.8573 24.1475 24.6489 24.9326 26.0124 26.4009C26.2798 26.6891 26.5465 26.9779 26.8132 27.2667C27.9394 28.487 29.1035 29.7487 30.3031 30.9047C31.4145 31.9761 32.9363 32.5594 34.484 32.5043C35.8558 32.4552 37.0743 31.9137 37.9145 30.9798C40.1399 28.5052 41.7356 25.9247 42.6579 23.3091C43.6466 20.5043 43.5613 19.6392 42.0343 17.1966L35.1251 7.32366C35.1251 7.32366 35.1272 7.96941 35.1269 7.98801C35.0834 9.15246 34.4348 10.1786 33.3914 10.7331C32.2491 11.3403 30.8527 11.2905 29.7472 10.6022C29.6988 10.5721 29.6524 10.5391 29.6082 10.5033C29.6082 10.5033 25.6246 7.25804 25.6077 7.24294C24.5517 6.29012 24.3475 4.8435 25.075 3.46778C25.1652 3.29721 25.2536 3.12104 25.3438 2.93714C24.1516 2.76166 23.2258 2.63322 22.9314 2.71885C22.811 2.75394 22.4558 3.2937 22.1425 3.76959C21.7262 4.40165 21.1566 5.2671 20.2761 6.39084C19.7535 7.05764 19.0053 7.47212 18.1686 7.5574C17.3267 7.64338 16.5027 7.38613 15.8496 6.83304C15.3347 6.3968 15.108 6.27292 15.0199 6.23782C14.9329 6.27713 14.7093 6.41365 14.2068 6.88287L4.89958 15.9662C4.86308 16.0016 4.82448 16.0353 4.78412 16.0665C2.69702 17.6841 2.23482 19.1251 3.135 21.2065C3.135 21.2065 6.23284 28.2613 6.23705 28.2712C6.51149 28.9394 7.06529 29.444 7.75631 29.6553C8.44768 29.8669 9.18889 29.7585 9.79007 29.3581L15.2238 25.7429C16.8986 24.6392 18.6821 24.0619 20.4045 24.0619Z" fill="white"/>
<path d="M35.1276 45.9732C32.3081 45.9732 30.474 42.112 29.9297 39.5171C29.8462 39.1198 29.9462 38.7064 30.202 38.3916C30.4575 38.0768 30.8418 37.8936 31.2475 37.8936H39.0081C39.4138 37.8936 39.7978 38.0768 40.0536 38.3916C40.3095 38.7064 40.4095 39.1198 40.326 39.5171C39.7813 42.1123 37.9472 45.9732 35.1276 45.9732ZM33.0598 40.5868C33.2757 41.129 33.5333 41.6417 33.8133 42.0769C34.3478 42.908 34.8585 43.28 35.1276 43.28C35.3968 43.28 35.9078 42.908 36.4423 42.0769C36.7224 41.6421 36.98 41.129 37.1958 40.5868H33.0598Z" fill="white"/>
</g>
<defs>
<clipPath id="clip0">
<rect width="46" height="46" fill="white"/>
</clipPath>
</defs>
</svg>
