<svg width="74" height="77" viewBox="0 0 74 77" fill="none" xmlns="http://www.w3.org/2000/svg">
<path fill-rule="evenodd" clip-rule="evenodd" d="M47.5249 3.54843e-05C38.8585 -0.0108917 30.3546 2.50211 22.9354 7.26655C15.5162 12.031 9.46479 18.865 5.43729 27.0277C1.4098 35.1903 -0.440053 44.3701 0.0883182 53.5715C0.616689 62.7729 3.50312 71.6449 8.43463 79.2255L2.81866 101H47.5249C60.1161 101 72.1916 95.6795 81.0949 86.2089C89.9982 76.7383 95 63.8935 95 50.5C95 37.1066 89.9982 24.2617 81.0949 14.7911C72.1916 5.32055 60.1161 3.54843e-05 47.5249 3.54843e-05ZM76.7644 43.0917C76.5798 43.6202 76.2807 44.0951 75.8914 44.4777C71.7218 48.8483 67.5391 53.2097 63.3434 57.5618C63.222 57.6515 63.127 57.7759 63.0693 57.9206C63.0117 58.0653 62.9938 58.2245 63.0177 58.3796C64.0514 64.6075 65.0721 70.84 66.0797 77.0771C66.1776 77.6009 66.101 78.1446 65.8633 78.615C65.6256 79.0853 65.2414 79.4531 64.7767 79.6552C64.432 79.7941 64.0615 79.8451 63.695 79.8042C63.3284 79.7633 62.9759 79.6315 62.6658 79.4195L47.16 70.7846C47.0231 70.6874 46.8621 70.6356 46.6975 70.6356C46.5328 70.6356 46.3719 70.6874 46.2349 70.7846C45.4792 71.242 44.6974 71.6578 43.9286 72.0874C39.5244 74.5407 35.1202 77.0078 30.69 79.4472C30.2022 79.7421 29.6483 79.8906 29.0873 79.8769C28.7741 79.8509 28.4705 79.7498 28.1992 79.5814C27.9278 79.413 27.6958 79.1815 27.5203 78.9043C27.3449 78.6271 27.2307 78.3113 27.1861 77.9805C27.1416 77.6497 27.1679 77.3124 27.2631 76.994C27.4586 75.6911 27.7061 74.4021 27.9146 73.0992C28.7094 68.2343 29.5303 63.397 30.3382 58.5043C30.3921 58.3281 30.3974 58.1392 30.3535 57.9599C30.3096 57.7806 30.2184 57.6184 30.0906 57.4925C26.0122 53.3344 22.0902 49.0793 18.0117 44.8935C17.7272 44.6637 17.4902 44.374 17.3153 44.0426C17.1405 43.7112 17.0316 43.345 16.9954 42.9669V42.371C16.9703 41.8666 17.1324 41.372 17.4468 40.9935C17.7611 40.615 18.2027 40.383 18.6763 40.3474C20.2529 40.0979 21.5559 39.8345 23.1326 39.585C27.4455 38.9059 31.7585 38.199 36.0714 37.5476C36.222 37.5255 36.3639 37.4594 36.4812 37.3566C36.5985 37.2538 36.6867 37.1184 36.736 36.9654C39.2638 31.4213 41.8177 25.8772 44.3456 20.4024C44.7886 19.4183 45.3358 18.1847 46.3782 18.1847H46.8864C47.9549 18.1847 48.5152 19.4322 48.9321 20.444C49.3491 21.4558 49.7139 22.329 50.1048 23.216C52.2418 27.8361 54.3831 32.4562 56.5287 37.0763C56.5778 37.1898 56.6482 37.2914 56.7356 37.3748C56.823 37.4583 56.9255 37.5218 57.0368 37.5614C60.1641 38.0604 63.3043 38.5178 66.4446 38.9475L74.9141 40.1949C75.2311 40.2164 75.5393 40.3148 75.8151 40.4823C76.0909 40.6499 76.3271 40.8823 76.5056 41.1617C76.6841 41.4412 76.8002 41.7604 76.8451 42.0948C76.8899 42.4293 76.8623 42.7703 76.7644 43.0917Z" fill="#F4F4F4"/>
</svg>
