<svg width="29" height="30" viewBox="0 0 29 30" fill="none" xmlns="http://www.w3.org/2000/svg">
<path fill-rule="evenodd" clip-rule="evenodd" d="M14.2119 1.05399e-05C11.6203 -0.00323516 9.0773 0.7432 6.85865 2.15838C4.64 3.57356 2.83037 5.60348 1.62598 8.02803C0.421588 10.4526 -0.131594 13.1792 0.0264108 15.9123C0.184416 18.6454 1.04758 21.2807 2.5223 23.5323L0.842897 30H14.2119C17.9772 30 21.5883 28.4196 24.2507 25.6066C26.9132 22.7936 28.409 18.9783 28.409 15C28.409 11.0218 26.9132 7.20645 24.2507 4.39341C21.5883 1.58036 17.9772 1.05399e-05 14.2119 1.05399e-05ZM22.9558 12.7995C22.9005 12.9565 22.8111 13.0975 22.6947 13.2112C21.4478 14.5094 20.197 15.8049 18.9423 17.0976C18.906 17.1242 18.8776 17.1611 18.8604 17.2041C18.8431 17.2471 18.8378 17.2944 18.8449 17.3405C19.154 19.1903 19.4593 21.0416 19.7606 22.8942C19.7898 23.0498 19.767 23.2113 19.6959 23.351C19.6248 23.4907 19.5099 23.5999 19.3709 23.6599C19.2679 23.7012 19.1571 23.7164 19.0474 23.7042C18.9378 23.6921 18.8324 23.6529 18.7397 23.59L14.1028 21.0251C14.0619 20.9963 14.0137 20.9809 13.9645 20.9809C13.9153 20.9809 13.8671 20.9963 13.8262 21.0251C13.6002 21.161 13.3664 21.2845 13.1365 21.4121C11.8194 22.1408 10.5024 22.8736 9.17759 23.5982C9.0317 23.6858 8.86606 23.7299 8.69832 23.7258C8.60466 23.7181 8.51386 23.6881 8.43272 23.638C8.35158 23.588 8.28219 23.5193 8.22973 23.4369C8.17727 23.3546 8.14311 23.2608 8.12979 23.1625C8.11646 23.0643 8.12433 22.9641 8.1528 22.8695C8.21125 22.4825 8.28528 22.0996 8.34763 21.7126C8.58532 20.2676 8.8308 18.8308 9.07239 17.3775C9.08849 17.3252 9.09008 17.2691 9.07696 17.2158C9.06384 17.1626 9.03656 17.1144 8.99835 17.077C7.77874 15.8419 6.60588 14.578 5.38626 13.3347C5.30118 13.2664 5.23029 13.1804 5.17801 13.082C5.12572 12.9835 5.09316 12.8748 5.08233 12.7625V12.5854C5.07483 12.4356 5.1233 12.2887 5.21731 12.1763C5.31132 12.0639 5.44335 11.9949 5.58498 11.9844C6.05647 11.9103 6.44612 11.832 6.9176 11.7579C8.20735 11.5562 9.49711 11.3462 10.7869 11.1527C10.8319 11.1462 10.8743 11.1265 10.9094 11.096C10.9445 11.0655 10.9709 11.0253 10.9856 10.9798C11.7415 9.33307 12.5052 7.6863 13.2612 6.06012C13.3936 5.76781 13.5573 5.40141 13.869 5.40141H14.021C14.3405 5.40141 14.5081 5.77193 14.6327 6.07247C14.7574 6.373 14.8665 6.63237 14.9834 6.89585C15.6225 8.26816 16.2628 9.64046 16.9044 11.0128C16.9191 11.0465 16.9402 11.0767 16.9663 11.1014C16.9924 11.1262 17.0231 11.1451 17.0564 11.1569C17.9916 11.3051 18.9306 11.4409 19.8697 11.5686L22.4024 11.9391C22.4972 11.9455 22.5894 11.9747 22.6719 12.0245C22.7543 12.0742 22.825 12.1432 22.8784 12.2263C22.9317 12.3093 22.9665 12.4041 22.9799 12.5034C22.9933 12.6028 22.985 12.704 22.9558 12.7995Z" fill="#EF6F2E"/>
</svg>
